<svg width="367" height="260" viewBox="0 0 367 260" fill="none" xmlns="http://www.w3.org/2000/svg">
<path d="M67.2407 5.42067H296.759C302.697 5.42067 307.5 10.1747 307.5 16.0264V221.04C307.5 226.892 302.697 231.646 296.759 231.646H67.2407C61.3031 231.646 56.5 226.892 56.5 221.04V16.0264C56.5 10.1747 61.3031 5.42067 67.2407 5.42067Z" fill="#FFE4E9" stroke="#02011D"/>
<path d="M236.272 112.035H182.5V80.0852C184.615 77.1756 186.684 75.9537 188.69 76.0029C190.749 76.0533 192.947 77.4431 195.278 80.2436L195.323 80.297L195.38 80.3363C198.026 82.1482 200.948 82.7578 204.059 82.432C209.513 81.8612 214.209 78.0529 215.269 72.677C216.156 68.1739 214.388 63.7847 210.649 59.5328L210.612 59.4907L210.566 59.4579C207.57 57.2906 204.698 56.2264 201.944 56.2274C199.184 56.2285 196.607 57.2988 194.205 59.2805L194.167 59.3119L194.136 59.35C192.244 61.6673 190.352 62.6106 188.468 62.549C186.602 62.4879 184.611 61.4394 182.5 59.4517V5.42067H296.807C299.645 5.42067 302.365 6.53453 304.37 8.51531C306.375 10.4959 307.5 13.1809 307.5 15.9792V112.422H257.14H256.984L256.856 112.511C253.816 114.607 252.101 116.754 251.966 118.978C251.829 121.226 253.315 123.304 256.039 125.226L256.044 125.229C256.953 125.854 257.776 126.594 258.491 127.429C259.893 129.105 260.682 130.777 260.957 132.445C261.231 134.113 260.996 135.81 260.297 137.544L260.297 137.544C258.875 141.076 255.854 143.757 252.193 145.021L252.19 145.022C250.781 145.518 249.319 145.85 247.832 146.012C241.162 146.7 234.826 142.701 232.539 136.473C231.945 134.855 231.78 133.257 232.241 131.647C232.703 130.032 233.81 128.35 235.859 126.597C236.335 126.195 236.845 125.833 237.382 125.515L237.386 125.513C240.435 123.677 242.252 121.6 242.177 119.223C242.103 116.873 240.179 114.52 236.548 112.118L236.422 112.035H236.272Z" fill="white" stroke="#02011D"/>
<path d="M235.885 81.7672L235.886 81.7674C251.36 83.3424 265.9 84.1548 278.215 83.2108L278.216 83.2108C279.625 83.1022 281.041 83.3232 282.348 83.8559C297.097 89.8891 300.852 103.786 301.412 113.407L250.043 148.542L215.043 137.262L207.96 113.323C210.592 107.614 214.271 101.01 218.332 95.2985C222.447 89.5128 226.905 84.7141 231.02 82.642C232.523 81.8953 234.211 81.5914 235.885 81.7672Z" fill="#02011D" stroke="#02011D"/>
<path d="M307.87 113.609H202.051L203.98 137.408L228.23 141.903L261.85 140.845L307.87 113.609Z" fill="#FFE4E9" stroke="#FFE4E9"/>
<path d="M268.307 69.4144C284.471 66.6596 297.084 59.5326 299.856 40.2589C300.614 35.1842 300.248 30.0074 298.785 25.0859C297.078 19.4582 293.989 14.3894 287.889 10.5465C286.956 8.28162 284.555 6.46149 281.219 4.92077C278.43 3.62996 245.706 3.75786 243.702 4.92077C239.826 7.15851 236.736 10.5149 234.848 14.5389C231.416 21.906 233.426 28.1161 241.585 33.0354L268.307 69.4144Z" fill="#FF5F7D"/>
<path d="M270.034 82.6051C262.023 82.8898 253.658 82.5627 244.94 81.6229C246.6 77.2691 247.485 72.6884 247.777 67.9456L247.797 67.6223L247.51 67.472C241.322 64.2297 238.12 59.6535 237.353 53.947C236.591 48.2774 238.225 41.4269 241.887 33.5744C242.639 33.6461 243.393 33.7167 244.146 33.7872C251.608 34.4858 258.997 35.1775 264.328 36.8659C267.306 37.8088 269.553 39.0374 270.823 40.6747C272.064 42.2733 272.429 44.3381 271.473 47.1293L271.04 48.393L272.196 47.7241C273.26 47.1086 274.195 46.7749 274.992 46.7589C275.756 46.7436 276.428 47.0185 277.016 47.7162C277.626 48.4681 277.927 49.4188 277.858 50.3786L277.858 50.3824C277.664 53.438 276.813 55.9794 275.353 58.0513C273.893 60.1236 271.803 61.7547 269.087 62.9576L268.862 63.0569L268.804 63.2953C267.194 69.8374 267.18 76.3131 270.034 82.6051Z" fill="#FFFF24" stroke="#02011D"/>
<path d="M174.582 110.278C174.682 110.988 174.782 111.698 174.883 112.409L80.1844 112.411C79.3925 102.318 81.4632 92.0535 87.3148 81.5507L87.3149 81.5505C88.9741 78.5691 91.3396 76.0282 94.2097 74.1455C97.0798 72.2628 100.369 71.0943 103.796 70.7403C103.796 70.7403 103.796 70.7403 103.796 70.7402L111.662 69.9302C112.964 70.7693 114.749 71.294 116.884 71.6121C119.114 71.9443 121.774 72.0577 124.759 72.0408C129.01 72.0168 133.963 71.727 139.321 71.4137C141.467 71.2882 143.677 71.1589 145.934 71.0413L152.333 71.6732L152.335 71.6733C155.999 72.0244 159.494 73.3687 162.433 75.5573C165.372 77.7454 167.641 80.6924 168.992 84.0725C171.944 91.5519 173.258 100.878 174.582 110.278Z" fill="#FF5F7D" stroke="#02011D"/>
<path d="M147.401 19.7982L147.245 19.8176L147.128 19.9229L113.05 50.627L109.06 47.6313L108.878 47.4951L108.656 47.5419C106.135 48.0731 103.968 48.1995 102.312 47.708C100.703 47.2305 99.5407 46.1613 98.9949 44.1609L98.8917 43.7825L98.4996 43.7927C94.8926 43.8863 92.6655 43.0175 91.4273 41.5061C90.1808 39.9848 89.8208 37.6748 90.2797 34.6167L90.3106 34.4109L90.1863 34.2439C88.9164 32.5384 88.2974 30.9973 88.1857 29.5977C88.0746 28.2059 88.461 26.906 89.2893 25.6666C90.9673 23.1557 94.4346 20.9289 99.0945 18.8767L99.5372 18.6818L99.357 18.2328C98.2429 15.458 98.2884 13.0462 99.4689 10.9533C100.653 8.85329 103.027 6.98931 106.761 5.42067H154.915C155.122 5.62851 155.238 5.83378 155.296 6.03296C155.365 6.2726 155.362 6.54323 155.279 6.85713C155.106 7.506 154.613 8.25827 153.91 9.10028L153.692 9.36151L153.855 9.66029C155.494 12.6639 155.726 14.9109 154.768 16.5037C153.794 18.1228 151.466 19.2923 147.401 19.7982Z" fill="#1632E8" stroke="#02011D"/>
<path d="M136.224 71.5522C131.165 71.6096 126.455 71.5211 122.386 71.1607C118.317 70.8003 114.927 70.1707 112.476 69.1659C114.897 64.147 114.498 57.3388 113.423 50.2175L113.412 50.146L113.382 50.0805L111.103 45.2045L110.98 44.9412L110.69 44.9178C106.626 44.5899 104.912 43.3172 104.305 41.7039C103.99 40.8663 103.944 39.8719 104.099 38.7409C104.249 37.6424 104.585 36.4466 105.013 35.1897C105.976 34.2398 106.842 33.9799 107.647 34.057C108.513 34.14 109.401 34.6203 110.354 35.3212L111.031 35.8195L111.146 34.9863C111.666 31.1848 113.011 28.2895 115.001 26.1047C116.993 23.917 119.662 22.4099 122.882 21.4359C129.268 19.5036 137.73 19.6943 147.089 20.7549C150.601 31.4763 151.099 39.5656 148.992 45.3316C146.882 51.1057 142.117 54.6555 134.838 56.1761L134.563 56.2335L134.469 56.4975C132.548 61.8804 132.946 66.9462 136.224 71.5522Z" fill="#FFFF24" stroke="#02011D"/>
<path d="M222.671 156.921L222.658 156.896L222.642 156.873C221.124 154.643 220.22 152.625 219.968 150.838C219.717 149.07 220.101 147.517 221.187 146.162C222.287 144.79 224.14 143.584 226.896 142.602C229.647 141.621 233.263 140.877 237.84 140.405L237.845 140.404C249.197 139.121 258.387 139.734 265.148 142.469C271.877 145.19 276.219 150.019 277.909 157.268L277.985 157.593L278.314 157.648C284.725 158.713 288.069 161.242 289.54 164.637C291.031 168.08 290.662 172.553 289.299 177.649L289.216 177.96L289.465 178.165C297.61 184.846 300.555 192.409 299.911 200.611L299.87 201.143L300.403 201.151C302.307 201.178 303.683 201.979 304.789 203.257C305.897 204.535 306.726 206.284 307.5 208.214V221.066C307.499 223.87 306.372 226.561 304.362 228.546C302.353 230.531 299.627 231.647 296.783 231.648H262.129L222.671 156.921Z" fill="#1632E8" stroke="#02011D"/>
<path d="M286.674 231.648H199.747L205.9 222.96L205.9 222.96C207.41 220.827 209.383 219.053 211.675 217.767C213.967 216.481 216.52 215.715 219.15 215.526C219.15 215.526 219.15 215.526 219.15 215.526L231.317 214.652C231.85 214.728 232.387 214.803 232.923 214.87C241.475 215.963 250.137 215.89 258.669 214.653L268.534 215.736L268.534 215.736C270.719 215.976 272.83 216.662 274.732 217.751C276.635 218.841 278.286 220.308 279.582 222.062L279.582 222.062L286.674 231.648Z" fill="white" stroke="#02011D"/>
<path d="M232.229 213.772C235.427 209.198 236.62 203.961 235.239 197.917L235.171 197.619L234.875 197.543C230.704 196.48 227.583 194.687 225.308 192.307C223.033 189.927 221.579 186.932 220.787 183.424C219.219 176.479 220.26 167.582 222.62 157.666C225.123 157.723 227.71 157.734 230.292 157.746C232.555 157.756 234.813 157.766 237.007 157.806C241.876 157.896 246.507 158.135 250.463 158.845C254.428 159.557 257.644 160.732 259.74 162.64C261.803 164.518 262.837 167.158 262.342 170.966L262.252 171.653L262.932 171.522C265.365 171.053 267.022 171.274 268.004 172.049C268.961 172.804 269.441 174.225 269.172 176.598L269.168 176.628L269.169 176.658C269.199 181.372 268.738 185.167 267.598 187.7C267.032 188.958 266.311 189.876 265.427 190.451C264.549 191.023 263.468 191.284 262.124 191.157L261.653 191.112L261.582 191.579L258.222 213.709C249.603 214.929 240.853 214.95 232.229 213.772Z" fill="#FFFF24" stroke="#02011D"/>
<path d="M169.289 184.406C168.063 185.398 166.684 186.187 165.204 186.745L165.193 186.749L165.193 186.749C165.003 186.815 164.801 186.883 164.599 186.949L164.598 186.949C158.439 188.949 151.844 185.338 150.095 179.166C148.735 174.376 149.469 168.607 153.235 165.316L153.236 165.315C153.461 165.12 153.681 164.925 153.89 164.726L153.891 164.725C155.981 162.75 158.232 161.832 160.618 161.927C162.987 162.022 165.415 163.113 167.883 165.009L167.899 165.021L167.914 165.035C170.146 167.056 172.38 168.04 174.626 168.048C176.821 168.056 179.109 167.132 181.5 165.171V113.411H150.118H149.974L149.852 113.334C146.56 111.267 144.877 108.948 144.73 106.384C144.584 103.847 145.958 101.242 148.355 98.6204L148.358 98.6169C149.517 97.3736 150.462 95.9513 151.155 94.4068C152.21 91.9862 151.802 89.1226 150.418 86.6798L150.418 86.6793C149.889 85.7434 149.496 85.0568 148.898 84.42C148.305 83.7885 147.489 83.1845 146.096 82.4797L146.096 82.4794C143.402 81.112 141.162 80.5467 138.975 80.5916C136.782 80.6366 134.595 81.2961 132.004 82.4564L131.998 82.4587C129.476 83.5546 127.297 85.2973 125.688 87.5051C124.18 89.6232 123.582 91.6351 123.914 93.5596C124.248 95.489 125.536 97.4371 128.027 99.3853C130.851 101.394 132.105 103.628 131.967 106.052C131.832 108.429 130.359 110.845 128.092 113.253L127.944 113.411H127.728H56.5V221.019V221.019C56.4993 222.414 56.7768 223.797 57.3169 225.086C57.8571 226.376 58.6493 227.549 59.6487 228.536C60.6481 229.524 61.8351 230.308 63.1419 230.843C64.4487 231.378 65.8497 231.654 67.2646 231.654H181.496M169.289 184.406C169.289 184.407 169.288 184.407 169.288 184.407L168.977 184.016L169.291 184.405C169.291 184.405 169.29 184.406 169.289 184.406ZM169.289 184.406C171.323 182.79 173.342 182.128 175.361 182.288C177.337 182.444 179.381 183.394 181.496 185.143M181.496 185.143V231.654M181.496 185.143C181.555 185.192 181.614 185.241 181.673 185.291L181.996 184.909M181.496 185.143V184.909H181.996M181.496 231.654H181.996M181.496 231.654V232.154H67.2646C65.7848 232.154 64.3195 231.866 62.9525 231.306C61.5854 230.746 60.3433 229.926 59.2972 228.892C58.2511 227.858 57.4215 226.63 56.8558 225.279C56.29 223.929 55.9992 222.481 56 221.019L181.996 231.654M181.996 231.654V184.909M181.996 231.654V184.909" fill="white" stroke="#02011D"/>
<path d="M145.946 146.659C155.095 137.662 150.976 131.277 133.422 127.534C109.61 123.259 90.3336 135.706 75.735 165.405C66.8245 173.335 58.8918 181.607 59.0671 192.703L56.0299 200.574L56 221.209C56 224.11 57.1665 226.893 59.2427 228.944C61.319 230.995 64.1351 232.148 67.0714 232.148H100.973L145.946 146.659Z" fill="#02011D"/>
<path d="M130.34 188.53L129.885 188.571V189.028V202.112C120.343 203.892 111.085 203.433 102.147 200.335C104.1 192.991 104.342 184.845 103.558 176.235L103.518 175.789L103.069 175.781C100.321 175.733 98.1775 174.99 97.0115 172.701C95.8099 170.342 95.5711 166.22 97.0871 159.189C97.6479 157.958 98.5448 157.105 99.8346 156.643C101.16 156.169 102.938 156.095 105.245 156.525L105.722 156.613L105.825 156.139C107.012 150.697 111.479 147.666 118.513 146.386C125.476 145.119 134.811 145.606 145.53 147.105C147.931 158.463 148.786 168.387 146.741 175.683C145.713 179.354 143.955 182.341 141.306 184.518C138.655 186.696 135.073 188.098 130.34 188.53Z" fill="#FFFF24" stroke="#02011D"/>
<path d="M162.751 231.648H74.2795L77.8689 220.846L77.8689 220.846C79.2164 216.789 81.4947 213.094 84.5264 210.05C87.5582 207.006 91.2615 204.695 95.3473 203.298L95.3474 203.298L101.556 201.175C110.015 203.598 119.689 204.107 130.361 203.031L144.88 205.948C147.205 206.415 149.379 207.436 151.215 208.92C153.05 210.404 154.491 212.308 155.412 214.466L162.751 231.648Z" fill="#FF5F7D" stroke="#02011D"/>
</svg>
