<svg width="320" height="165" viewBox="0 0 320 165" fill="none" xmlns="http://www.w3.org/2000/svg">
<path d="M135.652 164.049H5.37755C3.95117 164.048 2.58338 163.32 1.57494 162.024C0.566507 160.728 -7.19669e-08 158.971 0 157.139H0C0 155.307 0.566561 153.55 1.57505 152.254C2.58353 150.959 3.95133 150.231 5.37755 150.231H135.652C137.078 150.231 138.446 150.959 139.455 152.254C140.464 153.55 141.031 155.307 141.031 157.139C141.031 158.971 140.464 160.729 139.455 162.024C138.446 163.32 137.078 164.048 135.652 164.049Z" fill="#02011D"/>
<path d="M13.7437 150.231V45.407C13.7441 43.6859 14.2767 42.0354 15.2242 40.8186C16.1718 39.6018 17.4567 38.9182 18.7965 38.9182H121.04C122.38 38.9188 123.664 39.6026 124.611 40.8194C125.558 42.0361 126.091 43.6863 126.091 45.407V150.231H13.7437Z" fill="#02011D"/>
<path d="M34.1227 65.7668L104.882 54.7472C106.138 54.5513 107.413 54.7203 108.612 55.2415C109.811 55.7628 110.903 56.6231 111.809 57.759C112.714 58.895 113.41 60.2775 113.844 61.8048C114.278 63.3321 114.44 64.965 114.318 66.5833L110.075 122.708C109.872 125.384 108.954 127.887 107.477 129.791C106 131.695 104.055 132.884 101.973 133.155L33.8339 141.96C32.5334 142.126 31.2202 141.93 29.9845 141.383C28.7488 140.836 27.6199 139.953 26.6752 138.793C25.7305 137.632 24.9925 136.223 24.5118 134.662C24.0311 133.101 23.8191 131.424 23.8905 129.748L26.1734 76.6678C26.2918 73.9412 27.1531 71.355 28.6064 69.3621C30.0597 67.3691 32.0124 66.0964 34.1227 65.7668Z" fill="white"/>
<path d="M62.4329 138.005L46.4366 140.188C51.048 131.843 54.7011 117.929 57.8882 102.696L58.2404 101.012L57.0405 102.244C46.6918 112.873 40.0628 125.152 40.3029 140.378L31.5066 141.435C31.8943 112.004 38.9308 87.7119 57.8283 72.3839C58.5156 71.8331 59.2638 71.5401 60.0119 71.5039C60.7595 71.4676 61.5147 71.6873 62.2194 72.1664L62.2214 72.1677C70.5094 77.7433 80.0067 81.0198 91.7844 79.8367C107.134 80.975 121.546 78.0544 135.211 71.9455L141.388 85.9675C128.637 95.9821 113.12 100.075 95.5123 99.7669L95.0964 99.7597L95.0135 100.167C92.4251 112.907 86.3973 125.551 79.707 136.03L62.4437 138.003L62.4437 138.003L62.4329 138.005Z" fill="#FF5F7D" stroke="#02011D"/>
<path d="M74.7465 77.9003C77.7073 76.1111 79.9609 72.8901 81.5569 68.8452C83.3371 64.333 84.3258 58.7318 84.5528 52.7602L84.5656 52.4238L84.2587 52.2854C82.1887 51.352 80.7197 49.8285 79.967 47.5362C79.2067 45.2207 79.1654 42.0819 80.0565 37.919L80.0565 37.919C80.2549 36.9918 80.6811 36.1937 81.2498 35.6371C81.8162 35.0828 82.4869 34.8018 83.1558 34.8021L83.2279 34.8022L83.2972 34.7818L100.848 29.6178L99.6875 53.0761L97.599 68.0226L97.596 68.0445L97.5949 68.0666L97.0189 79.5258C89.5874 80.0685 81.3571 80.0278 74.7465 77.9003Z" fill="#FFFF24" stroke="#02011D"/>
<path d="M118.236 22.2591L118.211 22.3366L118.212 22.418C118.286 30.6129 115.912 40.1234 112.596 50.1695L100.446 62.8046L86.9434 51.7319V21.9273L99.6821 14.1163L119.559 18.1858L118.236 22.2591Z" fill="#FFFF24" stroke="#02011D"/>
<path d="M313.63 163.935H183.356C181.93 163.934 180.562 163.206 179.553 161.91C178.545 160.614 177.979 158.857 177.979 157.025C177.979 155.193 178.545 153.436 179.554 152.14C180.562 150.845 181.93 150.117 183.356 150.117H313.63C315.057 150.117 316.425 150.844 317.434 152.14C318.442 153.435 319.009 155.192 319.01 157.025C319.009 158.857 318.442 160.615 317.434 161.91C316.425 163.206 315.057 163.934 313.63 163.935Z" fill="#02011D"/>
<path d="M191.722 150.117V45.293C191.722 43.5721 192.254 41.9216 193.202 40.7047C194.149 39.4878 195.434 38.8042 196.773 38.8042H299.019C300.358 38.8042 301.643 39.4878 302.59 40.7047C303.537 41.9216 304.07 43.5721 304.07 45.293V150.117H191.722Z" fill="#02011D"/>
<path d="M282.86 54.633L269.584 56.7008C275.994 61.2381 280.58 67.1233 283.695 74.095C285.281 77.6467 286.023 81.6726 286.151 85.7621C286.151 85.7884 286.151 85.8148 286.151 85.8411C286.187 86.7305 286.441 87.5824 286.878 88.2743C287.314 88.9661 287.911 89.4622 288.581 89.6914C289.295 89.9347 289.908 90.525 290.289 91.3377C290.329 91.4277 290.312 92.1894 290.255 93.4077L292.29 66.4691C292.413 64.8515 292.251 63.2191 291.817 61.6924C291.383 60.1657 290.688 58.7835 289.783 57.6477C288.878 56.5119 287.786 55.6514 286.588 55.1297C285.39 54.6079 284.116 54.4382 282.86 54.633Z" fill="white"/>
<path d="M264.313 134.685L239.587 61.3682L212.101 65.6486C209.991 65.9783 208.038 67.251 206.585 69.2439C205.131 71.2369 204.27 73.823 204.152 76.5496L201.864 129.634C201.792 131.311 202.004 132.987 202.485 134.548C202.966 136.109 203.704 137.518 204.648 138.679C205.593 139.839 206.722 140.722 207.958 141.269C209.193 141.816 210.507 142.012 211.807 141.846L279.955 133.026C281.782 132.793 283.511 131.851 284.911 130.326C283.062 132.152 280.408 133.225 276.725 133.335L264.313 134.685Z" fill="white"/>
<path d="M288.422 90.1644L288.423 90.1646C288.968 90.3502 289.473 90.807 289.81 91.4873C289.811 91.502 289.812 91.5205 289.812 91.543C289.815 91.6347 289.815 91.7678 289.811 91.9424C289.804 92.2899 289.785 92.7795 289.754 93.3846L289.754 93.3869C289.6 96.744 289.146 103.61 288.73 109.642C288.522 112.657 288.324 115.462 288.177 117.513C288.104 118.538 288.044 119.375 288.002 119.956L287.954 120.626L287.941 120.801L287.938 120.846L287.937 120.857L287.937 120.86L287.937 120.861C287.937 120.861 287.937 120.861 288.018 120.867L287.937 120.861L287.937 120.863C287.664 124.802 286.624 127.908 284.54 129.982C282.803 131.698 280.282 132.739 276.693 132.846L276.669 132.847L276.646 132.85L264.801 134.335L240.055 61.2188L240.055 61.2183L229.375 29.5542L229.334 29.4325L229.239 29.3456C227.062 27.3464 225.81 25.396 225.462 23.4973C225.123 21.6472 225.627 19.7624 227.136 17.8156C234.234 14.1686 239.871 12.9573 244.465 13.4294C249.066 13.9022 252.685 16.0701 255.728 19.3007L255.752 19.3261L255.779 19.348C261.767 24.1494 264.965 31.7959 267.38 40.372C268.034 42.7115 268.325 45.1958 268.233 47.6825L268.233 47.685C268.127 51.0493 268.317 54.1868 269.108 56.8435L269.158 57.0091L269.299 57.1089C275.629 61.5902 280.16 67.4021 283.242 74.2989L283.242 74.2991C284.794 77.7681 285.527 81.73 285.654 85.7699V85.7701V85.7702V85.7704V85.7705V85.7707V85.7708V85.771V85.7712V85.7713V85.7715V85.7716V85.7718V85.7719V85.7721V85.7722V85.7724V85.7725V85.7727V85.7729V85.773V85.7732V85.7733V85.7735V85.7736V85.7738V85.7739V85.7741V85.7742V85.7744V85.7746V85.7747V85.7749V85.775V85.7752V85.7753V85.7755V85.7756V85.7758V85.7759V85.7761V85.7762V85.7764V85.7766V85.7767V85.7769V85.777V85.7772V85.7773V85.7775V85.7776V85.7778V85.7779V85.7781V85.7783V85.7784V85.7786V85.7787V85.7789V85.779V85.7792V85.7793V85.7795V85.7796V85.7798V85.78V85.7801V85.7803V85.7804V85.7806V85.7807V85.7809V85.781V85.7812V85.7813V85.7815V85.7816V85.7818V85.782V85.7821V85.7823V85.7824V85.7826V85.7827V85.7829V85.783V85.7832V85.7833V85.7835V85.7837V85.7838V85.784V85.7841V85.7843V85.7844V85.7846V85.7847V85.7849V85.785V85.7852V85.7854V85.7855V85.7857V85.7858V85.786V85.7861V85.7863V85.7864V85.7866V85.7867V85.7869V85.787V85.7872V85.7874V85.7875V85.7877V85.7878V85.788V85.7881V85.7883V85.7884V85.7886V85.7887V85.7889V85.7891V85.7892V85.7894V85.7895V85.7897V85.7898V85.79V85.7901V85.7903V85.7904V85.7906V85.7908V85.7909V85.7911V85.7912V85.7914V85.7915V85.7917V85.7918V85.792V85.7921V85.7923V85.7924V85.7926V85.7928V85.7929V85.7931V85.7932V85.7934V85.7935V85.7937V85.7938V85.794V85.7942V85.7943V85.7945V85.7946V85.7948V85.7949V85.7951V85.7952V85.7954V85.7955V85.7957V85.7959V85.796V85.7962V85.7963V85.7965V85.7966V85.7968V85.7969V85.7971V85.7972V85.7974V85.7975V85.7977V85.7979V85.798V85.7982V85.7983V85.7985V85.7986V85.7988V85.7989V85.7991V85.7992V85.7994V85.7996V85.7997V85.7999V85.8V85.8002V85.8003V85.8005V85.8006V85.8008V85.8009V85.8011V85.8013V85.8014V85.8016V85.8017V85.8019V85.802V85.8022V85.8023V85.8025V85.8026V85.8028V85.8029V85.8031V85.8033V85.8034V85.8036V85.8037V85.8039V85.804V85.8042V85.8043V85.8045V85.8046V85.8048V85.805V85.8051V85.8053V85.8054V85.8056V85.8057V85.8059V85.806V85.8062V85.8063V85.8065V85.8067V85.8068V85.807V85.8071V85.8073V85.8074V85.8076V85.8077V85.8079V85.808V85.8082V85.8083V85.8085V85.8087V85.8088V85.809V85.8091V85.8093V85.8094V85.8096V85.8097V85.8099V85.8101V85.8102V85.8104V85.8105V85.8107V85.8108V85.811V85.8111V85.8113V85.8114V85.8116V85.8117V85.8119V85.8121V85.8122V85.8124V85.8125V85.8127V85.8128V85.813V85.8131V85.8133V85.8134V85.8136V85.8138V85.8139V85.8141V85.8142V85.8144V85.8145V85.8147V85.8148V85.815V85.8151V85.8153V85.8155V85.8156V85.8158V85.8159V85.8161V85.8162V85.8164V85.8165V85.8167V85.8168V85.817V85.8171V85.8173V85.8175V85.8176V85.8178V85.8179V85.8181V85.8182V85.8184V85.8185V85.8187V85.8188V85.819V85.8192V85.8193V85.8195V85.8196V85.8198V85.8199V85.8201V85.8202V85.8204V85.8205V85.8207V85.8209V85.821V85.8212V85.8213V85.8215V85.8216V85.8218V85.8219V85.8221V85.8222V85.8224V85.8225V85.8227V85.8229V85.823V85.8232V85.8233V85.8235V85.8236V85.8238V85.8239V85.8241V85.8242V85.8244V85.8246V85.8247V85.8249V85.825V85.8252V85.8253V85.8255V85.8256V85.8258V85.8259V85.8261V85.8263V85.8264V85.8266V85.8267V85.8269V85.827V85.8272V85.8273V85.8275V85.8276V85.8278V85.8279V85.8281V85.8283V85.8284V85.8286V85.8287V85.8289V85.829V85.8292V85.8293V85.8295V85.8297V85.8298V85.83V85.8301V85.8303V85.8304V85.8306V85.8307V85.8309V85.831V85.8312V85.8313V85.8315V85.8317V85.8318V85.832V85.8321V85.8323V85.8324V85.8326V85.8327V85.8329V85.833V85.8332V85.8334V85.8335V85.8337V85.8338V85.834V85.8341V85.8343V85.8344V85.8346V85.8347V85.8349V85.8351V85.8352V85.8354V85.8355V85.8357V85.8358V85.836V85.8361V85.8363V85.8364V85.8366V85.8368V85.8369V85.8371V85.8372V85.8374V85.8375V85.8377V85.8378V85.838V85.8381V85.8383V85.8384V85.8386V85.8388V85.8389V85.8391V85.8392V85.8394V85.8395V85.8397V85.8398V85.84V85.8401V85.8403V85.8405V85.8406V85.8408V85.8409V85.8411V85.8512L285.655 85.8613C285.694 86.8303 285.971 87.7687 286.458 88.5411C286.946 89.3137 287.628 89.8928 288.422 90.1644Z" fill="#FF5F7D" stroke="#02011D"/>
<path d="M191.568 81.8368L196.355 66.6677L197.312 67.0577L197.312 67.0577L197.316 67.0592C204.453 69.8989 212.965 73.173 220.359 75.8078C224.056 77.125 227.477 78.2839 230.31 79.1491C233.1 80.0013 235.356 80.5804 236.743 80.7333C249.053 84.2181 261.562 85.9045 274.092 85.7677C284.218 94.8877 287.915 105.891 288.5 117.747C288.499 123.113 287.599 127.052 285.935 129.588C284.351 132.003 282.05 133.187 279.018 133.097L273.968 120.258L273.003 120.465L273.665 133.94L237.119 139.446C232.596 127.851 229.45 116.07 227.509 104.123L227.461 103.828L227.178 103.731C214.582 99.4089 203.291 92.8712 193.505 83.769L191.568 81.8368Z" fill="#1632E8" stroke="#02011D"/>
<path d="M241.976 81.682C239.132 80.9786 236.122 80.2342 232.992 79.5915V66.7181L245.885 49.0521L252.579 60.8652C250.566 68.4198 250.603 77.6404 254.243 84.1813C251.452 83.9061 248.328 83.2268 244.915 82.4031C243.957 82.1719 242.977 81.9295 241.976 81.682Z" fill="#FFFF24" stroke="#02011D"/>
<path d="M252.32 38.2491L252.448 38.8821L253.029 38.5995C254.772 37.7511 255.985 37.955 256.829 38.6711C257.726 39.4319 258.335 40.8716 258.59 42.756C259.099 46.508 258.15 51.6181 255.972 55.1616L255.953 55.1926L255.939 55.226C253.274 61.4308 250.088 64.872 246.61 66.5805C243.129 68.2904 239.269 68.3068 235.168 67.4849C231.754 66.7987 228.742 63.9544 227.393 59.7276C225.895 55.0296 226.43 50.1275 227.341 45.0664C227.521 44.07 227.715 43.0663 227.91 42.0573C228.681 38.0772 229.467 34.0147 229.415 29.9946C237.549 25.3732 242.681 24.8836 246.021 26.6618C249.418 28.4711 251.206 32.7467 252.32 38.2491Z" fill="#FFFF24" stroke="#02011D"/>
<path d="M153 20.5117L158.299 28.1799L158.741 27.6925L153.441 20.0243L153 20.5117Z" fill="#02011D"/>
<path d="M162.703 13.2745L165.904 22.5579L166.452 22.2835L163.251 13.0001L162.703 13.2745Z" fill="#02011D"/>
<path d="M177.104 13.1288L174.483 22.2942L175.049 22.5911L177.67 13.4257L177.104 13.1288Z" fill="#02011D"/>
<path d="M187.25 21.0785L181.272 27.0928L181.662 27.7057L187.64 21.6915L187.25 21.0785Z" fill="#02011D"/>
<path d="M82.6306 34.3633C79.8162 25.3633 79.0422 17.6277 81.7045 12.0368C82.099 11.2038 82.6487 10.51 83.304 10.0179C83.9592 9.52581 84.6996 9.25094 85.4582 9.21806C86.2168 9.18518 86.9698 9.39531 87.6495 9.82952C88.3291 10.2637 88.9139 10.9084 89.3513 11.7053C89.4811 11.9424 89.6059 12.1839 89.7289 12.4341C94.9834 2.03143 100.682 -1.57076 107.059 5.14191C112.729 -1.50929 125.313 -2.67271 127.867 7.46435C129.362 13.3912 126.408 19.6253 121.68 21.0521C120.8 21.3126 119.909 21.5097 119.012 21.6426C106.395 17.0768 94.3409 13.7643 88.8335 25.0999V46.5945C93.9394 48.5701 97.1707 50.7521 98.9922 53.1206C104.782 49.2396 109.886 47.207 113.035 50.4338L112.09 69.5862C100.185 66.952 90.0245 62.6869 85.5458 53.1228L85.3185 33.6741L85.2451 27.4026V33.9287L82.6306 34.3633Z" fill="#02011D"/>
<path d="M161.16 38.6114L161.16 38.6107C161.215 38.5221 161.263 38.5032 161.272 38.5008C161.274 38.5001 161.276 38.5 161.276 38.5C161.276 38.5 161.277 38.5 161.279 38.5003C161.281 38.5007 161.291 38.503 161.309 38.5154L161.596 38.1065L161.309 38.5154C161.347 38.5424 161.408 38.6101 161.452 38.7371C161.495 38.8613 161.511 39.0107 161.492 39.1578C161.492 39.1585 161.492 39.1591 161.492 39.1598L157.678 65.6883C153.626 73.5761 147.657 80.2303 140.567 86.1862L134.638 72.3694L151.118 63.2113L151.293 63.1144L151.353 62.9242C154.483 52.9661 157.514 44.432 161.16 38.6114Z" fill="#FFFF24" stroke="#02011D"/>
<path d="M176.523 40.5846C178.953 45.8939 180.61 52.2555 181.62 59.4957L181.659 59.7739L181.917 59.8855L196.371 66.1412L191.371 80.1131C186.082 75.1098 180.832 69.1998 176.5 62.6684V40.7338C176.5 40.6771 176.509 40.6262 176.523 40.5846Z" fill="#FFFF24" stroke="#02011D"/>
</svg>
