<svg width="254" height="229" viewBox="0 0 254 229" fill="none" xmlns="http://www.w3.org/2000/svg">
<path d="M11.2407 1.42067H240.759C246.697 1.42067 251.5 6.1747 251.5 12.0264V217.04C251.5 222.892 246.697 227.646 240.759 227.646H11.2407C5.30307 227.646 0.5 222.892 0.5 217.04V12.0264C0.5 6.1747 5.30307 1.42067 11.2407 1.42067Z" fill="#FFE4E9" stroke="#02011D"/>
<path d="M180.272 108.035H126.5V76.0852C128.615 73.1756 130.684 71.9537 132.69 72.0029C134.749 72.0533 136.947 73.4431 139.278 76.2436L139.323 76.297L139.38 76.3363C142.026 78.1482 144.948 78.7578 148.059 78.432C153.513 77.8612 158.209 74.0529 159.269 68.677C160.156 64.1739 158.388 59.7847 154.649 55.5328L154.612 55.4907L154.566 55.4579C151.57 53.2906 148.698 52.2264 145.944 52.2274C143.184 52.2285 140.607 53.2988 138.205 55.2805L138.167 55.3119L138.136 55.35C136.244 57.6673 134.352 58.6106 132.468 58.549C130.602 58.4879 128.611 57.4394 126.5 55.4517V1.42067H240.807C243.645 1.42067 246.365 2.53453 248.37 4.51531C250.375 6.4959 251.5 9.18086 251.5 11.9792V108.422H201.14H200.984L200.856 108.511C197.816 110.607 196.101 112.754 195.966 114.978C195.829 117.226 197.315 119.304 200.039 121.226L200.044 121.229C200.953 121.854 201.776 122.594 202.491 123.429C203.893 125.105 204.682 126.777 204.957 128.445C205.231 130.113 204.996 131.81 204.297 133.544L204.297 133.544C202.875 137.076 199.854 139.757 196.193 141.021L196.19 141.022C194.781 141.518 193.319 141.85 191.832 142.012C185.162 142.7 178.826 138.701 176.539 132.473C175.945 130.855 175.78 129.257 176.241 127.647C176.703 126.032 177.81 124.35 179.859 122.597C180.335 122.195 180.845 121.833 181.382 121.515L181.386 121.513C184.435 119.677 186.252 117.6 186.177 115.223C186.103 112.873 184.179 110.52 180.548 108.118L180.422 108.035H180.272Z" fill="white" stroke="#02011D"/>
<path d="M179.885 77.7672L179.886 77.7674C195.36 79.3424 209.9 80.1548 222.215 79.2108L222.216 79.2108C223.625 79.1022 225.041 79.3232 226.348 79.8559C241.097 85.8891 244.852 99.7858 245.412 109.407L194.043 144.542L159.043 133.262L151.96 109.323C154.592 103.614 158.271 97.0097 162.332 91.2985C166.447 85.5128 170.905 80.7141 175.02 78.642C176.523 77.8953 178.211 77.5914 179.885 77.7672Z" fill="#02011D" stroke="#02011D"/>
<path d="M251.87 109.609H146.051L147.98 133.408L172.23 137.903L205.85 136.845L251.87 109.609Z" fill="#FFE4E9" stroke="#FFE4E9"/>
<path d="M243.362 36.185L243.361 36.1877C241.991 45.7178 238.198 52.1989 232.786 56.6449C227.429 61.0461 220.442 63.4891 212.527 64.8692L185.988 28.7394L185.929 28.6588L185.843 28.6072C181.823 26.1831 179.383 23.4801 178.341 20.5382C177.303 17.6056 177.624 14.35 179.301 10.7507C181.145 6.8202 184.164 3.5407 187.952 1.3538L187.953 1.35321C187.953 1.35325 187.954 1.35274 187.956 1.35172L187.965 1.34754C187.973 1.34395 187.983 1.33935 187.998 1.33389C188.026 1.32282 188.065 1.30995 188.115 1.29576C188.215 1.26724 188.348 1.23725 188.514 1.20669C188.846 1.1456 189.287 1.08683 189.826 1.03132C190.905 0.920458 192.348 0.825625 194.04 0.748125C197.424 0.593205 201.782 0.508609 206.167 0.500623C210.553 0.492638 214.959 0.561277 218.44 0.712206C220.182 0.787703 221.686 0.88355 222.838 0.999938C223.414 1.05817 223.896 1.12093 224.273 1.18761C224.662 1.25657 224.898 1.32312 225.009 1.37451L225.009 1.3747C228.32 2.90371 230.57 4.65531 231.426 6.73675L231.487 6.88441L231.622 6.96951C237.602 10.7364 240.627 15.6948 242.306 21.2295C243.748 26.0806 244.109 31.1831 243.362 36.185Z" fill="#FF5F7D" stroke="black"/>
<path d="M214.034 78.6051C206.023 78.8898 197.658 78.5627 188.94 77.6229C190.6 73.2691 191.485 68.6884 191.777 63.9456L191.797 63.6223L191.51 63.472C185.322 60.2297 182.12 55.6535 181.353 49.9469C180.591 44.2774 182.225 37.4269 185.887 29.5744C186.639 29.6461 187.393 29.7167 188.146 29.7872C195.608 30.4858 202.997 31.1775 208.328 32.8659C211.306 33.8088 213.553 35.0374 214.823 36.6747C216.064 38.2733 216.429 40.3381 215.473 43.1293L215.04 44.393L216.196 43.7241C217.26 43.1086 218.195 42.7749 218.992 42.7589C219.756 42.7436 220.428 43.0185 221.016 43.7162C221.626 44.4681 221.927 45.4188 221.858 46.3786L221.858 46.3824C221.664 49.438 220.813 51.9795 219.353 54.0513C217.893 56.1236 215.803 57.7547 213.087 58.9576L212.862 59.0569L212.804 59.2953C211.194 65.8374 211.18 72.3131 214.034 78.6051Z" fill="#FFFF24" stroke="#02011D"/>
<path d="M118.582 106.278C118.682 106.988 118.782 107.698 118.883 108.409L24.1844 108.411C23.3925 98.3183 25.4632 88.0535 31.3148 77.5507L31.3149 77.5505C32.9741 74.5691 35.3396 72.0282 38.2097 70.1455C41.0798 68.2628 44.369 67.0943 47.7962 66.7403C47.7963 66.7403 47.7963 66.7403 47.7964 66.7402L55.662 65.9302C56.9635 66.7693 58.7491 67.294 60.8841 67.6121C63.1138 67.9443 65.7741 68.0577 68.7587 68.0408C73.0098 68.0168 77.963 67.727 83.3208 67.4137C85.4666 67.2882 87.6774 67.1589 89.9339 67.0413L96.3333 67.6732L96.3348 67.6733C99.9994 68.0244 103.494 69.3687 106.433 71.5573C109.372 73.7454 111.641 76.6924 112.992 80.0725C115.944 87.5519 117.258 96.8776 118.582 106.278Z" fill="#FF5F7D" stroke="#02011D"/>
<path d="M91.4009 15.7982L91.2448 15.8176L91.128 15.9229L57.0503 46.627L53.0596 43.6313L52.8783 43.4951L52.6564 43.5419C50.1348 44.0731 47.9683 44.1995 46.3122 43.708C44.7032 43.2305 43.5407 42.1613 42.9949 40.1609L42.8917 39.7825L42.4996 39.7927C38.8926 39.8863 36.6655 39.0175 35.4273 37.5061C34.1808 35.9848 33.8208 33.6748 34.2797 30.6167L34.3106 30.4109L34.1863 30.2439C32.9164 28.5384 32.2974 26.9973 32.1857 25.5977C32.0746 24.2059 32.461 22.906 33.2893 21.6666C34.9673 19.1557 38.4346 16.9289 43.0945 14.8767L43.5372 14.6818L43.357 14.2328C42.2429 11.458 42.2884 9.04618 43.4689 6.95333C44.6533 4.85329 47.0272 2.98931 50.7606 1.42067H98.9151C99.122 1.62851 99.2378 1.83378 99.2956 2.03296C99.3651 2.2726 99.3622 2.54323 99.2788 2.85713C99.1064 3.506 98.6135 4.25827 97.9102 5.10028L97.692 5.36151L97.855 5.66029C99.4938 8.66395 99.726 10.9109 98.7681 12.5037C97.7944 14.1228 95.4658 15.2923 91.4009 15.7982Z" fill="#1632E8" stroke="#02011D"/>
<path d="M80.2243 67.5522C75.1646 67.6096 70.4553 67.5211 66.3863 67.1607C62.3169 66.8003 58.9272 66.1707 56.4757 65.1659C58.8971 60.147 58.4978 53.3388 57.423 46.2175L57.4122 46.146L57.3815 46.0805L55.1031 41.2045L54.9801 40.9412L54.6903 40.9178C50.6258 40.5899 48.9119 39.3172 48.305 37.7039C47.9899 36.8663 47.9438 35.8719 48.0986 34.7409C48.249 33.6424 48.5845 32.4466 49.0133 31.1897C49.9763 30.2398 50.8423 29.9799 51.6469 30.057C52.513 30.14 53.4008 30.6203 54.3539 31.3212L55.0314 31.8195L55.1455 30.9863C55.6662 27.1848 57.0106 24.2895 59.0007 22.1047C60.9934 19.917 63.6624 18.4099 66.8816 17.4359C73.2678 15.5036 81.73 15.6943 91.0885 16.7549C94.6006 27.4763 95.0993 35.5656 92.9923 41.3316C90.8823 47.1057 86.1171 50.6555 78.8377 52.1761L78.5633 52.2335L78.4691 52.4975C76.5481 57.8804 76.9464 62.9462 80.2243 67.5522Z" fill="#FFFF24" stroke="#02011D"/>
<path d="M166.671 152.921L166.658 152.896L166.642 152.873C165.124 150.643 164.22 148.625 163.968 146.838C163.717 145.07 164.101 143.517 165.187 142.162C166.287 140.79 168.14 139.584 170.896 138.602C173.647 137.621 177.263 136.877 181.84 136.405L181.845 136.404C193.197 135.121 202.387 135.734 209.148 138.469C215.877 141.19 220.219 146.019 221.909 153.268L221.985 153.593L222.314 153.648C228.725 154.713 232.069 157.242 233.54 160.637C235.031 164.08 234.662 168.553 233.299 173.649L233.216 173.96L233.465 174.165C241.61 180.846 244.555 188.409 243.911 196.611L243.87 197.143L244.403 197.151C246.307 197.178 247.683 197.979 248.789 199.257C249.897 200.535 250.726 202.284 251.5 204.214V217.066C251.499 219.87 250.372 222.561 248.362 224.546C246.353 226.531 243.627 227.647 240.783 227.648H206.129L166.671 152.921Z" fill="#1632E8" stroke="#02011D"/>
<path d="M230.674 227.648H143.747L149.9 218.96L149.9 218.96C151.41 216.827 153.383 215.053 155.675 213.767C157.967 212.481 160.52 211.715 163.15 211.526C163.15 211.526 163.15 211.526 163.15 211.526L175.317 210.652C175.85 210.728 176.387 210.803 176.923 210.87C185.475 211.963 194.137 211.89 202.669 210.653L212.534 211.736L212.534 211.736C214.719 211.976 216.83 212.662 218.732 213.751C220.635 214.841 222.286 216.308 223.582 218.062L223.582 218.062L230.674 227.648Z" fill="white" stroke="#02011D"/>
<path d="M179.239 193.917L179.171 193.619L178.875 193.543C174.704 192.48 171.583 190.687 169.308 188.307C167.033 185.927 165.579 182.932 164.787 179.424C163.219 172.479 164.26 163.582 166.62 153.666C169.123 153.723 171.71 153.734 174.292 153.746C176.555 153.756 178.813 153.766 181.007 153.806C185.876 153.896 190.507 154.135 194.463 154.845C198.428 155.557 201.644 156.732 203.74 158.64C205.803 160.518 206.837 163.158 206.342 166.966L206.252 167.653L206.932 167.522C209.365 167.053 211.022 167.274 212.004 168.049C212.961 168.804 213.441 170.225 213.172 172.598L213.168 172.628L213.169 172.658C213.199 177.372 212.738 181.167 211.598 183.7C211.032 184.958 210.311 185.876 209.427 186.451C208.549 187.023 207.468 187.284 206.124 187.157L205.653 187.112L205.582 187.579L202.222 209.709C193.603 210.929 184.853 210.95 176.229 209.772C179.427 205.198 180.62 199.961 179.239 193.917Z" fill="#FFFF24" stroke="#02011D"/>
<path d="M111.899 161.021L111.914 161.035C114.146 163.056 116.38 164.04 118.626 164.048C120.821 164.056 123.109 163.132 125.5 161.171V109.411H94.1181H93.9741L93.8522 109.334C90.5598 107.267 88.8765 104.948 88.7297 102.384C88.5845 99.8467 89.9579 97.2419 92.355 94.6204L92.3582 94.6169C93.5169 93.3736 94.4615 91.9513 95.1546 90.4068C96.2099 87.9862 95.8016 85.1226 94.418 82.6798L94.4177 82.6793C93.8888 81.7434 93.4959 81.0568 92.8981 80.42C92.3054 79.7885 91.4889 79.1845 90.0963 78.4797L90.0958 78.4794C87.4019 77.112 85.1621 76.5467 82.9753 76.5916C80.7817 76.6366 78.5948 77.2961 76.0035 78.4564L75.9984 78.4587C73.476 79.5546 71.2974 81.2973 69.6881 83.5051C68.1802 85.6232 67.5816 87.6351 67.9143 89.5596C68.248 91.489 69.5358 93.4371 72.0273 95.3853C74.8509 97.3943 76.1051 99.6278 75.967 102.052C75.8316 104.429 74.3595 106.845 72.0924 109.253L71.9443 109.411H71.7283H0.500002V217.019V217.019C0.499252 218.414 0.776801 219.797 1.31695 221.086C1.8571 222.376 2.64934 223.549 3.64872 224.536C4.64812 225.524 5.83506 226.308 7.14189 226.843C8.44874 227.378 9.84968 227.654 11.2646 227.654H125.496V181.143C123.381 179.394 121.337 178.444 119.361 178.288C117.342 178.128 115.323 178.79 113.289 180.406C113.289 180.407 113.288 180.407 113.288 180.407L112.977 180.016C111.792 180.974 110.458 181.738 109.027 182.277L111.899 161.021ZM111.899 161.021L111.883 161.009M111.899 161.021L111.883 161.009M111.883 161.009C109.415 159.113 106.987 158.022 104.618 157.927C102.232 157.832 99.9813 158.75 97.8914 160.725L97.8901 160.726M111.883 161.009L97.8901 160.726M97.8901 160.726C97.6814 160.925 97.4613 161.12 97.2362 161.315L97.2346 161.316M97.8901 160.726L97.2346 161.316M97.2346 161.316C93.469 164.607 92.7354 170.376 94.0952 175.166L97.2346 161.316Z" fill="white" stroke="#02011D"/>
<path d="M89.9456 142.659C99.0952 133.662 94.9765 127.277 77.4223 123.534C53.6105 119.259 34.3336 131.706 19.735 161.405C10.8245 169.335 2.89184 177.607 3.0671 188.703L0.0298743 196.574L0 217.209C0 220.11 1.16645 222.893 3.24275 224.944C5.31904 226.995 8.1351 228.148 11.0714 228.148H44.9728L89.9456 142.659Z" fill="#02011D"/>
<path d="M74.34 184.53L73.8855 184.571V185.028V198.112C64.3432 199.892 55.085 199.433 46.147 196.335C48.1002 188.991 48.342 180.845 47.5583 172.235L47.5177 171.789L47.0691 171.781C44.3214 171.733 42.1775 170.99 41.0115 168.701C39.8099 166.342 39.5711 162.22 41.0871 155.189C41.6479 153.958 42.5448 153.105 43.8346 152.643C45.1601 152.169 46.9376 152.095 49.2454 152.525L49.722 152.613L49.8253 152.139C51.0123 146.697 55.4794 143.666 62.5125 142.386C69.4762 141.119 78.8112 141.606 89.5297 143.105C91.9309 154.463 92.7862 164.387 90.7414 171.683C89.7126 175.354 87.955 178.341 85.3056 180.518C82.6554 182.696 79.0733 184.098 74.34 184.53Z" fill="#FFFF24" stroke="#02011D"/>
<path d="M106.751 227.648H18.2795L21.8689 216.846L21.8689 216.846C23.2164 212.789 25.4947 209.094 28.5264 206.05C31.5582 203.006 35.2615 200.695 39.3473 199.298L39.3474 199.298L45.5557 197.175C54.015 199.598 63.6885 200.107 74.3609 199.031L88.8796 201.948C91.205 202.415 93.3795 203.436 95.2148 204.92C97.05 206.404 98.4907 208.308 99.4125 210.466L106.751 227.648Z" fill="#FF5F7D" stroke="#02011D"/>
</svg>
