<svg width="261" height="210" viewBox="0 0 261 210" fill="none" xmlns="http://www.w3.org/2000/svg">
<path d="M186.59 189.279L182.469 193.038L186.218 197.932L189.825 194.262L186.59 189.279Z" fill="#FFFF24"/>
<path d="M243.786 200.635L244.987 206.365L250.662 204.899L249.3 199.712L243.786 200.635Z" fill="#FFFF24"/>
<path d="M104.747 194.077L105.345 202.833L114.022 202.072L113.077 194.077H104.747Z" fill="#FFFF24"/>
<path d="M35.7333 167.348L28.7544 171.651L33.0585 179.95L39.2625 175.625L35.7333 167.348Z" fill="#FFFF24"/>
<path d="M200.241 130.163L231.17 170.283L238.459 202.642L254.078 198.836L247.602 162.944C247.524 162.513 247.357 162.107 247.114 161.758L226.311 131.833L221.104 123.456L200.241 130.163Z" fill="#1632E8"/>
<path d="M238.112 118.128L236.376 160.006L191.947 198.455L183.617 186.655L212.079 163.051L216.938 129.549L238.112 118.128Z" fill="#1632E8"/>
<path d="M239.36 32.2444C240.432 31.6475 240.891 30.2008 240.848 28.0559C240.689 20.3265 234.838 14.2131 227.789 14.0595C225.466 14.0107 223.087 14.3143 220.708 14.618C220.078 14.7029 219.445 14.7512 218.81 14.7628C210.584 14.8728 205.533 18.9391 201.466 24.2217C200.907 24.9402 200.219 25.5238 199.444 25.9359C198.669 26.348 197.825 26.5796 196.965 26.6161C187.599 27.0647 180.362 30.391 175.999 37.5986C175.585 38.2813 175.027 38.8435 174.371 39.2369C173.715 39.6303 172.982 39.843 172.234 39.8569C163.047 40.0314 163.925 43.8551 164.337 47.5043L192.127 74.9142L220.59 71.8688L239.36 32.2444Z" fill="#02011D"/>
<path d="M93.1948 120.677L74.6144 111.335C75.5418 110.379 76.4292 109.087 77.3289 107.548C77.9876 106.422 78.6615 105.147 79.3688 103.753C82.0395 110.398 86.6219 116.415 93.1948 120.677ZM100.248 123.17C102.785 120.479 105.208 117.819 107.443 115.215C108.502 115.849 109.603 116.476 110.746 117.095V125.753C106.902 125.296 103.405 124.409 100.248 123.17ZM99.2562 122.765C89.521 118.624 83.1632 111.066 79.9739 102.549C80.2264 102.042 80.4835 101.522 80.7461 100.989C80.8883 100.701 81.0322 100.408 81.1778 100.112C83.5579 95.2772 86.4125 89.4782 90.3116 83.3798L90.6117 82.9565C88.4378 88.876 88.6682 94.3785 91.1409 99.5011C93.812 105.035 99.0709 110.062 106.576 114.689C104.311 117.323 101.846 120.023 99.2562 122.765ZM117.361 99.5233C115.134 103.952 111.576 108.807 107.234 113.92C99.7463 109.325 94.6142 104.396 92.0415 99.0664C89.0272 92.8218 89.4858 85.9387 93.973 78.2119L93.1327 77.6716L89.4889 82.8112L89.482 82.8209L89.4756 82.831C85.5421 88.9816 82.6636 94.8296 80.2839 99.6641C80.1371 99.9623 79.9922 100.257 79.8491 100.547C79.7348 100.779 79.6216 101.008 79.5095 101.235C79.4716 101.121 79.4343 101.007 79.3975 100.893C75.4102 88.5257 77.9111 74.5559 86.2517 66.1461C89.5577 63.2082 93.4235 62.4433 97.6517 62.852C105.546 63.924 114.398 63.5108 123.831 62.1863L117.361 99.5233Z" fill="#1632E8" stroke="#02011D"/>
<mask id="path-9-inside-1" fill="white">
<path d="M111.246 116.797V126.313C117.849 127.36 125.393 126.755 133.376 125.371C133.467 125.352 133.552 125.304 133.619 125.232C133.686 125.161 133.733 125.07 133.753 124.97C133.773 124.87 133.767 124.766 133.733 124.67C133.7 124.575 133.642 124.492 133.567 124.432C131.567 122.981 128.664 121.61 124.252 120.371C122.565 119.881 120.822 119.662 119.077 119.72C116.5 119.821 113.877 118.475 111.246 116.797Z"/>
</mask>
<path d="M111.246 116.797V126.313C117.849 127.36 125.393 126.755 133.376 125.371C133.467 125.352 133.552 125.304 133.619 125.232C133.686 125.161 133.733 125.07 133.753 124.97C133.773 124.87 133.767 124.766 133.733 124.67C133.7 124.575 133.642 124.492 133.567 124.432C131.567 122.981 128.664 121.61 124.252 120.371C122.565 119.881 120.822 119.662 119.077 119.72C116.5 119.821 113.877 118.475 111.246 116.797Z" fill="#FFFF24"/>
<path d="M111.246 116.797L111.783 115.953L110.246 114.972V116.797H111.246ZM111.246 126.313H110.246V127.167L111.089 127.301L111.246 126.313ZM133.376 125.371L133.547 126.356L133.563 126.353L133.578 126.35L133.376 125.371ZM133.567 124.432L134.188 123.648L134.171 123.635L134.154 123.622L133.567 124.432ZM124.252 120.371L123.973 121.331L123.982 121.333L124.252 120.371ZM119.077 119.72L119.044 118.72L119.038 118.72L119.077 119.72ZM110.246 116.797V126.313H112.246V116.797H110.246ZM111.089 127.301C117.853 128.373 125.523 127.747 133.547 126.356L133.205 124.385C125.262 125.762 117.845 126.347 111.402 125.325L111.089 127.301ZM133.578 126.35C133.88 126.287 134.146 126.132 134.347 125.918L132.891 124.547C132.958 124.475 133.054 124.416 133.173 124.391L133.578 126.35ZM134.347 125.918C134.547 125.706 134.677 125.444 134.733 125.169L132.773 124.771C132.788 124.696 132.825 124.617 132.891 124.547L134.347 125.918ZM134.733 125.169C134.789 124.895 134.771 124.609 134.678 124.343L132.788 124.997C132.763 124.923 132.758 124.845 132.773 124.771L134.733 125.169ZM134.678 124.343C134.586 124.077 134.42 123.832 134.188 123.648L132.946 125.216C132.865 125.151 132.814 125.072 132.788 124.997L134.678 124.343ZM134.154 123.622C132.026 122.079 129.003 120.666 124.522 119.408L123.982 121.333C128.326 122.553 131.107 123.884 132.98 125.241L134.154 123.622ZM124.531 119.41C122.743 118.892 120.895 118.659 119.044 118.72L119.11 120.719C120.749 120.665 122.387 120.871 123.973 121.331L124.531 119.41ZM119.038 118.72C116.802 118.808 114.417 117.633 111.783 115.953L110.708 117.64C113.338 119.317 116.197 120.834 119.117 120.719L119.038 118.72Z" fill="#02011D" mask="url(#path-9-inside-1)"/>
<path d="M31.1209 166.826C43.92 159.82 55.6979 151.633 65.7837 141.512L65.9126 141.383L65.9278 141.201C66.8298 130.401 69.1096 120.474 73.9548 112.12L98.7235 124.401C103.605 134.33 107.434 143.782 110.065 152.69L116.212 193.577H100.91L95.4263 160.874L95.4172 160.819L95.3963 160.768L88.1071 142.875L87.4303 141.213L87.1502 142.985C86.3904 147.79 84.8096 151.883 82.4195 155.279C69.5323 165.222 55.6094 173.441 40.9471 179.76L31.1209 166.826Z" fill="#02011D" stroke="#02011D"/>
<path d="M113.409 62.3581C109.2 63.5448 104.583 63.2416 99.7165 62.1568C101.008 57.3374 101.614 52.3289 101.515 47.3072L114.413 43.4164L114.736 52.9913C114.658 53.4115 114.575 53.8407 114.491 54.2776C114.004 56.8039 113.468 59.5877 113.409 62.3581Z" fill="#FFFF24" stroke="#02011D"/>
<path d="M122.973 25.6955L122.827 25.7175L122.717 25.815L100.445 45.4619C95.8202 43.3733 91.578 41.0674 88.7168 37.6251C85.8203 34.1402 84.2973 29.4363 85.3596 22.459L85.3645 22.4269L85.3652 22.3945C85.5131 15.5234 87.2243 10.8877 89.9125 7.69266C92.6006 4.49766 96.317 2.68202 100.6 1.55147C108.841 -0.148232 114.789 0.308687 119.128 2.23236C123.448 4.14702 126.245 7.54644 128.129 11.8945C129.406 16.2478 129.525 19.4894 128.649 21.7277C127.792 23.9189 125.938 25.2488 122.973 25.6955Z" fill="#02011D" stroke="white"/>
<path d="M105.346 202.832L105.693 208.162H128.249C125.716 203.703 120.534 202.157 114.018 202.072L105.346 202.832Z" fill="#FF5F7D"/>
<path d="M182.469 193.039L179.953 195.316L188.716 208.81C189.949 205.564 188.705 201.862 186.218 197.932L182.469 193.039Z" fill="#3B1AE3"/>
<path d="M244.988 206.365L245.709 209.855L260.64 207.354C258.554 204.684 254.98 204.234 250.662 204.901L244.988 206.365Z" fill="#3B1AE3"/>
<path d="M28.7544 171.651L24.5044 174.254L34.0515 196.669C36.661 192.264 35.7445 186.459 33.0554 179.95L28.7544 171.651Z" fill="#FF5F7D"/>
<path d="M41.4791 107.659H22.3882V108.8H41.4791V107.659Z" fill="#02011D"/>
<path d="M246.63 109.694C241.715 119.832 230.816 126.726 213.74 130.274L213.093 122.839L212.133 122.691L210.557 126.497L200.275 124.385L203.018 73.9859L210.037 66.6425H240.765C241.272 66.6425 241.773 66.8013 242.208 67.1061C242.644 67.4112 242.998 67.8513 243.221 68.3792C250.53 85.6969 251.602 99.4371 246.63 109.694Z" fill="#FF5F7D" stroke="#02011D"/>
<path d="M212.747 130.389L212.793 130.888C201.15 131.014 192.982 129.52 189.81 125.666C189.702 125.534 189.625 125.375 189.588 125.202C189.55 125.03 189.554 124.85 189.597 124.679C189.641 124.508 189.723 124.352 189.837 124.226C189.95 124.1 190.091 124.007 190.246 123.957L203.922 124.409C207.186 125.1 209.838 124.653 212.12 123.519L212.169 124.051M212.747 130.389C212.914 130.387 213.081 130.385 213.249 130.383L212.649 123.809C212.49 123.893 212.33 123.974 212.169 124.051M212.747 130.389L212.169 124.051M212.747 130.389C207.044 130.449 202.205 130.117 198.396 129.316C194.452 128.486 191.696 127.17 190.196 125.348L190.196 125.348L190.195 125.346C190.14 125.279 190.097 125.194 190.076 125.097C190.055 125 190.057 124.898 190.082 124.803C190.106 124.707 190.151 124.624 190.209 124.56C190.266 124.497 190.333 124.455 190.4 124.433L190.4 124.433L190.404 124.432C195.033 122.898 199.465 123.06 203.727 124.869L203.772 124.888L203.819 124.898C207.111 125.595 209.826 125.172 212.169 124.051" fill="#FFFF24" stroke="#02011D"/>
<path d="M179.799 158.102H160.708V159.243H179.799V158.102Z" fill="#02011D"/>
<path d="M64.5619 67.1147H50.6772V68.256H64.5619V67.1147Z" fill="#02011D"/>
<path d="M156.197 175.613H142.312V176.754H156.197V175.613Z" fill="#02011D"/>
<path d="M13.8846 137.924H0V139.065H13.8846V137.924Z" fill="#02011D"/>
<path d="M22.5628 84.2469H8.67822V85.3885H22.5628V84.2469Z" fill="#02011D"/>
<path d="M101.225 46.7831L101.225 46.7813L100.619 44.3381L100.554 44.0797L100.304 43.9886C99.6382 43.7463 99.1056 43.3956 98.7066 42.9233C98.3081 42.4515 98.0216 41.8331 97.8858 41.0221C97.6118 39.3858 97.9581 37.0021 99.2013 33.6241C99.6632 32.7692 99.9815 32.7275 100.125 32.7411C100.239 32.7519 100.386 32.8081 100.579 32.9338C100.772 33.0591 100.97 33.2255 101.196 33.4183L101.688 33.8381L101.97 33.2566C103.796 29.5005 106.801 27.3748 110.642 26.3279C114.398 25.3044 118.945 25.3158 123.938 25.8757C124.087 35.76 122.98 44.6445 119.917 51.9966C114.476 52.6252 108.861 51.9247 102.933 49.0052C102.524 48.8009 102.156 48.4978 101.86 48.1142C101.563 47.7302 101.346 47.2758 101.225 46.7831Z" fill="#FFFF24" stroke="#02011D"/>
<path d="M125.433 48.0095H202.231C206.105 48.0095 209.323 51.469 209.323 55.8358V114.561C209.323 118.928 206.105 122.387 202.231 122.387H125.433C121.559 122.387 118.341 118.928 118.341 114.561V55.8358C118.341 51.469 121.559 48.0095 125.433 48.0095Z" fill="white" stroke="#FF5F7D"/>
<path d="M117.841 60.9961H209.823V55.8234C209.823 54.7314 209.627 53.65 209.245 52.641C208.864 51.6321 208.306 50.7154 207.601 49.9434C206.897 49.1713 206.061 48.559 205.141 48.1414C204.221 47.7238 203.235 47.5091 202.239 47.5095H125.422C123.411 47.5095 121.483 48.3855 120.062 49.9446C118.64 51.5038 117.841 53.6185 117.841 55.8234V60.9961Z" fill="#FF5F7D"/>
<path d="M189.691 57.2162C191.129 57.2162 192.294 55.9379 192.294 54.361C192.294 52.7841 191.129 51.5057 189.691 51.5057C188.253 51.5057 187.088 52.7841 187.088 54.361C187.088 55.9379 188.253 57.2162 189.691 57.2162Z" fill="#FFFF24"/>
<path d="M199.757 57.2162C201.195 57.2162 202.36 55.9379 202.36 54.361C202.36 52.7841 201.195 51.5057 199.757 51.5057C198.319 51.5057 197.154 52.7841 197.154 54.361C197.154 55.9379 198.319 57.2162 199.757 57.2162Z" fill="#3B1AE3"/>
<path d="M157.933 93.3834H127.04V111.277H157.933V93.3834Z" fill="#3B1AE3" stroke="#3B1AE3" stroke-miterlimit="10"/>
<path d="M200.972 93.3834H170.08V111.277H200.972V93.3834Z" fill="#3B1AE3" stroke="#3B1AE3" stroke-miterlimit="10"/>
<path d="M151.397 57.7476C149.608 55.0373 147.227 51.692 144.127 47.7193C146.031 46.9586 147.662 46.5656 149.006 46.5502C150.462 46.5334 151.551 46.9576 152.319 47.8156C154.57 51.173 154.829 54.192 154.227 57.0734L154.227 57.0754C154.156 57.4205 153.997 57.7303 153.775 57.97C153.553 58.2092 153.279 58.3675 152.987 58.4337C152.696 58.4998 152.394 58.4729 152.114 58.3542C151.834 58.2353 151.583 58.0272 151.397 57.7476ZM151.397 57.7476C151.398 57.7478 151.398 57.7481 151.398 57.7484L150.981 58.0238L151.397 57.7474C151.397 57.7475 151.397 57.7475 151.397 57.7476Z" fill="#FFFF24" stroke="#02011D"/>
<path d="M215.151 46.5732L214.979 46.1142L214.516 46.2766C213.813 46.5237 213.3 46.4729 212.903 46.2454C212.487 46.0074 212.107 45.5232 211.796 44.7154C211.173 43.0986 210.926 40.4471 211.015 36.9156C211.263 35.8042 211.617 35.3576 211.925 35.1697C212.244 34.9754 212.647 34.9711 213.214 35.0639L213.737 35.1495L213.792 34.6227C214.039 32.2658 214.693 30.4432 215.667 29.059C216.638 27.6783 217.947 26.7063 219.553 26.0772C222.791 24.8093 227.231 24.9364 232.449 25.9857L232.451 25.986C233.761 26.2449 234.997 26.8564 236.046 27.7707C237.096 28.6852 237.927 29.8742 238.461 31.2343C240.42 36.2639 240.691 42.3821 239.999 48.2712L239.999 48.2712L239.998 48.2794C239.892 49.3367 239.581 50.3549 239.088 51.2658C237.621 53.8717 234.926 54.9198 231.615 55.3894L231.074 55.4662L231.199 55.9989C231.94 59.1473 232.215 62.4051 232.014 65.6478H216.927C218.464 59.9934 217.779 53.5997 215.151 46.5732Z" fill="#FFFF24" stroke="#02011D"/>
<path d="M174.398 56.5372L174.399 56.5369L182.174 47.5299C180.691 46.0829 179.074 45.5194 177.277 45.8325L174.398 56.5372ZM174.398 56.5372C174.203 56.7642 173.958 56.9204 173.695 56.9948C173.432 57.069 173.157 57.0606 172.897 56.9699L172.732 57.4419M174.398 56.5372L172.732 57.4419M172.732 57.4419L172.897 56.9699C172.638 56.879 172.4 56.7072 172.215 56.4671C172.03 56.2267 171.908 55.9292 171.866 55.608L171.866 55.608M172.732 57.4419L171.866 55.608M171.866 55.608L171.865 55.6009M171.866 55.608L171.865 55.6009M171.865 55.6009C171.726 54.6225 171.684 53.63 171.742 52.6415M171.865 55.6009L171.742 52.6415M171.742 52.6415C171.968 49.2034 174.271 46.3564 177.277 45.8325L171.742 52.6415Z" fill="#FFFF24" stroke="#02011D"/>
</svg>
