<svg width="1600" height="708" viewBox="0 0 1600 708" fill="none" xmlns="http://www.w3.org/2000/svg">
<g clip-path="url(#clip0)">
<rect width="1599" height="708" fill="white"/>
</g>
<circle cx="1525.5" cy="324.5" r="336.5" fill="#FFF67A"/>
<circle cx="1528.31" cy="517.179" r="2.82089" transform="rotate(-180 1528.31 517.179)" fill="#3B1AE3"/>
<circle cx="1486.94" cy="517.179" r="2.82089" transform="rotate(-180 1486.94 517.179)" fill="#3B1AE3"/>
<circle cx="1445.57" cy="517.179" r="2.82089" transform="rotate(-180 1445.57 517.179)" fill="#3B1AE3"/>
<circle cx="1404.19" cy="517.179" r="2.82089" transform="rotate(-180 1404.19 517.179)" fill="#3B1AE3"/>
<circle cx="1362.82" cy="517.179" r="2.82089" transform="rotate(-180 1362.82 517.179)" fill="#3B1AE3"/>
<circle cx="1528.31" cy="475.806" r="2.82089" transform="rotate(-180 1528.31 475.806)" fill="#3B1AE3"/>
<circle cx="1486.94" cy="475.806" r="2.82089" transform="rotate(-180 1486.94 475.806)" fill="#3B1AE3"/>
<circle cx="1445.57" cy="475.806" r="2.82089" transform="rotate(-180 1445.57 475.806)" fill="#3B1AE3"/>
<circle cx="1404.19" cy="475.806" r="2.82089" transform="rotate(-180 1404.19 475.806)" fill="#3B1AE3"/>
<circle cx="1362.82" cy="475.806" r="2.82089" transform="rotate(-180 1362.82 475.806)" fill="#3B1AE3"/>
<circle cx="1528.31" cy="434.433" r="2.82089" transform="rotate(-180 1528.31 434.433)" fill="#3B1AE3"/>
<circle cx="1486.94" cy="434.433" r="2.82089" transform="rotate(-180 1486.94 434.433)" fill="#3B1AE3"/>
<circle cx="1445.57" cy="434.433" r="2.82089" transform="rotate(-180 1445.57 434.433)" fill="#3B1AE3"/>
<circle cx="1404.19" cy="434.433" r="2.82089" transform="rotate(-180 1404.19 434.433)" fill="#3B1AE3"/>
<circle cx="1362.82" cy="434.433" r="2.82089" transform="rotate(-180 1362.82 434.433)" fill="#3B1AE3"/>
<circle cx="1528.31" cy="393.06" r="2.82089" transform="rotate(-180 1528.31 393.06)" fill="#3B1AE3"/>
<circle cx="1486.94" cy="393.06" r="2.82089" transform="rotate(-180 1486.94 393.06)" fill="#3B1AE3"/>
<circle cx="1445.57" cy="393.06" r="2.82089" transform="rotate(-180 1445.57 393.06)" fill="#3B1AE3"/>
<circle cx="1404.19" cy="393.06" r="2.82089" transform="rotate(-180 1404.19 393.06)" fill="#3B1AE3"/>
<circle cx="1362.82" cy="393.06" r="2.82089" transform="rotate(-180 1362.82 393.06)" fill="#3B1AE3"/>
<circle cx="1528.31" cy="351.686" r="2.82089" transform="rotate(-180 1528.31 351.686)" fill="#3B1AE3"/>
<circle cx="1486.94" cy="351.686" r="2.82089" transform="rotate(-180 1486.94 351.686)" fill="#3B1AE3"/>
<circle cx="1445.57" cy="351.686" r="2.82089" transform="rotate(-180 1445.57 351.686)" fill="#3B1AE3"/>
<circle cx="1404.19" cy="351.686" r="2.82089" transform="rotate(-180 1404.19 351.686)" fill="#3B1AE3"/>
<circle cx="1362.82" cy="351.686" r="2.82089" transform="rotate(-180 1362.82 351.686)" fill="#3B1AE3"/>
<circle cx="1528.31" cy="310.313" r="2.82089" transform="rotate(-180 1528.31 310.313)" fill="#3B1AE3"/>
<circle cx="1486.94" cy="310.313" r="2.82089" transform="rotate(-180 1486.94 310.313)" fill="#3B1AE3"/>
<circle cx="1445.57" cy="310.313" r="2.82089" transform="rotate(-180 1445.57 310.313)" fill="#3B1AE3"/>
<circle cx="1404.19" cy="310.313" r="2.82089" transform="rotate(-180 1404.19 310.313)" fill="#3B1AE3"/>
<circle cx="1362.82" cy="310.313" r="2.82089" transform="rotate(-180 1362.82 310.313)" fill="#3B1AE3"/>
<circle cx="1528.31" cy="268.94" r="2.82089" transform="rotate(-180 1528.31 268.94)" fill="#3B1AE3"/>
<circle cx="1486.94" cy="268.94" r="2.82089" transform="rotate(-180 1486.94 268.94)" fill="#3B1AE3"/>
<circle cx="1445.57" cy="268.94" r="2.82089" transform="rotate(-180 1445.57 268.94)" fill="#3B1AE3"/>
<circle cx="1404.19" cy="268.94" r="2.82089" transform="rotate(-180 1404.19 268.94)" fill="#3B1AE3"/>
<circle cx="1362.82" cy="268.94" r="2.82089" transform="rotate(-180 1362.82 268.94)" fill="#3B1AE3"/>
<circle cx="1528.31" cy="227.567" r="2.82089" transform="rotate(-180 1528.31 227.567)" fill="#3B1AE3"/>
<circle cx="1486.94" cy="227.567" r="2.82089" transform="rotate(-180 1486.94 227.567)" fill="#3B1AE3"/>
<circle cx="1445.57" cy="227.567" r="2.82089" transform="rotate(-180 1445.57 227.567)" fill="#3B1AE3"/>
<circle cx="1404.19" cy="227.567" r="2.82089" transform="rotate(-180 1404.19 227.567)" fill="#3B1AE3"/>
<circle cx="1362.82" cy="227.567" r="2.82089" transform="rotate(-180 1362.82 227.567)" fill="#3B1AE3"/>
<circle cx="1528.31" cy="186.194" r="2.82089" transform="rotate(-180 1528.31 186.194)" fill="#3B1AE3"/>
<circle cx="1486.94" cy="186.194" r="2.82089" transform="rotate(-180 1486.94 186.194)" fill="#3B1AE3"/>
<circle cx="1445.57" cy="186.194" r="2.82089" transform="rotate(-180 1445.57 186.194)" fill="#3B1AE3"/>
<circle cx="1404.19" cy="186.194" r="2.82089" transform="rotate(-180 1404.19 186.194)" fill="#3B1AE3"/>
<circle cx="1362.82" cy="186.194" r="2.82089" transform="rotate(-180 1362.82 186.194)" fill="#3B1AE3"/>
<circle cx="1528.31" cy="144.821" r="2.82089" transform="rotate(-180 1528.31 144.821)" fill="#3B1AE3"/>
<circle cx="1486.94" cy="144.821" r="2.82089" transform="rotate(-180 1486.94 144.821)" fill="#3B1AE3"/>
<circle cx="1445.57" cy="144.821" r="2.82089" transform="rotate(-180 1445.57 144.821)" fill="#3B1AE3"/>
<circle cx="1404.19" cy="144.821" r="2.82089" transform="rotate(-180 1404.19 144.821)" fill="#3B1AE3"/>
<circle cx="1362.82" cy="144.821" r="2.82089" transform="rotate(-180 1362.82 144.821)" fill="#3B1AE3"/>
<defs>
<clipPath id="clip0">
<rect width="1599" height="708" fill="white"/>
</clipPath>
</defs>
</svg>
