<svg width="121" height="96" viewBox="0 0 121 96" fill="none" xmlns="http://www.w3.org/2000/svg">
<g clip-path="url(#clip0)">
<g filter="url(#filter0_f)">
<path d="M103.038 69.9427H17.2654V78.1713H103.038V69.9427Z" fill="#1B3554"/>
</g>
<path d="M18.4583 53.6714V0.5H103.231V53.6714H18.4583Z" fill="#D6DAE0" stroke="#3B1AE3"/>
<path d="M4.625 32.6299L17.4593 2.45317V81.7857H4.625V32.6299Z" fill="#C1C8D4" stroke="#3B1AE3"/>
<path d="M116.375 81.1H104.232V2.57219L116.375 32.6252V81.1Z" fill="#C1C8D4" stroke="#3B1AE3"/>
<path d="M5.625 33.7283H115.375V82.9426C115.375 84.0198 114.498 84.8997 113.409 84.8997H7.59103C6.50157 84.8997 5.625 84.0198 5.625 82.9426V33.7283Z" fill="white" stroke="#3B1AE3" stroke-width="3"/>
<path d="M64.756 54.7476C64.756 53.873 65.1933 53.4356 66.068 53.4356L67.476 53.4356C68.372 53.4356 68.82 53.873 68.82 54.7476L68.82 56.1236C68.82 57.0196 68.372 57.4676 67.476 57.4676L66.068 57.4676C65.1933 57.4676 64.756 57.0196 64.756 56.1236L64.756 54.7476ZM55.22 53.4356C56.116 53.4356 56.564 53.873 56.564 54.7476L56.564 56.1236C56.564 57.0196 56.116 57.4676 55.22 57.4676L53.844 57.4676C52.948 57.4676 52.5 57.0196 52.5 56.1236L52.5 54.7476C52.5 53.873 52.948 53.4356 53.844 53.4356L55.22 53.4356ZM50.26 64.0634C52.1373 63.018 54.196 62.1967 56.436 61.5994C58.676 61.0234 61.0227 60.7354 63.476 60.7354C65.6093 60.7354 67.6573 61.0127 69.62 61.5674C71.604 62.122 73.5027 62.922 75.316 63.9674C75.6573 64.1594 75.892 64.3834 76.02 64.6394C76.148 64.8954 76.212 65.2047 76.212 65.5674L76.212 66.1754C76.212 66.6874 76.0733 67.0287 75.796 67.1994C75.5187 67.37 75.1347 67.338 74.644 67.1034C72.8733 66.2074 71.0493 65.5247 69.172 65.0554C67.316 64.586 65.4067 64.3514 63.444 64.3514C61.3107 64.3514 59.2093 64.586 57.14 65.0554C55.0707 65.5247 53.0333 66.2394 51.028 67.1994C50.5587 67.4127 50.1853 67.434 49.908 67.2634C49.6093 67.0927 49.46 66.7514 49.46 66.2394L49.46 65.5674C49.46 64.8634 49.7267 64.362 50.26 64.0634Z" fill="#3B1AE3"/>
</g>
<defs>
<filter id="filter0_f" x="5.07154" y="57.7489" width="110.161" height="32.6163" filterUnits="userSpaceOnUse" color-interpolation-filters="sRGB">
<feFlood flood-opacity="0" result="BackgroundImageFix"/>
<feBlend mode="normal" in="SourceGraphic" in2="BackgroundImageFix" result="shape"/>
<feGaussianBlur stdDeviation="6.09692" result="effect1_foregroundBlur"/>
</filter>
<clipPath id="clip0">
<rect width="121" height="96" fill="white"/>
</clipPath>
</defs>
</svg>
