<svg width="22" height="20" viewBox="0 0 22 20" fill="none" xmlns="http://www.w3.org/2000/svg">
<path d="M4.85103 15.1864V4.81356C4.85103 2.70737 7.60403 1 11.0001 1H7.24917C3.8531 1 1.1001 2.70737 1.1001 4.81356V15.1864C1.1001 17.2926 3.8531 19 7.24917 19H11.0001C7.60403 19 4.85103 17.2926 4.85103 15.1864Z" fill="#CEE1F2"/>
<path d="M16.8438 20H5.15625C2.31309 20 0 17.8972 0 15.3125V4.6875C0 2.10281 2.31309 0 5.15625 0H16.8438C19.6869 0 22 2.10281 22 4.6875V15.3125C22 17.8972 19.6869 20 16.8438 20ZM5.15625 1.5625C3.26081 1.5625 1.71875 2.96438 1.71875 4.6875V15.3125C1.71875 17.0356 3.26081 18.4375 5.15625 18.4375H16.8438C18.7392 18.4375 20.2812 17.0356 20.2812 15.3125V4.6875C20.2812 2.96438 18.7392 1.5625 16.8438 1.5625H5.15625ZM9.06641 3.94531C9.06641 3.51383 8.68166 3.16406 8.20703 3.16406H4.59766C4.12302 3.16406 3.73828 3.51383 3.73828 3.94531C3.73828 4.3768 4.12302 4.72656 4.59766 4.72656H8.20703C8.68166 4.72656 9.06641 4.3768 9.06641 3.94531ZM16.9297 13.0469C16.9297 12.6154 16.5449 12.2656 16.0703 12.2656H8.89453C8.4199 12.2656 8.03516 12.6154 8.03516 13.0469C8.03516 13.4784 8.4199 13.8281 8.89453 13.8281H16.0703C16.5449 13.8281 16.9297 13.4784 16.9297 13.0469ZM18.0898 16.0938C18.0898 15.6623 17.7051 15.3125 17.2305 15.3125H15.3398C14.8652 15.3125 14.4805 15.6623 14.4805 16.0938C14.4805 16.5252 14.8652 16.875 15.3398 16.875H17.2305C17.7051 16.875 18.0898 16.5252 18.0898 16.0938Z" fill="#3B1AE3"/>
<path d="M17.9592 10.5H12.737C12.3279 10.5 11.9962 10.1556 11.9962 9.73077C11.9962 9.30592 12.3279 8.96154 12.737 8.96154H17.9592C18.3683 8.96154 18.7 9.30592 18.7 9.73077C18.7 10.1556 18.3683 10.5 17.9592 10.5ZM16.1074 6.76923C16.1074 6.34438 15.7757 6 15.3666 6H8.44069C8.03158 6 7.69995 6.34438 7.69995 6.76923C7.69995 7.19408 8.03158 7.53846 8.44069 7.53846H15.3666C15.7757 7.53846 16.1074 7.19408 16.1074 6.76923Z" fill="#FF5F7D"/>
</svg>
