<svg width="82" height="82" viewBox="0 0 82 82" fill="none" xmlns="http://www.w3.org/2000/svg">
<path d="M12.9902 33.7672C12.9902 18.4636 24.2459 5.78684 38.9369 3.551C37.4224 3.32039 35.8712 3.20068 34.2921 3.20068C17.397 3.20068 3.70068 16.8859 3.70068 33.7672C3.70068 50.6486 17.397 64.3338 34.2921 64.3338C35.8712 64.3338 37.4224 64.2141 38.9369 63.9835C24.2459 61.7475 12.9902 49.0709 12.9902 33.7672Z" fill="#CEE1F2"/>
<path d="M33.7947 67.5345C15.1602 67.5345 0 52.3866 0 33.7672C0 15.1479 15.1602 0 33.7947 0C52.4292 0 67.5894 15.1479 67.5894 33.7672C67.5894 52.3866 52.429 67.5345 33.7947 67.5345ZM33.7947 6.40137C18.6928 6.40137 6.40658 18.6776 6.40658 33.7672C6.40658 48.8569 18.6928 61.1331 33.7947 61.1331C48.8966 61.1331 61.1828 48.8569 61.1828 33.7672C61.1828 18.6776 48.8965 6.40137 33.7947 6.40137Z" fill="#3B1AE3"/>
<path d="M81.0617 81.0625C80.4363 81.6874 79.6165 82 78.7967 82C77.9768 82 77.157 81.6874 76.5316 81.0625L62.1969 66.7394C60.9458 65.4894 60.9458 63.4629 62.1969 62.213C63.4479 60.9631 65.4761 60.963 66.727 62.213L81.0617 76.5361C82.3126 77.7861 82.3126 79.8126 81.0617 81.0625ZM49.0525 28.221L46.9185 29.5004C47.3367 30.8059 47.5646 32.1958 47.5646 33.6382C47.5646 35.0806 47.3367 36.4705 46.9185 37.7761L49.0523 39.0554C50.5694 39.9648 51.0613 41.9309 50.1511 43.4466C49.5505 44.4468 48.4894 45.001 47.4012 45.001C46.8403 45.001 46.2722 44.8537 45.7562 44.5444L43.5827 43.2414C41.8406 44.9859 39.6275 46.2585 37.1536 46.857V49.6415C37.1536 51.4092 35.7195 52.8422 33.9503 52.8422C32.1811 52.8422 30.747 51.4092 30.747 49.6415V46.857C28.2167 46.2448 25.9611 44.9253 24.2014 43.1193L21.8242 44.5444C21.3083 44.8537 20.7401 45.001 20.1792 45.001C19.0909 45.001 18.0299 44.4468 17.4293 43.4466C16.5191 41.9309 17.0111 39.9647 18.528 39.0554L20.931 37.6147C20.5452 36.3562 20.3361 35.0212 20.3361 33.6382C20.3361 32.2552 20.5452 30.9202 20.931 29.6617L18.5279 28.221C17.0108 27.3116 16.5189 25.3455 17.4292 23.8297C18.3395 22.3139 20.307 21.8224 21.8241 22.7319L24.2012 24.157C25.961 22.3508 28.2166 21.0315 30.7468 20.4192V17.6348C30.7468 15.867 32.1809 14.4341 33.9501 14.4341C35.7193 14.4341 37.1534 15.867 37.1534 17.6348V20.4192C39.6273 21.0177 41.8405 22.2903 43.5826 24.0349L45.7558 22.7319C47.2731 21.8224 49.2405 22.314 50.1508 23.8297C51.0615 25.3455 50.5694 27.3116 49.0525 28.221ZM41.158 33.6382C41.158 29.6673 37.9248 26.4367 33.9506 26.4367C29.9764 26.4367 26.7432 29.6673 26.7432 33.6382C26.7432 37.6091 29.9764 40.8398 33.9506 40.8398C37.9248 40.8398 41.158 37.6091 41.158 33.6382Z" fill="#FF5F7D"/>
</svg>
