<svg width="82" height="83" viewBox="0 0 82 83" fill="none" xmlns="http://www.w3.org/2000/svg">
<path d="M27.2941 79.7578H18.073C9.68522 79.7578 2.88574 72.4999 2.88574 63.5469V19.4531C2.88574 10.5 9.68522 3.24219 18.073 3.24219H27.2941C18.9301 3.24219 12.15 10.4971 12.15 19.4465V63.5537C12.15 72.5029 18.9301 79.7578 27.2941 79.7578ZM49.2068 61.1152C49.2068 52.8277 54.2736 45.8046 61.2806 43.3793C59.5824 42.7917 57.7709 42.4727 55.8892 42.4727C46.2433 42.4727 38.4239 50.8192 38.4239 61.1152C38.4239 71.4113 46.2433 79.7578 55.8892 79.7578C57.7709 79.7578 59.5824 79.4388 61.2806 78.8511C54.2736 76.4258 49.2068 69.4028 49.2068 61.1152Z" fill="#CEE1F2"/>
<path d="M32.9563 83H18.2247C8.17559 83 0 74.2733 0 63.5469V19.4531C0 8.72667 8.17559 0 18.2247 0H46.1692C56.2183 0 64.3939 8.72667 64.3939 19.4531V29.9902C64.3939 31.7809 63.034 33.2324 61.3564 33.2324C59.6788 33.2324 58.319 31.7809 58.319 29.9902V19.4531C58.319 12.3022 52.8686 6.48438 46.1692 6.48438H18.2247C11.5253 6.48438 6.07489 12.3022 6.07489 19.4531V63.5469C6.07489 70.6978 11.5253 76.5156 18.2247 76.5156H32.9563C34.6339 76.5156 35.9937 77.9672 35.9937 79.7578C35.9937 81.5485 34.6339 83 32.9563 83ZM48.5991 15.8867C48.5991 14.0961 47.2393 12.6445 45.5617 12.6445C43.8841 12.6445 42.5242 14.0961 42.5242 15.8867C42.5242 18.5683 40.4803 20.75 37.9681 20.75H26.4258C23.9135 20.75 21.8696 18.5683 21.8696 15.8867C21.8696 14.0961 20.5097 12.6445 18.8322 12.6445C17.1546 12.6445 15.7947 14.0961 15.7947 15.8867C15.7947 22.1438 20.5638 27.2344 26.4258 27.2344H37.9681C43.83 27.2344 48.5991 22.1438 48.5991 15.8867ZM77.7586 61.1152C77.7586 49.048 68.5611 39.2305 57.2559 39.2305C45.9506 39.2305 36.7531 49.048 36.7531 61.1152C36.7531 73.1825 45.9506 83 57.2559 83C68.5611 83 77.7586 73.1825 77.7586 61.1152ZM71.6837 61.1152C71.6837 69.607 65.2114 76.5156 57.2559 76.5156C49.3003 76.5156 42.828 69.607 42.828 61.1152C42.828 52.6235 49.3003 45.7148 57.2559 45.7148C65.2114 45.7148 71.6837 52.6235 71.6837 61.1152Z" fill="#3B1AE3"/>
<path d="M62.4174 64.3574H57.2557C55.5781 64.3574 54.2183 62.9059 54.2183 61.1152V54.4688C54.2183 52.6781 55.5781 51.2266 57.2557 51.2266C58.9333 51.2266 60.2932 52.6781 60.2932 54.4688V57.873H62.4174C64.095 57.873 65.4548 59.3246 65.4548 61.1152C65.4548 62.9059 64.095 64.3574 62.4174 64.3574Z" fill="#FF5F7D"/>
</svg>
