<svg width="82" height="82" viewBox="0 0 82 82" fill="none" xmlns="http://www.w3.org/2000/svg">
<path d="M12.8125 62.781V45.2524C12.8125 43.3863 13.65 41.8344 14.8973 40.8108L12.4111 38.9477C11.4363 38.2222 10.3563 37.8609 9.28906 37.8047C6.19228 37.6416 3.20312 40.0467 3.20312 43.5729V62.781C3.20312 71.6262 10.3735 78.7967 19.2188 78.7967H28.8281C19.9829 78.7967 12.8125 71.6262 12.8125 62.781Z" fill="#CEE1F2"/>
<path d="M62.7812 82H19.2188C8.62153 82 0 73.3785 0 62.7812V43.5729C0 41.0828 0.98368 38.7782 2.7699 37.0835C4.56589 35.3796 7.00635 34.4765 9.45755 34.6059C11.2071 34.698 12.8897 35.3109 14.3237 36.3781L33.2084 50.5304C33.2156 50.5359 33.2228 50.5413 33.23 50.5468C37.8047 54.0361 44.1954 54.0361 48.7701 50.5468C48.7773 50.5413 48.7846 50.5359 48.7918 50.5304L67.6679 36.3845C69.1105 35.3109 70.7931 34.698 72.5426 34.6059C74.9937 34.4751 77.4343 35.3796 79.2303 37.0835C81.0163 38.7782 82 41.0828 82 43.5729V62.7812C82 73.3785 73.3785 82 62.7812 82ZM8.99485 41C8.33757 41 7.66684 41.2681 7.179 41.731C6.8265 42.0654 6.40625 42.6563 6.40625 43.5728V62.7812C6.40625 69.8461 12.1539 75.5938 19.2188 75.5938H62.7812C69.8461 75.5938 75.5938 69.8461 75.5938 62.7812V43.5729C75.5938 42.6565 75.1735 42.0655 74.821 41.7311C74.3021 41.2388 73.5799 40.968 72.8794 41.0034C72.3885 41.0293 71.9247 41.2021 71.5014 41.5173L52.6445 55.6489C45.7866 60.8712 36.2137 60.8712 29.3558 55.6489L10.4902 41.5109C10.0753 41.2021 9.61162 41.0291 9.12058 41.0034C9.07894 41.0011 9.03682 41 8.99485 41ZM74.3125 25.1445V19.2188C74.3125 8.62153 65.691 0 55.0938 0H27.2266C16.6293 0 8.00781 8.62153 8.00781 19.2188V25.1445C8.00781 26.9136 9.44185 28.3477 11.2109 28.3477C12.98 28.3477 14.4141 26.9136 14.4141 25.1445V19.2188C14.4141 12.1539 20.1618 6.40625 27.2266 6.40625H55.0938C62.1586 6.40625 67.9062 12.1539 67.9062 19.2188V25.1445C67.9062 26.9136 69.3403 28.3477 71.1094 28.3477C72.8785 28.3477 74.3125 26.9136 74.3125 25.1445Z" fill="#3B1AE3"/>
<path d="M49.6484 34.1133C49.6484 29.6228 45.8847 26.1055 41.08 26.1055C39.5279 26.1055 38.3574 25.417 38.3574 24.5039C38.3574 23.6208 39.0758 22.9023 39.9589 22.9023C41.0967 22.9023 42.4806 23.0311 44.8839 23.9658C46.532 24.6069 48.3889 23.7902 49.0302 22.1414C49.6714 20.4926 48.8546 18.6363 47.2058 17.9952C46.1794 17.596 45.2663 17.3025 44.4433 17.0855V16.4961C44.4433 14.727 43.0093 13.293 41.2402 13.293C39.4711 13.293 38.037 14.727 38.037 16.4961V16.7309C34.5469 17.5941 31.9511 20.751 31.9511 24.5039C31.9511 29.0692 35.8757 32.5117 41.08 32.5117C42.2924 32.5117 43.2421 33.2153 43.2421 34.1133C43.2421 34.9964 42.5237 35.7148 41.6406 35.7148C40.9711 35.7148 38.6846 35.4965 36.1773 34.5001C34.5338 33.8468 32.671 34.6496 32.0174 36.2935C31.364 37.9375 32.167 39.7998 33.8108 40.4532C35.2767 41.0359 36.7314 41.4388 38.037 41.7036V42.1211C38.037 43.8902 39.4711 45.3242 41.2402 45.3242C43.0093 45.3242 44.4433 43.8902 44.4433 42.1211V41.6137C47.4803 40.4752 49.6484 37.543 49.6484 34.1133Z" fill="#FF5F7D"/>
</svg>
