<svg width="20" height="20" viewBox="0 0 20 20" fill="none" xmlns="http://www.w3.org/2000/svg">
<path d="M3.17454 8.23588C3.17454 4.50331 5.9176 1.41141 9.49784 0.866082C9.12874 0.809836 8.75071 0.78064 8.36589 0.78064C4.24849 0.78064 0.910645 4.11848 0.910645 8.23588C0.910645 12.3533 4.24849 15.6911 8.36589 15.6911C8.75071 15.6911 9.12874 15.6619 9.49784 15.6057C5.9176 15.0603 3.17454 11.9685 3.17454 8.23588Z" fill="#CEE1F2"/>
<path d="M8.24469 16.4718C3.70339 16.4718 0.00878906 12.7772 0.00878906 8.2359C0.00878906 3.6946 3.70339 0 8.24469 0C12.786 0 16.4806 3.6946 16.4806 8.2359C16.4806 12.7772 12.7859 16.4718 8.24469 16.4718ZM8.24469 1.56131C4.56429 1.56131 1.5701 4.5555 1.5701 8.2359C1.5701 11.9163 4.56429 14.9105 8.24469 14.9105C11.9251 14.9105 14.9193 11.9163 14.9193 8.2359C14.9193 4.5555 11.925 1.56131 8.24469 1.56131Z" fill="#3B1AE3"/>
<path d="M19.7639 19.7713C19.6115 19.9237 19.4117 20 19.2119 20C19.0121 20 18.8123 19.9237 18.6599 19.7713L15.1665 16.2779C14.8616 15.973 14.8616 15.4787 15.1665 15.1739C15.4713 14.869 15.9656 14.869 16.2705 15.1739L19.7639 18.6673C20.0687 18.9722 20.0687 19.4665 19.7639 19.7713ZM11.9631 6.88317L11.443 7.1952C11.545 7.51363 11.6005 7.85263 11.6005 8.20443C11.6005 8.55623 11.545 8.89523 11.443 9.21366L11.9631 9.52569C12.3328 9.74751 12.4527 10.227 12.2308 10.5967C12.0845 10.8407 11.8259 10.9758 11.5607 10.9758C11.424 10.9758 11.2856 10.9399 11.1598 10.8645L10.6301 10.5467C10.2056 10.9722 9.6662 11.2825 9.0633 11.4285V12.1077C9.0633 12.5388 8.71381 12.8883 8.28265 12.8883C7.8515 12.8883 7.502 12.5388 7.502 12.1077V11.4285C6.88536 11.2792 6.33566 10.9574 5.90681 10.5169L5.32749 10.8645C5.20176 10.9399 5.06327 10.9758 4.92658 10.9758C4.66135 10.9758 4.4028 10.8407 4.25643 10.5967C4.03461 10.227 4.15451 9.74747 4.52419 9.52569L5.1098 9.17432C5.01577 8.86736 4.96483 8.54175 4.96483 8.20443C4.96483 7.86711 5.01577 7.5415 5.1098 7.23455L4.52415 6.88317C4.15444 6.66135 4.03457 6.18183 4.25639 5.81212C4.47825 5.4424 4.95773 5.32253 5.32745 5.54435L5.90677 5.89194C6.33562 5.45142 6.88532 5.12963 7.50196 4.98029V4.30116C7.50196 3.87001 7.85146 3.52051 8.28261 3.52051C8.71377 3.52051 9.06326 3.87001 9.06326 4.30116V4.98029C9.66616 5.12627 10.2055 5.43666 10.6301 5.86216L11.1597 5.54435C11.5295 5.32253 12.0089 5.44244 12.2308 5.81212C12.4527 6.18183 12.3328 6.66135 11.9631 6.88317ZM10.0392 8.20443C10.0392 7.23591 9.25125 6.44796 8.28273 6.44796C7.31421 6.44796 6.52626 7.23591 6.52626 8.20443C6.52626 9.17295 7.31421 9.9609 8.28273 9.9609C9.25125 9.9609 10.0392 9.17295 10.0392 8.20443Z" fill="#FF5F7D"/>
</svg>
