<svg width="20" height="20" viewBox="0 0 20 20" fill="none" xmlns="http://www.w3.org/2000/svg">
<path d="M3.12505 15.2947V8.77124C3.12505 6.61386 4.89857 4.86499 7.05591 4.86499H4.79028C2.6329 4.86499 0.884033 6.61386 0.884033 8.77124V15.2947C0.884033 17.4521 2.6329 19.2009 4.79028 19.2009H7.05591C4.89857 19.2009 3.12505 17.4521 3.12505 15.2947Z" fill="#CEE1F2"/>
<path d="M7.07031 20H4.6875C2.10281 20 0 17.8972 0 15.3125V8.90625C0 6.32156 2.10281 4.21875 4.6875 4.21875H15.3125C17.8972 4.21875 20 6.32156 20 8.90625V11.25C20 11.6815 19.6502 12.0312 19.2188 12.0312C18.7873 12.0312 18.4375 11.6815 18.4375 11.25V8.90625C18.4375 7.18313 17.0356 5.78125 15.3125 5.78125H4.6875C2.96438 5.78125 1.5625 7.18313 1.5625 8.90625V15.3125C1.5625 17.0356 2.96438 18.4375 4.6875 18.4375H7.07031C7.5018 18.4375 7.85156 18.7873 7.85156 19.2188C7.85156 19.6502 7.5018 20 7.07031 20ZM20 17.6172V15.5538C20 14.2361 18.928 13.1641 17.6103 13.1641H15.5469C15.1154 13.1641 14.7656 13.5138 14.7656 13.9453C14.7656 14.3768 15.1154 14.7266 15.5469 14.7266H17.6103C18.0664 14.7266 18.4375 15.0977 18.4375 15.5538V17.6172C18.4375 18.0487 18.7873 18.3984 19.2188 18.3984C19.6502 18.3984 20 18.0487 20 17.6172ZM17.2834 17.1407C17.5814 16.8287 17.57 16.3342 17.2579 16.0362C16.9459 15.7382 16.4514 15.7496 16.1534 16.0616C14.7115 17.5715 12.6871 18.4375 10.5994 18.4375H10.2344C9.80289 18.4375 9.45312 18.7873 9.45312 19.2188C9.45312 19.6502 9.80289 20 10.2344 20H10.5994C13.112 20 15.5482 18.9579 17.2834 17.1407ZM5.11719 7.89062C4.57785 7.89062 4.14062 8.32785 4.14062 8.86719C4.14062 9.40652 4.57785 9.84375 5.11719 9.84375C5.65652 9.84375 6.09375 9.40652 6.09375 8.86719C6.09375 8.32785 5.65652 7.89062 5.11719 7.89062ZM8.47656 7.89062C7.93723 7.89062 7.5 8.32785 7.5 8.86719C7.5 9.40652 7.93723 9.84375 8.47656 9.84375C9.0159 9.84375 9.45312 9.40652 9.45312 8.86719C9.45312 8.32785 9.0159 7.89062 8.47656 7.89062ZM11.8359 7.89062C11.2966 7.89062 10.8594 8.32785 10.8594 8.86719C10.8594 9.40652 11.2966 9.84375 11.8359 9.84375C12.3753 9.84375 12.8125 9.40652 12.8125 8.86719C12.8125 8.32785 12.3753 7.89062 11.8359 7.89062ZM5.11719 11.25C4.57785 11.25 4.14062 11.6872 4.14062 12.2266C4.14062 12.7659 4.57785 13.2031 5.11719 13.2031C5.65652 13.2031 6.09375 12.7659 6.09375 12.2266C6.09375 11.6872 5.65652 11.25 5.11719 11.25ZM5.11719 14.6094C4.57785 14.6094 4.14062 15.0466 4.14062 15.5859C4.14062 16.1253 4.57785 16.5625 5.11719 16.5625C5.65652 16.5625 6.09375 16.1253 6.09375 15.5859C6.09375 15.0466 5.65652 14.6094 5.11719 14.6094ZM8.47656 11.25C7.93723 11.25 7.5 11.6872 7.5 12.2266C7.5 12.7659 7.93723 13.2031 8.47656 13.2031C9.0159 13.2031 9.45312 12.7659 9.45312 12.2266C9.45312 11.6872 9.0159 11.25 8.47656 11.25ZM8.47656 14.6094C7.93723 14.6094 7.5 15.0466 7.5 15.5859C7.5 16.1253 7.93723 16.5625 8.47656 16.5625C9.0159 16.5625 9.45312 16.1253 9.45312 15.5859C9.45312 15.0466 9.0159 14.6094 8.47656 14.6094ZM11.8359 11.25C11.2966 11.25 10.8594 11.6872 10.8594 12.2266C10.8594 12.7659 11.2966 13.2031 11.8359 13.2031C12.3753 13.2031 12.8125 12.7659 12.8125 12.2266C12.8125 11.6872 12.3753 11.25 11.8359 11.25Z" fill="#3B1AE3"/>
<path d="M7.10937 3.125C6.67789 3.125 6.32812 2.77523 6.32812 2.34375C6.32812 1.91297 5.97766 1.5625 5.54687 1.5625C5.11609 1.5625 4.76562 1.91297 4.76562 2.34375C4.76562 2.77523 4.41586 3.125 3.98437 3.125C3.55289 3.125 3.20312 2.77523 3.20312 2.34375C3.20312 1.05141 4.25453 0 5.54687 0C6.83922 0 7.89062 1.05141 7.89062 2.34375C7.89062 2.77523 7.54086 3.125 7.10937 3.125ZM16.875 2.34375C16.875 1.05141 15.8236 0 14.5312 0C13.2389 0 12.1875 1.05141 12.1875 2.34375C12.1875 2.77523 12.5373 3.125 12.9687 3.125C13.4002 3.125 13.75 2.77523 13.75 2.34375C13.75 1.91297 14.1005 1.5625 14.5312 1.5625C14.962 1.5625 15.3125 1.91297 15.3125 2.34375C15.3125 2.77523 15.6623 3.125 16.0937 3.125C16.5252 3.125 16.875 2.77523 16.875 2.34375ZM15.1953 7.89062C14.656 7.89062 14.2187 8.32785 14.2187 8.86719C14.2187 9.40652 14.656 9.84375 15.1953 9.84375C15.7346 9.84375 16.1719 9.40652 16.1719 8.86719C16.1719 8.32785 15.7346 7.89062 15.1953 7.89062Z" fill="#FF5F7D"/>
</svg>
