<svg width="23" height="23" viewBox="0 0 23 23" fill="none" xmlns="http://www.w3.org/2000/svg">
<path d="M6.61434 8.2656C6.61434 4.40371 9.27866 1.56959 12.7857 1.00263C12.368 0.935113 11.9384 0.899805 11.5 0.898682C7.37963 0.909193 4.04297 3.94385 4.04297 8.2656C4.04297 13.6338 9.31433 17.6094 9.31433 17.6094H13.3418C13.3418 17.6094 6.61434 13.3418 6.61434 8.2656Z" fill="#CEE1F2"/>
<path d="M13.2969 23H9.6582C9.26828 23 8.92288 22.7485 8.80316 22.3774L8.35394 20.9848C8.20161 20.5126 8.46095 20.0063 8.93321 19.8539C9.40547 19.7015 9.9117 19.9609 10.0641 20.4332L10.3124 21.2032H12.6427L12.8911 20.4332C13.0434 19.961 13.5496 19.7018 14.0219 19.8539C14.4942 20.0063 14.7535 20.5126 14.6012 20.9848L14.152 22.3774C14.0322 22.7485 13.6868 23 13.2969 23ZM14.181 18.3288C14.2391 18.2854 15.6177 17.246 17.0022 15.5109C18.8688 13.1717 19.8555 10.6663 19.8555 8.26562C19.8555 5.95404 18.9796 3.83925 17.3892 2.31074C15.853 0.834379 13.7781 0.0151836 11.5409 0.000224609C11.5345 8.98437e-05 11.5279 0 11.5214 0H11.4786C11.4721 0 11.4656 8.98437e-05 11.4591 0.000224609C9.22188 0.0151836 7.14703 0.834379 5.61079 2.31078C4.02042 3.83925 3.14453 5.95404 3.14453 8.26562C3.14453 10.665 4.12297 13.1694 5.97416 15.5082C7.34769 17.2435 8.71574 18.2832 8.77333 18.3267C8.92921 18.4442 9.1191 18.5078 9.31433 18.5078H13.6428C13.8369 18.5078 14.0257 18.445 14.181 18.3288ZM4.94141 8.26562C4.94141 4.58482 7.75936 1.80739 11.5 1.79692C15.2406 1.80739 18.0586 4.58482 18.0586 8.26562C18.0586 12.5096 14.2925 15.9096 13.3274 16.7109H9.63188C8.66925 15.9046 4.94141 12.5069 4.94141 8.26562Z" fill="#3B1AE3"/>
<path d="M10.6906 13.5665C10.5072 13.5665 10.3221 13.5105 10.1624 13.3942C9.76134 13.102 9.67303 12.5401 9.96515 12.139L11.5759 9.92773H9.61328C9.27673 9.92773 8.96843 9.73965 8.81444 9.44038C8.6604 9.14115 8.68659 8.78092 8.88222 8.50708L11.5775 4.73364C11.866 4.32984 12.4271 4.23631 12.8308 4.5248C13.2346 4.8132 13.3281 5.37432 13.0397 5.77808L11.3591 8.13086H13.3418C13.6798 8.13086 13.9893 8.32061 14.1425 8.6219C14.2958 8.92319 14.267 9.28504 14.068 9.5583L11.4176 13.197C11.2418 13.4383 10.9681 13.5665 10.6906 13.5665ZM20.7539 5.61523C20.7539 6.23547 21.2567 6.73828 21.877 6.73828C22.4972 6.73828 23 6.23547 23 5.61523C23 4.995 22.4972 4.49219 21.877 4.49219C21.2567 4.49219 20.7539 4.995 20.7539 5.61523ZM20.6191 10.6914C20.6191 11.3116 21.122 11.8145 21.7422 11.8145C22.3624 11.8145 22.8652 11.3116 22.8652 10.6914C22.8652 10.0712 22.3624 9.56836 21.7422 9.56836C21.122 9.56836 20.6191 10.0712 20.6191 10.6914ZM0 5.61523C0 6.23547 0.502811 6.73828 1.12305 6.73828C1.74328 6.73828 2.24609 6.23547 2.24609 5.61523C2.24609 4.995 1.74328 4.49219 1.12305 4.49219C0.502811 4.49219 0 4.995 0 5.61523ZM0.179688 10.6914C0.179688 11.3116 0.682498 11.8145 1.30273 11.8145C1.92297 11.8145 2.42578 11.3116 2.42578 10.6914C2.42578 10.0712 1.92297 9.56836 1.30273 9.56836C0.682498 9.56836 0.179688 10.0712 0.179688 10.6914ZM2.24609 1.12305C2.24609 1.74328 2.7489 2.24609 3.36914 2.24609C3.98938 2.24609 4.49219 1.74328 4.49219 1.12305C4.49219 0.502811 3.98938 0 3.36914 0C2.7489 0 2.24609 0.502811 2.24609 1.12305ZM18.5977 1.12305C18.5977 1.74328 19.1005 2.24609 19.7207 2.24609C20.3409 2.24609 20.8438 1.74328 20.8438 1.12305C20.8438 0.502811 20.3409 0 19.7207 0C19.1005 0 18.5977 0.502811 18.5977 1.12305Z" fill="#FF5F7D"/>
</svg>
