<svg width="92" height="86" viewBox="0 0 92 86" fill="none" xmlns="http://www.w3.org/2000/svg">
<path d="M49.746 49.1695C48.8064 50.0322 47.7938 50.8347 46.743 51.5731C44.6713 53.029 41.8133 53.029 39.7416 51.5731C35.1419 48.3409 31.2593 43.8961 31.1415 38.4239C31.1415 35.2784 33.8503 32.7285 37.1919 32.7285C38.6539 32.7285 39.995 33.2133 41.0408 34.0224C40.8532 34.572 40.7509 35.1576 40.7509 35.7658C40.8687 41.2381 44.7512 45.6829 49.3507 48.9149C49.4796 49.0053 49.6114 49.0902 49.746 49.1695ZM14.2362 75.0935C14.2362 71.4234 17.4231 68.448 21.3542 68.448H10.6771C6.74601 68.448 3.55908 71.4234 3.55908 75.0935C3.55908 78.7637 6.74601 81.739 10.6771 81.739H21.3542C17.4231 81.739 14.2362 78.7637 14.2362 75.0935Z" fill="#C6E1F2"/>
<path d="M27.5824 38.4249C27.5816 38.4008 27.5824 38.449 27.5824 38.4249V38.4249Z" fill="#3B1AE3"/>
<path d="M10.6772 59.3103C12.6428 59.3103 14.2362 57.8227 14.2362 55.9876V31.5654C14.2362 24.2367 20.6226 18.2744 28.4723 18.2744H41.8187C43.7844 18.2744 45.3777 16.7868 45.3777 14.9517C45.3777 13.1165 43.7844 11.6289 41.8187 11.6289H28.4723C16.6977 11.6289 7.11816 20.5724 7.11816 31.5654V55.9876C7.11816 57.8227 8.71154 59.3103 10.6772 59.3103Z" fill="#3B1AE3"/>
<path d="M80.434 59.3108C82.3997 59.3108 83.993 57.8232 83.993 55.988V40.2046C83.993 38.3695 82.3997 36.8818 80.434 36.8818C78.4684 36.8818 76.875 38.3695 76.875 40.2046V55.988C76.875 57.8232 78.4684 59.3108 80.434 59.3108Z" fill="#3B1AE3"/>
<path d="M80.4338 65.125H10.6771C4.78973 65.125 0 69.5968 0 75.0933C0 80.5898 4.78973 85.0615 10.6771 85.0615H80.4338C86.3212 85.0615 91.1109 80.5898 91.1109 75.0933C91.1109 69.5968 86.3212 65.125 80.4338 65.125ZM80.4338 78.416H10.6771C8.71462 78.416 7.11804 76.9254 7.11804 75.0933C7.11804 73.2611 8.71462 71.7705 10.6771 71.7705H80.4338C82.3963 71.7705 83.9929 73.2611 83.9929 75.0933C83.9929 76.9254 82.3963 78.416 80.4338 78.416Z" fill="#3B1AE3"/>
<path d="M49.2926 29.4058C47.0016 29.4058 44.8952 30.1605 43.2422 31.4187C41.5892 30.1605 39.4828 29.4058 37.1919 29.4058C31.8934 29.4058 27.5825 33.4513 27.5825 38.4238C27.7069 44.2012 31.1718 49.7097 37.6013 54.2278C39.262 55.3946 41.2522 55.978 43.2422 55.978C45.2324 55.978 47.2226 55.3946 48.8833 54.2276C55.3126 49.7097 58.7775 44.201 58.9019 38.4238C58.9019 33.4512 54.591 29.4058 49.2926 29.4058V29.4058ZM44.6028 48.9181C43.8013 49.4811 42.6824 49.481 41.8816 48.9181C38.6691 46.6606 34.8205 43.0048 34.7006 38.395C34.7168 37.0998 35.8281 36.0512 37.1917 36.0512C38.5655 36.0512 39.683 37.1078 39.683 38.4065C39.683 40.2416 41.2764 41.7292 43.242 41.7292C45.2077 41.7292 46.8011 40.2416 46.8011 38.4065C46.8011 37.1078 47.9186 36.0512 49.2924 36.0512C50.656 36.0512 51.7673 37.1 51.7835 38.395C51.6638 43.0048 47.8152 46.6606 44.6028 48.9181V48.9181Z" fill="#3B1AE3"/>
<path d="M91.1108 10.8214C91.1108 10.8455 91.1115 10.7973 91.1108 10.8214V10.8214Z" fill="#F4C3D7"/>
<path d="M79.5454 0C76.4405 0 73.6173 1.14799 71.5376 3.01335C69.4578 1.14799 66.6346 0 63.5297 0C57.1518 0 51.9629 4.85445 51.9629 10.8215C52.1206 18.0969 56.55 25.0471 64.7711 30.794C66.7633 32.1867 69.15 32.883 71.5376 32.8828C73.9246 32.8826 76.3124 32.1864 78.304 30.794C86.525 25.0471 90.9546 18.0969 91.1122 10.8215C91.1122 4.85445 85.9234 0 79.5454 0V0ZM74.0378 25.4745C72.5656 26.5036 70.5097 26.5036 69.0373 25.4745C64.5813 22.3595 59.2415 17.2851 59.0811 10.7908C59.0988 8.50209 61.0875 6.64538 63.5297 6.64538C65.9828 6.64538 67.9785 8.50857 67.9785 10.7987C67.9785 12.6339 69.5719 14.1214 71.5376 14.1214C73.5032 14.1214 75.0966 12.6339 75.0966 10.7987C75.0966 8.50857 77.0923 6.64538 79.5454 6.64538C81.9876 6.64538 83.9764 8.50209 83.994 10.7908C83.8337 17.2851 78.4939 22.3595 74.0378 25.4745Z" fill="#FF5F7D"/>
<path d="M51.9617 10.8213C51.961 10.7976 51.9617 10.845 51.9617 10.8213V10.8213Z" fill="#FF5F7D"/>
</svg>
