<svg width="30" height="30" viewBox="0 0 30 30" fill="none" xmlns="http://www.w3.org/2000/svg">
<path d="M22.9688 30H7.03125C3.15422 30 0 26.8458 0 22.9688V13.3594C0 9.48234 3.15422 6.32812 7.03125 6.32812H22.9688C26.8458 6.32812 30 9.48234 30 13.3594V22.9688C30 26.8458 26.8458 30 22.9688 30ZM7.03125 8.67188C4.44656 8.67188 2.34375 10.7747 2.34375 13.3594V22.9688C2.34375 25.5534 4.44656 27.6562 7.03125 27.6562H22.9688C25.5534 27.6562 27.6562 25.5534 27.6562 22.9688V13.3594C27.6562 10.7747 25.5534 8.67188 22.9688 8.67188H7.03125Z" fill="white"/>
<path d="M10.6641 4.6875C10.0168 4.6875 9.49219 4.16285 9.49219 3.51562C9.49219 2.86945 8.96648 2.34375 8.32031 2.34375C7.67414 2.34375 7.14844 2.86945 7.14844 3.51562C7.14844 4.16285 6.62379 4.6875 5.97656 4.6875C5.32934 4.6875 4.80469 4.16285 4.80469 3.51562C4.80469 1.57711 6.3818 0 8.32031 0C10.2588 0 11.8359 1.57711 11.8359 3.51562C11.8359 4.16285 11.3113 4.6875 10.6641 4.6875ZM25.3125 3.51562C25.3125 1.57711 23.7354 0 21.7969 0C19.8584 0 18.2812 1.57711 18.2812 3.51562C18.2812 4.16285 18.8059 4.6875 19.4531 4.6875C20.1004 4.6875 20.625 4.16285 20.625 3.51562C20.625 2.86945 21.1507 2.34375 21.7969 2.34375C22.443 2.34375 22.9688 2.86945 22.9688 3.51562C22.9688 4.16285 23.4934 4.6875 24.1406 4.6875C24.7879 4.6875 25.3125 4.16285 25.3125 3.51562ZM16.2305 18.3398V13.5352C16.2305 12.8879 15.7058 12.3633 15.0586 12.3633C14.4114 12.3633 13.8867 12.8879 13.8867 13.5352V18.3398C13.8867 18.9871 14.4114 19.5117 15.0586 19.5117C15.7058 19.5117 16.2305 18.9871 16.2305 18.3398ZM15.0586 21.2109C14.2496 21.2109 13.5938 21.8668 13.5938 22.6758C13.5938 23.4848 14.2496 24.1406 15.0586 24.1406C15.8676 24.1406 16.5234 23.4848 16.5234 22.6758C16.5234 21.8668 15.8676 21.2109 15.0586 21.2109Z" fill="white"/>
</svg>
