<svg width="30" height="30" viewBox="0 0 30 30" fill="none" xmlns="http://www.w3.org/2000/svg">
<path d="M12.3317 13.1488C11.6115 13.3612 10.8433 13.4766 10.0453 13.4766C5.95472 13.4766 2.63867 10.4597 2.63867 6.73828C2.63867 3.01682 5.95472 0 10.0453 0C10.8433 0 11.6115 0.115313 12.3317 0.327715C9.36017 1.20434 7.21147 3.74279 7.21147 6.73828C7.21147 9.73377 9.36017 12.2722 12.3317 13.1488ZM18.9179 24.1406V22.5586C18.9179 20.617 20.648 19.043 22.7822 19.043H18.9179C16.7837 19.043 15.0536 20.617 15.0536 22.5586V24.1406C15.0536 26.0822 16.7837 27.6562 18.9179 27.6562H22.7822C20.648 27.6562 18.9179 26.0822 18.9179 24.1406Z" fill="#CEE1F2"/>
<path d="M26.5221 19.2985V17.7539C26.5221 15.8154 24.7885 14.2383 22.6578 14.2383C20.527 14.2383 18.7934 15.8154 18.7934 17.7539V19.2786C16.7388 19.8953 15.2511 21.6573 15.2511 23.7305V25.3125C15.2511 27.8972 17.5625 30 20.4036 30H24.8475C27.6886 30 30 27.8972 30 25.3125V23.7305C30 21.679 28.5433 19.9324 26.5221 19.2985ZM21.3696 17.7539C21.3696 17.1077 21.9475 16.582 22.6578 16.582C23.368 16.582 23.9459 17.1077 23.9459 17.7539V19.043H21.3696V17.7539ZM27.4238 25.3125C27.4238 26.6048 26.2681 27.6562 24.8475 27.6562H20.4036C18.983 27.6562 17.8273 26.6048 17.8273 25.3125V23.7305C17.8273 22.4381 18.983 21.3867 20.4036 21.3867H24.8475C26.2681 21.3867 27.4238 22.4381 27.4238 23.7305V25.3125ZM20.9188 7.91016C20.9188 3.5485 17.0183 0 12.224 0C7.42976 0 3.5293 3.5485 3.5293 7.91016C3.5293 12.2718 7.42976 15.8203 12.224 15.8203C17.0183 15.8203 20.9188 12.2718 20.9188 7.91016ZM12.224 13.4766C8.85029 13.4766 6.10552 10.9795 6.10552 7.91016C6.10552 4.84084 8.85029 2.34375 12.224 2.34375C15.5978 2.34375 18.3426 4.84084 18.3426 7.91016C18.3426 10.9795 15.5978 13.4766 12.224 13.4766Z" fill="#3B53EA"/>
<path d="M1.28811 28.8282C0.576687 28.8282 0 28.3035 0 27.6563C0 21.7761 5.25839 16.9922 11.7218 16.9922H13.0099C13.7213 16.9922 14.298 17.5169 14.298 18.1641C14.298 18.8113 13.7213 19.336 13.0099 19.336H11.7218C6.67892 19.336 2.57622 23.0685 2.57622 27.6563C2.57622 28.3035 1.99954 28.8282 1.28811 28.8282ZM22.9498 21.9141C22.0606 21.9141 21.3397 22.5699 21.3397 23.379C21.3397 24.188 22.0606 24.8438 22.9498 24.8438C23.8391 24.8438 24.56 24.188 24.56 23.379C24.56 22.5699 23.8391 21.9141 22.9498 21.9141Z" fill="#F25270"/>
</svg>
