<svg width="367" height="260" viewBox="0 0 367 260" fill="none" xmlns="http://www.w3.org/2000/svg">
<path d="M239.59 214.279L235.469 218.038L239.218 222.932L242.825 219.262L239.59 214.279Z" fill="#FFFF24"/>
<path d="M296.786 225.635L297.987 231.365L303.662 229.899L302.3 224.712L296.786 225.635Z" fill="#FFFF24"/>
<path d="M157.747 219.077L158.345 227.833L167.022 227.072L166.077 219.077H157.747Z" fill="#FFFF24"/>
<path d="M88.7333 192.348L81.7544 196.651L86.0585 204.95L92.2625 200.625L88.7333 192.348Z" fill="#FFFF24"/>
<path d="M253.241 155.163L284.17 195.283L291.459 227.642L307.078 223.836L300.602 187.944C300.524 187.513 300.357 187.107 300.114 186.758L279.311 156.833L274.104 148.456L253.241 155.163Z" fill="#1632E8"/>
<path d="M291.112 143.128L289.376 185.006L244.947 223.455L236.617 211.655L265.079 188.051L269.938 154.549L291.112 143.128Z" fill="#1632E8"/>
<path d="M292.36 57.2444C293.432 56.6475 293.891 55.2008 293.848 53.0559C293.689 45.3265 287.838 39.2131 280.789 39.0595C278.466 39.0107 276.087 39.3143 273.708 39.618C273.078 39.7029 272.445 39.7512 271.81 39.7628C263.584 39.8728 258.533 43.9391 254.466 49.2217C253.907 49.9402 253.219 50.5238 252.444 50.9359C251.669 51.348 250.825 51.5796 249.965 51.6161C240.599 52.0647 233.362 55.391 228.999 62.5986C228.585 63.2813 228.027 63.8435 227.371 64.2369C226.715 64.6303 225.982 64.843 225.234 64.8569C216.047 65.0314 216.925 68.8551 217.337 72.5043L245.127 99.9142L273.59 96.8688L292.36 57.2444Z" fill="#02011D"/>
<path d="M146.195 145.677L127.614 136.335C128.542 135.379 129.429 134.087 130.329 132.548C130.988 131.422 131.662 130.147 132.369 128.753C135.04 135.398 139.622 141.415 146.195 145.677ZM153.248 148.17C155.785 145.479 158.208 142.819 160.443 140.215C161.502 140.849 162.603 141.476 163.746 142.095V150.753C159.902 150.296 156.405 149.409 153.248 148.17ZM152.256 147.765C142.521 143.624 136.163 136.066 132.974 127.549C133.226 127.042 133.484 126.522 133.746 125.989C133.888 125.701 134.032 125.408 134.178 125.112C136.558 120.277 139.412 114.478 143.312 108.38L143.612 107.957C141.438 113.876 141.668 119.378 144.141 124.501C146.812 130.035 152.071 135.062 159.576 139.689C157.311 142.323 154.846 145.023 152.256 147.765ZM170.361 124.523C168.134 128.952 164.576 133.807 160.234 138.92C152.746 134.325 147.614 129.396 145.041 124.066C142.027 117.822 142.486 110.939 146.973 103.212L146.133 102.672L142.489 107.811L142.482 107.821L142.476 107.831C138.542 113.982 135.664 119.83 133.284 124.664C133.137 124.962 132.992 125.257 132.849 125.547C132.735 125.779 132.622 126.008 132.509 126.235C132.472 126.121 132.434 126.007 132.398 125.893C128.41 113.526 130.911 99.5559 139.252 91.1461C142.558 88.2082 146.424 87.4433 150.652 87.852C158.546 88.924 167.398 88.5108 176.831 87.1863L170.361 124.523Z" fill="#1632E8" stroke="#02011D"/>
<mask id="path-9-inside-1" fill="white">
<path d="M164.246 141.797V151.313C170.849 152.36 178.393 151.755 186.376 150.371C186.467 150.352 186.552 150.304 186.619 150.232C186.686 150.161 186.733 150.07 186.753 149.97C186.773 149.87 186.767 149.766 186.733 149.67C186.7 149.575 186.642 149.492 186.567 149.432C184.567 147.981 181.664 146.61 177.252 145.371C175.565 144.881 173.822 144.662 172.077 144.72C169.5 144.821 166.877 143.475 164.246 141.797Z"/>
</mask>
<path d="M164.246 141.797V151.313C170.849 152.36 178.393 151.755 186.376 150.371C186.467 150.352 186.552 150.304 186.619 150.232C186.686 150.161 186.733 150.07 186.753 149.97C186.773 149.87 186.767 149.766 186.733 149.67C186.7 149.575 186.642 149.492 186.567 149.432C184.567 147.981 181.664 146.61 177.252 145.371C175.565 144.881 173.822 144.662 172.077 144.72C169.5 144.821 166.877 143.475 164.246 141.797Z" fill="#FFFF24"/>
<path d="M164.246 141.797L164.783 140.953L163.246 139.972V141.797H164.246ZM164.246 151.313H163.246V152.167L164.089 152.301L164.246 151.313ZM186.376 150.371L186.547 151.356L186.563 151.353L186.578 151.35L186.376 150.371ZM186.567 149.432L187.188 148.648L187.171 148.635L187.154 148.622L186.567 149.432ZM177.252 145.371L176.973 146.331L176.982 146.333L177.252 145.371ZM172.077 144.72L172.044 143.72L172.038 143.72L172.077 144.72ZM163.246 141.797V151.313H165.246V141.797H163.246ZM164.089 152.301C170.853 153.373 178.523 152.747 186.547 151.356L186.205 149.385C178.262 150.762 170.845 151.347 164.402 150.325L164.089 152.301ZM186.578 151.35C186.88 151.287 187.146 151.132 187.347 150.918L185.891 149.547C185.958 149.475 186.054 149.416 186.173 149.391L186.578 151.35ZM187.347 150.918C187.547 150.706 187.677 150.444 187.733 150.169L185.773 149.771C185.788 149.696 185.825 149.617 185.891 149.547L187.347 150.918ZM187.733 150.169C187.789 149.895 187.771 149.609 187.678 149.343L185.788 149.997C185.763 149.923 185.758 149.845 185.773 149.771L187.733 150.169ZM187.678 149.343C187.586 149.077 187.42 148.832 187.188 148.648L185.946 150.216C185.865 150.151 185.814 150.072 185.788 149.997L187.678 149.343ZM187.154 148.622C185.026 147.079 182.003 145.666 177.522 144.408L176.982 146.333C181.326 147.553 184.107 148.884 185.98 150.241L187.154 148.622ZM177.531 144.41C175.743 143.892 173.895 143.659 172.044 143.72L172.11 145.719C173.749 145.665 175.387 145.871 176.973 146.331L177.531 144.41ZM172.038 143.72C169.802 143.808 167.417 142.633 164.783 140.953L163.708 142.64C166.338 144.317 169.197 145.834 172.117 145.719L172.038 143.72Z" fill="#02011D" mask="url(#path-9-inside-1)"/>
<path d="M84.1209 191.826C96.92 184.82 108.698 176.633 118.784 166.512L118.913 166.383L118.928 166.201C119.83 155.401 122.11 145.474 126.955 137.12L151.723 149.401C156.605 159.33 160.434 168.782 163.065 177.69L169.212 218.577H153.91L148.426 185.874L148.417 185.819L148.396 185.768L141.107 167.875L140.43 166.213L140.15 167.985C139.39 172.79 137.81 176.883 135.42 180.279C122.532 190.222 108.609 198.441 93.9471 204.76L84.1209 191.826Z" fill="#02011D" stroke="#02011D"/>
<path d="M166.409 87.3581C162.2 88.5448 157.583 88.2416 152.717 87.1568C154.008 82.3374 154.614 77.3289 154.515 72.3072L167.413 68.4164L167.736 77.9913C167.658 78.4115 167.575 78.8407 167.491 79.2776C167.004 81.8039 166.468 84.5877 166.409 87.3581Z" fill="#FFFF24" stroke="#02011D"/>
<path d="M175.973 50.6955L175.827 50.7175L175.717 50.815L153.445 70.4619C148.82 68.3733 144.578 66.0674 141.717 62.6251C138.82 59.1402 137.297 54.4363 138.36 47.459L138.364 47.4269L138.365 47.3945C138.513 40.5234 140.224 35.8877 142.912 32.6927C145.601 29.4977 149.317 27.682 153.6 26.5515C161.841 24.8518 167.789 25.3087 172.128 27.2324C176.448 29.147 179.245 32.5464 181.129 36.8945C182.406 41.2478 182.525 44.4894 181.649 46.7277C180.792 48.9189 178.938 50.2488 175.973 50.6955Z" fill="#02011D" stroke="white"/>
<path d="M158.346 227.832L158.693 233.162H181.249C178.716 228.703 173.534 227.157 167.018 227.072L158.346 227.832Z" fill="#FF5F7D"/>
<path d="M235.469 218.039L232.953 220.316L241.716 233.81C242.949 230.564 241.705 226.862 239.218 222.932L235.469 218.039Z" fill="#3B1AE3"/>
<path d="M297.988 231.365L298.709 234.855L313.64 232.354C311.554 229.684 307.98 229.234 303.662 229.901L297.988 231.365Z" fill="#3B1AE3"/>
<path d="M81.7544 196.651L77.5044 199.254L87.0515 221.669C89.661 217.264 88.7445 211.459 86.0554 204.95L81.7544 196.651Z" fill="#FF5F7D"/>
<path d="M94.4791 132.659H75.3882V133.8H94.4791V132.659Z" fill="#02011D"/>
<path d="M299.63 134.694C294.715 144.832 283.816 151.726 266.74 155.274L266.093 147.839L265.133 147.691L263.557 151.497L253.275 149.385L256.018 98.9859L263.037 91.6425H293.765C294.272 91.6425 294.773 91.8013 295.208 92.1061C295.644 92.4112 295.998 92.8513 296.221 93.3792C303.53 110.697 304.602 124.437 299.63 134.694Z" fill="#FF5F7D" stroke="#02011D"/>
<path d="M265.747 155.389L265.793 155.888C254.15 156.014 245.982 154.52 242.81 150.666C242.702 150.534 242.625 150.375 242.588 150.202C242.55 150.03 242.554 149.85 242.597 149.679C242.641 149.508 242.723 149.352 242.837 149.226C242.95 149.1 243.091 149.007 243.246 148.957L256.922 149.409C260.186 150.1 262.838 149.653 265.12 148.519L265.169 149.051M265.747 155.389C265.914 155.387 266.081 155.385 266.249 155.383L265.649 148.809C265.49 148.893 265.33 148.974 265.169 149.051M265.747 155.389L265.169 149.051M265.747 155.389C260.044 155.449 255.205 155.117 251.396 154.316C247.452 153.486 244.696 152.17 243.196 150.348L243.196 150.348L243.195 150.346C243.14 150.279 243.097 150.194 243.076 150.097C243.055 150 243.057 149.898 243.082 149.803C243.106 149.707 243.151 149.624 243.209 149.56C243.266 149.497 243.333 149.455 243.4 149.433L243.4 149.433L243.404 149.432C248.033 147.898 252.465 148.06 256.727 149.869L256.772 149.888L256.819 149.898C260.111 150.595 262.826 150.172 265.169 149.051" fill="#FFFF24" stroke="#02011D"/>
<path d="M232.799 183.102H213.708V184.243H232.799V183.102Z" fill="#02011D"/>
<path d="M117.562 92.1147H103.677V93.256H117.562V92.1147Z" fill="#02011D"/>
<path d="M209.197 200.613H195.312V201.754H209.197V200.613Z" fill="#02011D"/>
<path d="M66.8846 162.924H53V164.065H66.8846V162.924Z" fill="#02011D"/>
<path d="M75.5628 109.247H61.6782V110.389H75.5628V109.247Z" fill="#02011D"/>
<path d="M154.225 71.7831L154.225 71.7813L153.619 69.3381L153.554 69.0797L153.304 68.9886C152.638 68.7463 152.106 68.3956 151.707 67.9233C151.308 67.4515 151.022 66.8331 150.886 66.0221C150.612 64.3858 150.958 62.0021 152.201 58.6241C152.663 57.7692 152.981 57.7275 153.125 57.7411C153.239 57.7519 153.386 57.8081 153.579 57.9338C153.772 58.0591 153.97 58.2255 154.196 58.4183L154.688 58.8381L154.97 58.2566C156.796 54.5005 159.801 52.3748 163.642 51.3279C167.398 50.3044 171.945 50.3158 176.938 50.8757C177.087 60.76 175.98 69.6445 172.917 76.9966C167.476 77.6252 161.861 76.9247 155.933 74.0052C155.524 73.8009 155.156 73.4978 154.86 73.1142C154.563 72.7302 154.346 72.2758 154.225 71.7831Z" fill="#FFFF24" stroke="#02011D"/>
<path d="M178.433 73.0095H255.231C259.105 73.0095 262.323 76.469 262.323 80.8358V139.561C262.323 143.928 259.105 147.387 255.231 147.387H178.433C174.559 147.387 171.341 143.928 171.341 139.561V80.8358C171.341 76.469 174.559 73.0095 178.433 73.0095Z" fill="white" stroke="#FF5F7D"/>
<path d="M170.841 85.9961H262.823V80.8234C262.823 79.7314 262.627 78.65 262.245 77.641C261.864 76.6321 261.306 75.7154 260.601 74.9434C259.897 74.1713 259.061 73.559 258.141 73.1414C257.221 72.7238 256.235 72.5091 255.239 72.5095H178.422C176.411 72.5095 174.483 73.3855 173.062 74.9446C171.64 76.5038 170.841 78.6185 170.841 80.8234V85.9961Z" fill="#FF5F7D"/>
<path d="M242.691 82.2162C244.129 82.2162 245.294 80.9379 245.294 79.361C245.294 77.7841 244.129 76.5057 242.691 76.5057C241.253 76.5057 240.088 77.7841 240.088 79.361C240.088 80.9379 241.253 82.2162 242.691 82.2162Z" fill="#FFFF24"/>
<path d="M252.757 82.2162C254.195 82.2162 255.36 80.9379 255.36 79.361C255.36 77.7841 254.195 76.5057 252.757 76.5057C251.319 76.5057 250.154 77.7841 250.154 79.361C250.154 80.9379 251.319 82.2162 252.757 82.2162Z" fill="#3B1AE3"/>
<path d="M210.933 118.383H180.04V136.277H210.933V118.383Z" fill="#3B1AE3" stroke="#3B1AE3" stroke-miterlimit="10"/>
<path d="M253.972 118.383H223.08V136.277H253.972V118.383Z" fill="#3B1AE3" stroke="#3B1AE3" stroke-miterlimit="10"/>
<path d="M204.397 82.7476C202.608 80.0373 200.227 76.692 197.127 72.7193C199.031 71.9586 200.662 71.5656 202.006 71.5502C203.462 71.5334 204.551 71.9576 205.319 72.8156C207.57 76.173 207.829 79.192 207.227 82.0734L207.227 82.0754C207.156 82.4205 206.997 82.7303 206.775 82.97C206.553 83.2092 206.279 83.3675 205.987 83.4337C205.696 83.4998 205.394 83.4729 205.114 83.3542C204.834 83.2353 204.583 83.0272 204.397 82.7476ZM204.397 82.7476C204.398 82.7478 204.398 82.7481 204.398 82.7484L203.981 83.0238L204.397 82.7474C204.397 82.7475 204.397 82.7475 204.397 82.7476Z" fill="#FFFF24" stroke="#02011D"/>
<path d="M268.151 71.5732L267.979 71.1142L267.516 71.2766C266.813 71.5237 266.3 71.4729 265.903 71.2454C265.487 71.0074 265.107 70.5232 264.796 69.7154C264.173 68.0986 263.926 65.4471 264.015 61.9156C264.263 60.8042 264.617 60.3576 264.925 60.1697C265.244 59.9754 265.647 59.9711 266.214 60.0639L266.737 60.1495L266.792 59.6227C267.039 57.2658 267.693 55.4432 268.667 54.059C269.638 52.6783 270.947 51.7063 272.553 51.0772C275.791 49.8093 280.231 49.9364 285.449 50.9857L285.451 50.986C286.761 51.2449 287.997 51.8564 289.046 52.7707C290.096 53.6852 290.927 54.8742 291.461 56.2343C293.42 61.2639 293.691 67.3821 292.999 73.2712L292.999 73.2712L292.998 73.2794C292.892 74.3367 292.581 75.3549 292.088 76.2658C290.621 78.8717 287.926 79.9198 284.615 80.3894L284.074 80.4662L284.199 80.9989C284.94 84.1473 285.215 87.4051 285.014 90.6478H269.927C271.464 84.9934 270.779 78.5997 268.151 71.5732Z" fill="#FFFF24" stroke="#02011D"/>
<path d="M227.398 81.5372L227.399 81.5369L235.174 72.5299C233.691 71.0829 232.074 70.5194 230.277 70.8325L227.398 81.5372ZM227.398 81.5372C227.203 81.7642 226.958 81.9204 226.695 81.9948C226.432 82.069 226.157 82.0606 225.897 81.9699L225.732 82.4419M227.398 81.5372L225.732 82.4419M225.732 82.4419L225.897 81.9699C225.638 81.879 225.4 81.7072 225.215 81.4671C225.03 81.2267 224.908 80.9292 224.866 80.608L224.866 80.608M225.732 82.4419L224.866 80.608M224.866 80.608L224.865 80.6009M224.866 80.608L224.865 80.6009M224.865 80.6009C224.726 79.6225 224.684 78.63 224.742 77.6415M224.865 80.6009L224.742 77.6415M224.742 77.6415C224.968 74.2034 227.271 71.3564 230.277 70.8325L224.742 77.6415Z" fill="#FFFF24" stroke="#02011D"/>
</svg>
