<svg width="120" height="73" viewBox="0 0 120 73" fill="none" xmlns="http://www.w3.org/2000/svg">
<path d="M15.3 45.992C15.3 51.296 19.408 54.624 24.4 54.624C30.016 54.624 31.992 50.724 31.992 50.724H32.096C32.096 50.724 31.992 51.504 31.992 52.388V54H40.208V37.516C40.208 30.704 35.684 26.596 28.144 26.596C21.54 26.596 16.912 30.08 16.912 30.08L20.032 36.424C20.032 36.424 23.88 33.876 27.26 33.876C29.496 33.876 31.212 34.604 31.212 36.84V37.308H30.848C26.688 37.308 15.3 38.192 15.3 45.992ZM24.348 45.524C24.348 43.288 27.624 42.456 30.484 42.456H31.316V43.028C31.316 45.212 29.236 47.76 26.896 47.76C25.128 47.76 24.348 46.772 24.348 45.524ZM48.1417 44.12C48.1417 53.116 53.2377 54.26 58.0217 54.26C59.4777 54.26 60.7257 54.104 60.7257 54.104V46.304C60.7257 46.304 60.2057 46.356 59.6337 46.356C57.6057 46.356 57.1377 45.472 57.1377 42.924V16.82H48.1417V44.12ZM67.0303 44.12C67.0303 53.116 72.1262 54.26 76.9103 54.26C78.3663 54.26 79.6143 54.104 79.6143 54.104V46.304C79.6143 46.304 79.0943 46.356 78.5223 46.356C76.4943 46.356 76.0263 45.472 76.0263 42.924V16.82H67.0303V44.12ZM83.0068 63.048C83.0068 63.048 85.7108 64.92 89.2468 64.92C93.5108 64.92 98.1908 62.84 100.427 56.86L111.399 27.22H101.571L98.1908 39.7C97.8268 41.156 97.3068 43.704 97.3068 43.704H97.2028C97.2028 43.704 96.6828 41 96.2148 39.544L92.2628 27.22H82.0708L93.4588 53.48L92.9388 54.728C92.0028 57.016 90.0788 57.432 88.6228 57.432C87.3228 57.432 85.8668 56.444 85.8668 56.444L83.0068 63.048Z" fill="#02011D"/>
<path d="M118 12C118 16.4183 114.418 20 110 20C105.582 20 102 16.4183 102 12C102 7.58172 105.582 4 110 4C114.418 4 118 7.58172 118 12Z" fill="#3B1AE3"/>
<circle cx="5.5" cy="38.5" r="5.5" fill="#FF5F7D"/>
</svg>
