<svg width="660" height="463" viewBox="0 0 660 463" fill="none" xmlns="http://www.w3.org/2000/svg">
<g filter="url(#filter0_dd)">
<rect x="25" y="11.7412" width="610" height="411.906" rx="18" fill="white"/>
</g>
<path fill-rule="evenodd" clip-rule="evenodd" d="M48.0687 189.2C107.622 189.2 155.9 146.368 155.9 93.5315C155.9 65.9281 142.723 41.0552 121.646 23.5938H43.7983C33.8572 23.5938 25.7983 31.6527 25.7983 41.5938V187.157C32.9845 188.496 40.4339 189.2 48.0687 189.2Z" fill="#3B1AE3"/>
<path d="M25.7983 29C25.7983 19.0589 33.8572 11 43.7983 11H613.945C623.887 11 631.946 19.0589 631.946 29V35.9967H25.7983V29Z" fill="#FF5F7D"/>
<path d="M25.7983 29C25.7983 19.0589 33.8572 11 43.7983 11H613.945C623.887 11 631.946 19.0589 631.946 29V35.9967H25.7983V29Z" fill="#FF5F7D"/>
<ellipse cx="43.4783" cy="23.4991" rx="3.36748" ry="3.12458" fill="white"/>
<ellipse cx="55.264" cy="23.4991" rx="3.36748" ry="3.12458" fill="white"/>
<ellipse cx="67.0496" cy="23.4991" rx="3.36748" ry="3.12458" fill="white"/>
<path fill-rule="evenodd" clip-rule="evenodd" d="M633.5 409.352V277.27C623.086 275.606 612.384 274.739 601.467 274.739C506.008 274.739 426.989 341.01 413.479 427.352H615.5C625.441 427.352 633.5 419.293 633.5 409.352Z" fill="#FF5F7D"/>
<path d="M279.939 267.021L279.937 267.05L279.939 267.08L283.172 331.717L283.172 331.717L283.172 331.718L283.172 331.719L283.172 331.721L283.173 331.736L283.175 331.795C283.176 331.848 283.178 331.926 283.18 332.025C283.183 332.224 283.184 332.509 283.177 332.85C283.162 333.533 283.112 334.43 282.976 335.301C282.837 336.186 282.616 336.989 282.29 337.523C282.13 337.786 281.961 337.955 281.791 338.048C281.69 338.103 281.577 338.139 281.444 338.144C272.675 314.713 270.835 290.403 271.277 271.651C271.679 254.589 273.969 242.17 274.624 239.24L281.535 242.988L279.939 267.021Z" fill="#FFFF24" stroke="#02011D"/>
<path d="M329.032 412.239L329.045 412.268L322.474 427.105H291.884L291.811 426.401L291.472 423.144C291.18 420.336 290.763 416.323 290.263 411.501C289.263 401.857 287.929 388.976 286.595 376.029C285.261 363.082 283.927 350.069 282.927 340.162C282.427 335.209 282.01 331.032 281.718 328.028C281.573 326.526 281.458 325.318 281.38 324.453C281.374 324.39 281.369 324.328 281.363 324.268C281.829 324.724 282.309 325.143 283.069 325.558C284.288 326.222 286.253 326.903 290.199 327.934C290.452 328.216 290.813 328.732 291.275 329.491C291.785 330.329 292.397 331.425 293.095 332.745C294.492 335.383 296.225 338.894 298.172 342.979C302.064 351.147 306.802 361.59 311.389 371.886C315.976 382.182 320.411 392.328 323.7 399.9C325.344 403.685 326.702 406.828 327.649 409.024C328.122 410.122 328.492 410.983 328.745 411.57L329.032 412.239Z" fill="#3B1AE3" stroke="#02011D"/>
<path d="M307.088 200.792C310.589 201.723 312.605 204.917 313.51 209.491C314.413 214.054 314.172 219.842 313.279 225.657C312.387 231.465 310.852 237.261 309.194 241.822C308.365 244.103 307.508 246.065 306.692 247.562C305.862 249.084 305.114 250.044 304.531 250.419C303.94 250.799 303.023 251.027 301.8 251.084C300.589 251.14 299.134 251.026 297.514 250.772C294.275 250.264 290.438 249.204 286.696 247.886C282.955 246.568 279.328 244.998 276.512 243.48C275.104 242.721 273.908 241.98 273.005 241.296C272.085 240.598 271.53 240.004 271.321 239.553C271.238 239.374 271.178 239.042 271.192 238.521C271.205 238.013 271.285 237.376 271.435 236.626C271.734 235.126 272.302 233.216 273.114 231.054C274.739 226.731 277.326 221.442 280.642 216.472C283.961 211.499 287.992 206.874 292.493 203.847C296.987 200.825 301.918 199.416 307.088 200.792Z" fill="#FF5F7D" stroke="#02011D"/>
<path d="M320.86 189.384C332.64 189.384 341.601 197.239 348.323 209.318C355.043 221.393 359.457 237.582 362.161 253.982C364.864 270.374 365.853 286.938 365.742 299.737C365.686 306.137 365.356 311.586 364.83 315.596C364.567 317.602 364.257 319.235 363.912 320.441C363.74 321.045 363.562 321.53 363.383 321.897C363.201 322.272 363.036 322.484 362.909 322.586C362.546 322.875 361.935 323.19 361.067 323.516C360.207 323.839 359.129 324.161 357.859 324.477C355.319 325.108 352.04 325.708 348.265 326.244C340.716 327.317 331.215 328.133 321.732 328.452C312.246 328.771 302.796 328.592 295.344 327.681C291.617 327.225 288.409 326.588 285.953 325.747C283.471 324.897 281.866 323.875 281.194 322.724C280.848 322.131 280.477 321.09 280.11 319.616C279.745 318.153 279.393 316.303 279.067 314.12C278.417 309.754 277.879 304.081 277.568 297.561C276.948 284.521 277.241 268.119 279.358 252.049C281.477 235.972 285.417 220.271 292.065 208.604C298.706 196.948 308.005 189.384 320.86 189.384Z" fill="#FF5F7D" stroke="#02011D"/>
<path d="M338.605 198.014L338.605 198.014C341.53 195.992 345.51 196.442 349.991 198.562C354.45 200.672 359.256 204.372 363.685 208.564C368.109 212.752 372.13 217.408 375.022 221.403C376.468 223.402 377.625 225.226 378.409 226.738C378.8 227.494 379.094 228.163 379.284 228.731C379.477 229.307 379.551 229.744 379.536 230.048C379.503 230.692 379.151 231.493 378.46 232.426C377.777 233.35 376.799 234.353 375.599 235.394C373.201 237.476 369.966 239.666 366.567 241.629C363.17 243.592 359.626 245.318 356.618 246.477C355.114 247.056 353.753 247.49 352.618 247.742C351.465 247.997 350.608 248.05 350.075 247.927C349.853 247.875 349.521 247.708 349.082 247.38C348.652 247.059 348.154 246.61 347.603 246.043C346.501 244.909 345.212 243.328 343.858 241.414C341.149 237.587 338.2 232.464 335.968 226.998C333.734 221.525 332.232 215.746 332.379 210.595C332.526 205.46 334.306 200.986 338.605 198.014Z" fill="#FF5F7D" stroke="#02011D"/>
<path d="M365.62 268.721L366.186 267.931C364.249 265.679 360.457 261.179 357.112 256.72C355.439 254.49 353.884 252.278 352.729 250.368C352.152 249.412 351.679 248.54 351.343 247.785C351.003 247.02 350.818 246.411 350.784 245.97C350.774 245.837 350.812 245.648 350.954 245.39C351.094 245.134 351.32 244.841 351.636 244.515C352.268 243.861 353.206 243.127 354.369 242.346C356.691 240.786 359.831 239.087 362.998 237.512C366.162 235.938 369.337 234.494 371.723 233.444C372.915 232.919 373.91 232.492 374.606 232.197C374.897 232.074 375.136 231.973 375.315 231.898C381.127 240.928 384.842 251.387 387.11 260.152C389.408 269.038 390.206 276.133 390.206 278.179C390.206 283.801 388.695 287.982 386.741 290.743C384.771 293.526 382.398 294.816 380.682 294.816C378.826 294.816 376.392 294.265 373.521 293.262C370.658 292.263 367.395 290.828 363.892 289.09C356.885 285.615 348.949 280.946 341.376 276.177C326.224 266.634 312.586 256.728 310.834 255.248C310.19 254.703 310.099 253.855 310.562 252.69C311.023 251.531 311.984 250.223 313.136 249.023C314.283 247.828 315.583 246.777 316.679 246.123C317.231 245.794 317.706 245.58 318.07 245.489C318.466 245.389 318.574 245.469 318.579 245.473C318.818 245.695 319.319 246.051 320.025 246.509C320.744 246.975 321.709 247.567 322.9 248.267C325.283 249.667 328.585 251.504 332.674 253.63C340.852 257.884 352.184 263.302 365.62 268.721Z" fill="#FFFF24" stroke="#02011D"/>
<path d="M303.551 222.496L283.349 225.33L288.574 257.526L308.775 254.692L303.551 222.496Z" fill="#02011D"/>
<path d="M311.866 239.704C314.687 241.218 316.746 243.346 317.809 245.538C318.872 247.733 318.92 249.947 317.825 251.71C316.73 253.473 314.644 254.541 312.068 254.783C309.495 255.024 306.484 254.429 303.662 252.915C300.841 251.4 298.782 249.273 297.719 247.08C296.656 244.885 296.608 242.672 297.703 240.908C298.798 239.145 300.884 238.077 303.46 237.836C306.033 237.595 309.044 238.189 311.866 239.704Z" fill="#FFFF24" stroke="#02011D"/>
<path d="M328.767 194.596C328.767 194.884 328.618 195.187 328.229 195.503C327.836 195.823 327.244 196.115 326.485 196.361C324.972 196.853 322.925 197.122 320.855 197.14C318.784 197.159 316.74 196.926 315.231 196.445C314.475 196.204 313.886 195.911 313.496 195.582C313.114 195.26 312.952 194.934 312.952 194.596V171.344H328.767V194.596Z" fill="#FFFF24" stroke="#02011D"/>
<path d="M332.647 157.465C332.647 164.986 330.801 171.771 327.842 176.659C324.877 181.556 320.85 184.475 316.494 184.475C312.138 184.475 308.111 181.556 305.146 176.659C302.187 171.771 300.341 164.986 300.341 157.465C300.341 149.944 302.187 143.16 305.146 138.272C308.111 133.374 312.138 130.455 316.494 130.455C320.85 130.455 324.877 133.374 327.842 138.272C330.801 143.16 332.647 149.944 332.647 157.465Z" fill="#FFFF24" stroke="#02011D"/>
<path d="M332.015 165.433C334.426 165.433 336.381 163.615 336.381 161.374C336.381 159.132 334.426 157.315 332.015 157.315C329.604 157.315 327.65 159.132 327.65 161.374C327.65 163.615 329.604 165.433 332.015 165.433Z" fill="#FFFF24"/>
<path d="M300.416 147.709C300.332 147.614 300.24 147.502 300.144 147.374C299.729 146.824 299.251 146.028 298.797 145.074C297.886 143.159 297.107 140.679 297.107 138.373C297.107 135.517 298.413 131.975 301.856 129.138C305.3 126.3 310.916 124.141 319.566 124.141C326.225 124.141 331.869 126.793 337.122 129.497C337.559 129.723 337.995 129.949 338.428 130.173C340.582 131.291 342.683 132.382 344.749 133.236C347.234 134.263 349.708 134.965 352.226 134.965C359.115 134.965 365.175 132.828 371.028 130.726L371.32 130.621C377.093 128.548 382.665 126.546 388.766 126.546C394.033 126.546 402.184 127.96 409 132.074C415.792 136.173 421.249 142.94 421.249 153.707C421.249 161.894 419.087 169.586 414.373 175.221C409.67 180.843 402.381 184.475 391.999 184.475C382.404 184.475 373.672 181.278 365.877 178.049C364.84 177.619 363.818 177.188 362.812 176.764C360.051 175.6 357.414 174.489 354.926 173.596C351.529 172.378 348.352 171.547 345.435 171.547C342.156 171.547 340.018 171.929 338.179 172.309C337.983 172.349 337.791 172.39 337.602 172.429C336.022 172.761 334.646 173.05 332.824 173.05H330.09V165.559C330.623 165.775 331.195 165.9 331.778 165.927C332.652 165.967 333.522 165.786 334.297 165.402C335.072 165.017 335.725 164.441 336.182 163.732C336.639 163.022 336.883 162.207 336.883 161.373C336.883 160.54 336.639 159.725 336.182 159.015C335.725 158.306 335.072 157.73 334.297 157.345C333.522 156.961 332.652 156.78 331.778 156.82C331.013 156.855 330.267 157.06 329.602 157.416H329.59C323.786 157.416 317.514 153.827 312.561 149.895C310.096 147.939 307.982 145.918 306.448 144.258C305.68 143.428 305.061 142.693 304.617 142.105C304.395 141.811 304.22 141.559 304.092 141.353C303.96 141.139 303.897 141.001 303.876 140.932L303.641 140.17L303.057 140.713C302.912 140.848 302.778 141.063 302.663 141.272C302.538 141.498 302.403 141.778 302.263 142.093C301.984 142.724 301.676 143.517 301.39 144.334C301.104 145.151 300.837 146 300.64 146.744C300.551 147.083 300.473 147.411 300.416 147.709Z" fill="#02011D" stroke="#02011D"/>
<path d="M323.163 427.105L291.15 328.035C297.274 328.927 310.333 329.682 324.182 329.331C338.302 328.972 353.347 327.463 362.72 323.723V427.105H323.163Z" fill="#3B1AE3" stroke="#02011D"/>
<defs>
<filter id="filter0_dd" x="0" y="0.741211" width="660" height="461.906" filterUnits="userSpaceOnUse" color-interpolation-filters="sRGB">
<feFlood flood-opacity="0" result="BackgroundImageFix"/>
<feColorMatrix in="SourceAlpha" type="matrix" values="0 0 0 0 0 0 0 0 0 0 0 0 0 0 0 0 0 0 127 0"/>
<feOffset dy="14"/>
<feGaussianBlur stdDeviation="12.5"/>
<feColorMatrix type="matrix" values="0 0 0 0 0.529412 0 0 0 0 0.572549 0 0 0 0 0.631373 0 0 0 0.06 0"/>
<feBlend mode="normal" in2="BackgroundImageFix" result="effect1_dropShadow"/>
<feColorMatrix in="SourceAlpha" type="matrix" values="0 0 0 0 0 0 0 0 0 0 0 0 0 0 0 0 0 0 127 0"/>
<feOffset dy="4"/>
<feGaussianBlur stdDeviation="2"/>
<feColorMatrix type="matrix" values="0 0 0 0 0.529412 0 0 0 0 0.572549 0 0 0 0 0.631373 0 0 0 0.08 0"/>
<feBlend mode="normal" in2="effect1_dropShadow" result="effect2_dropShadow"/>
<feBlend mode="normal" in="SourceGraphic" in2="effect2_dropShadow" result="shape"/>
</filter>
</defs>
</svg>
