<svg width="367" height="260" viewBox="0 0 367 260" fill="none" xmlns="http://www.w3.org/2000/svg">
<path d="M158.382 213.15H11.7533C10.1479 213.15 8.60838 212.33 7.47335 210.871C6.33831 209.413 5.70068 207.435 5.70068 205.373V205.373C5.70068 203.311 6.33837 201.333 7.47346 199.875C8.60855 198.417 10.1481 197.598 11.7533 197.598H158.382C159.988 197.598 161.528 198.417 162.663 199.875C163.798 201.333 164.437 203.31 164.437 205.373V205.373C164.437 207.435 163.798 209.413 162.663 210.872C161.528 212.33 159.988 213.15 158.382 213.15V213.15Z" fill="#0A0016"/>
<path d="M21.1699 197.598V79.614C21.1704 77.6767 21.7698 75.8191 22.8364 74.4495C23.9029 73.0799 25.3491 72.3105 26.8571 72.3105H141.936C143.444 72.3112 144.89 73.0809 145.956 74.4504C147.022 75.8199 147.621 77.6772 147.622 79.614V197.598H21.1699Z" fill="#0A0016"/>
<path d="M44.1072 102.53L123.749 90.1268C125.164 89.9063 126.598 90.0964 127.948 90.6831C129.297 91.2698 130.527 92.2381 131.546 93.5167C132.565 94.7952 133.348 96.3514 133.837 98.0704C134.326 99.7893 134.508 101.627 134.37 103.449L129.594 166.62C129.366 169.631 128.333 172.448 126.67 174.592C125.008 176.735 122.819 178.073 120.476 178.378L43.7821 188.288C42.3184 188.476 40.8404 188.254 39.4495 187.639C38.0587 187.024 36.788 186.029 35.7247 184.723C34.6614 183.417 33.8307 181.831 33.2897 180.074C32.7487 178.317 32.5101 176.43 32.5904 174.543L35.1599 114.799C35.2932 111.73 36.2626 108.82 37.8984 106.576C39.5341 104.333 41.732 102.901 44.1072 102.53Z" fill="white"/>
<path d="M75.9803 183.899L57.8517 186.373C63.0651 177.003 67.1935 161.296 70.7951 144.082L71.1473 142.398L69.9474 143.63C58.2946 155.599 50.84 169.421 51.1272 186.563L41.0993 187.769C41.5253 154.603 49.4431 127.211 70.7498 109.929C71.5323 109.301 72.3869 108.966 73.2438 108.924C74.1002 108.883 74.9635 109.135 75.7668 109.681L75.7688 109.682C85.0885 115.952 95.7654 119.634 109.007 118.303C126.296 119.586 142.528 116.291 157.919 109.401L164.916 125.286C150.543 136.591 133.049 141.208 113.203 140.861L112.787 140.854L112.704 141.261C109.787 155.621 102.991 169.869 95.4513 181.673L75.9911 183.897L75.9911 183.897L75.9803 183.899Z" fill="#FF5F7D" stroke="#02011D"/>
<path d="M89.6802 116.204C93.0548 114.214 95.6232 110.572 97.4382 105.972C99.4386 100.901 100.551 94.6043 100.806 87.8879L100.819 87.5515L100.512 87.4131C98.1668 86.3557 96.5004 84.6278 95.6475 82.03C94.7869 79.4091 94.7423 75.8638 95.7465 71.1728L95.7465 71.1727C95.972 70.1188 96.4569 69.2089 97.107 68.5726C97.7548 67.9386 98.525 67.6146 99.2962 67.615L99.3684 67.615L99.4376 67.5946L119.276 61.7574L117.966 88.2518L115.615 105.077L115.612 105.099L115.611 105.121L114.96 118.075C106.53 118.693 97.1716 118.65 89.6802 116.204Z" fill="#FFEE56" stroke="#0A0016"/>
<path d="M138.841 53.5794L138.816 53.6569L138.816 53.7383C138.9 62.9765 136.222 73.694 132.488 85.0075L118.762 99.2809L103.497 86.7626V53.1515L117.886 44.3286L140.351 48.9279L138.841 53.5794Z" fill="#FFEE56" stroke="#0A0016"/>
<path d="M358.705 213.022H212.076C210.47 213.021 208.931 212.202 207.796 210.743C206.661 209.285 206.023 207.307 206.023 205.244C206.023 203.182 206.661 201.204 207.796 199.746C208.931 198.288 210.47 197.469 212.076 197.469H358.705C360.31 197.469 361.85 198.288 362.985 199.746C364.121 201.204 364.759 203.182 364.759 205.244C364.759 207.307 364.121 209.285 362.985 210.743C361.85 212.202 360.31 213.021 358.705 213.022V213.022Z" fill="#0A0016"/>
<path d="M221.492 197.469V79.4856C221.492 77.5486 222.091 75.691 223.157 74.3213C224.224 72.9517 225.67 72.1822 227.177 72.1822H342.259C343.766 72.1822 345.213 72.9517 346.279 74.3213C347.345 75.691 347.944 77.5486 347.944 79.4856V197.469H221.492Z" fill="#0A0016"/>
<path d="M324.071 89.9982L309.129 92.3256C316.343 97.4325 321.505 104.057 325.012 111.903C326.796 115.901 327.631 120.432 327.775 125.035C327.775 125.065 327.775 125.095 327.775 125.124C327.816 126.125 328.102 127.084 328.594 127.863C329.085 128.641 329.756 129.2 330.51 129.458C331.314 129.732 332.004 130.396 332.434 131.311C332.478 131.412 332.459 132.269 332.395 133.641L334.686 103.32C334.824 101.499 334.642 99.6622 334.153 97.9438C333.665 96.2254 332.882 94.6697 331.864 93.3913C330.845 92.113 329.616 91.1444 328.268 90.5572C326.919 89.9699 325.485 89.7789 324.071 89.9982Z" fill="white"/>
<path d="M303.196 180.1L275.366 97.5789L244.429 102.397C242.054 102.768 239.856 104.2 238.221 106.443C236.585 108.687 235.615 111.597 235.482 114.666L232.907 174.415C232.827 176.302 233.065 178.189 233.606 179.946C234.147 181.703 234.978 183.289 236.041 184.595C237.104 185.901 238.375 186.895 239.766 187.511C241.157 188.126 242.635 188.347 244.099 188.16L320.802 178.232C322.858 177.971 324.804 176.911 326.38 175.193C324.299 177.249 321.312 178.457 317.167 178.581L303.196 180.1Z" fill="white"/>
<path d="M330.352 129.931L330.353 129.931C330.988 130.147 331.571 130.679 331.956 131.463C331.957 131.482 331.958 131.508 331.959 131.54C331.962 131.645 331.962 131.796 331.958 131.993C331.95 132.385 331.928 132.937 331.894 133.618L331.894 133.62C331.72 137.4 331.209 145.128 330.741 151.918C330.507 155.311 330.284 158.468 330.119 160.777C330.037 161.931 329.969 162.873 329.922 163.527L329.867 164.281L329.853 164.478L329.849 164.528L329.848 164.541L329.848 164.544L329.848 164.545C329.848 164.545 329.848 164.545 329.868 164.546C329.906 164.549 330.018 164.557 330.346 164.581L329.848 164.545L329.848 164.547C329.54 168.988 328.368 172.502 326.007 174.851C324.037 176.796 321.183 177.972 317.132 178.093L317.108 178.094L317.085 178.096L303.702 179.775L275.833 97.4308L275.833 97.4304L263.813 61.791L263.772 61.6693L263.677 61.5825C261.221 59.3275 259.801 57.1208 259.406 54.9649C259.02 52.8579 259.598 50.7152 261.311 48.5093C269.312 44.3961 275.673 43.0261 280.863 43.5593C286.06 44.0933 290.146 46.5425 293.578 50.1872L293.602 50.2126L293.63 50.2344C300.386 55.6518 303.99 64.2753 306.709 73.93C307.447 76.5696 307.774 79.3722 307.671 82.1774L307.671 82.1799C307.551 85.9639 307.766 89.4875 308.654 92.4683L308.703 92.6339L308.844 92.7337C315.979 97.7846 321.086 104.335 324.559 112.107L324.559 112.108C326.31 116.022 327.136 120.49 327.279 125.043V125.124V125.134L327.28 125.144C327.323 126.225 327.633 127.27 328.175 128.13C328.717 128.989 329.474 129.63 330.352 129.931Z" fill="#FF5F7D" stroke="#0A0016"/>
<path d="M221.247 120.635L226.667 103.46L227.807 103.925L227.807 103.925L227.811 103.926C235.844 107.122 245.424 110.807 253.745 113.772C257.906 115.255 261.756 116.559 264.943 117.532C268.087 118.492 270.623 119.143 272.177 119.313C286.036 123.237 300.119 125.135 314.227 124.978C325.653 135.261 329.823 147.669 330.482 161.034C330.481 167.079 329.467 171.528 327.585 174.398C325.783 177.146 323.158 178.488 319.704 178.374L314.005 163.884L313.04 164.092L313.787 179.315L272.548 185.528C267.445 172.458 263.897 159.178 261.71 145.712L261.662 145.416L261.378 145.319C247.193 140.452 234.477 133.089 223.455 122.837L221.247 120.635Z" fill="#3B1AE3" stroke="#0A0016"/>
<path d="M278.039 120.504C274.823 119.708 271.419 118.867 267.88 118.141V103.58L282.461 83.601L290.056 97.0042C287.775 105.544 287.827 115.974 291.975 123.33C288.798 123.028 285.238 122.254 281.348 121.316C280.269 121.055 279.165 120.782 278.039 120.504Z" fill="#FFEE56" stroke="#0A0016"/>
<path d="M289.759 71.545L289.887 72.178L290.467 71.8954C292.446 70.9329 293.839 71.1581 294.813 71.9846C295.84 72.8557 296.529 74.495 296.817 76.6217C297.391 80.8584 296.32 86.6248 293.862 90.626L293.843 90.657L293.828 90.6904C290.825 97.6828 287.231 101.57 283.298 103.502C279.362 105.435 275.003 105.452 270.379 104.525C266.51 103.747 263.105 100.526 261.581 95.7513C259.89 90.4477 260.495 84.917 261.521 79.2195C261.723 78.0961 261.942 76.9651 262.162 75.8286C263.031 71.3372 263.917 66.76 263.853 62.2304C273.031 57.0098 278.843 56.4401 282.637 58.4601C286.489 60.5113 288.505 65.3514 289.759 71.545Z" fill="#FFEE56" stroke="#0A0016"/>
<path d="M177.908 51.5932L183.873 60.2242L184.37 59.6756L178.405 51.0447L177.908 51.5932Z" fill="#02011D"/>
<path d="M188.83 43.4475L192.433 53.8963L193.05 53.5875L189.447 43.1387L188.83 43.4475Z" fill="#02011D"/>
<path d="M205.039 43.2835L202.088 53.5995L202.726 53.9337L205.676 43.6177L205.039 43.2835Z" fill="#02011D"/>
<path d="M216.459 52.2312L209.73 59.0005L210.169 59.6904L216.898 52.9211L216.459 52.2312Z" fill="#02011D"/>
<path d="M98.7052 67.1838C95.5375 57.054 94.6662 48.3472 97.6627 42.0544C98.1068 41.1168 98.7255 40.3359 99.463 39.782C100.201 39.2282 101.034 38.9188 101.888 38.8818C102.742 38.8448 103.589 39.0813 104.354 39.57C105.119 40.0587 105.777 40.7843 106.27 41.6813C106.416 41.9481 106.556 42.2199 106.695 42.5016C112.609 30.793 119.023 26.7385 126.201 34.2939C132.582 26.8077 146.746 25.4983 149.621 36.9079C151.304 43.5788 147.978 50.5956 142.657 52.2015C141.666 52.4947 140.664 52.7166 139.654 52.8661C125.453 47.7271 111.886 43.9988 105.687 56.7575V80.9505C111.434 83.1742 115.071 85.63 117.121 88.2959C123.637 83.9277 129.382 81.6399 132.927 85.2718L131.863 106.829C118.463 103.864 107.027 99.0632 101.986 88.2984L101.731 66.408L101.648 59.3493V66.6946L98.7052 67.1838Z" fill="#02011D"/>
<path d="M187.039 71.9319L187.04 71.9312C187.108 71.8214 187.174 71.7881 187.202 71.7802C187.221 71.7751 187.249 71.7721 187.297 71.8058C187.353 71.8453 187.428 71.9336 187.481 72.086C187.533 72.2356 187.552 72.4139 187.529 72.5888C187.529 72.5895 187.529 72.5901 187.528 72.5908L183.234 102.461C178.656 111.376 171.906 118.892 163.89 125.615L157.161 109.934L175.76 99.5986L175.935 99.5017L175.995 99.3115C179.518 88.104 182.932 78.491 187.039 71.9319Z" fill="#FFEE56" stroke="#0A0016"/>
<path d="M204.421 74.1153L204.421 74.1159C207.171 80.1077 209.044 87.2895 210.184 95.4627L210.223 95.7409L210.481 95.8524L226.804 102.917L221.124 118.789C215.14 113.137 209.196 106.452 204.296 99.0613V74.3539C204.297 74.2483 204.322 74.1567 204.355 74.0935C204.365 74.0749 204.375 74.061 204.383 74.0506C204.394 74.0649 204.408 74.0857 204.421 74.1153Z" fill="#FFEE56" stroke="#0A0016"/>
</svg>
