<svg width="367" height="260" viewBox="0 0 367 260" fill="none" xmlns="http://www.w3.org/2000/svg">
<path d="M226.264 213.171L223.145 209.099L226.491 206.046L229.187 210.197L226.264 213.171Z" fill="#FFEE56" stroke="black"/>
<path d="M285.369 221.75L284.382 217.042L288.932 216.281L290.051 220.54L285.369 221.75Z" fill="#FFEE56" stroke="black"/>
<path d="M145.809 218.29L145.282 210.577H152.633L153.465 217.619L145.809 218.29Z" fill="#FFEE56" stroke="black"/>
<path d="M73.24 195.214L69.412 187.833L75.5012 184.078L78.6432 191.447L73.24 195.214Z" fill="#FFEE56" stroke="black"/>
<path d="M271.658 186.173L271.634 186.065L271.566 185.978L241.071 146.421L260.886 140.052L265.886 148.097L265.893 148.108L265.9 148.118L286.703 178.043L286.704 178.043C286.905 178.332 287.045 178.67 287.11 179.033C287.11 179.033 287.11 179.033 287.11 179.033L293.503 214.461L278.835 218.036L271.658 186.173Z" fill="#3B1AE3" stroke="black"/>
<path d="M252.398 179.436L252.546 179.313L252.573 179.123L257.397 145.869L277.576 134.985L275.885 175.769L232.037 213.716L224.292 202.744L252.398 179.436Z" fill="#3B1AE3" stroke="black"/>
<path d="M279.36 48.2444C280.432 47.6475 280.891 46.2008 280.848 44.0559C280.689 36.3265 274.838 30.2131 267.789 30.0595C265.466 30.0107 263.087 30.3143 260.708 30.618C260.078 30.7029 259.445 30.7512 258.81 30.7628C250.584 30.8728 245.533 34.9391 241.466 40.2217C240.907 40.9402 240.219 41.5238 239.444 41.9359C238.669 42.348 237.825 42.5796 236.965 42.6161C227.599 43.0647 220.362 46.391 215.999 53.5986C215.585 54.2813 215.027 54.8435 214.371 55.2369C213.715 55.6303 212.982 55.843 212.234 55.8569C203.047 56.0314 203.925 59.8551 204.337 63.5043L232.127 90.9142L260.59 87.8688L279.36 48.2444Z" fill="#02011D"/>
<path d="M133.195 136.677L114.614 127.335C115.542 126.379 116.429 125.087 117.329 123.548C117.988 122.422 118.662 121.147 119.369 119.753C122.04 126.398 126.622 132.415 133.195 136.677ZM140.248 139.17C142.785 136.479 145.208 133.819 147.443 131.215C148.502 131.849 149.603 132.476 150.746 133.095V141.753C146.902 141.296 143.405 140.409 140.248 139.17ZM139.256 138.765C129.521 134.624 123.163 127.066 119.974 118.549C120.226 118.042 120.484 117.522 120.746 116.989C120.888 116.701 121.032 116.408 121.178 116.112C123.558 111.277 126.412 105.478 130.312 99.3798L130.612 98.9565C128.438 104.876 128.668 110.378 131.141 115.501C133.812 121.035 139.071 126.062 146.576 130.689C144.311 133.323 141.846 136.023 139.256 138.765ZM157.361 115.523C155.134 119.952 151.576 124.807 147.234 129.92C139.746 125.325 134.614 120.396 132.041 115.066C129.027 108.822 129.486 101.939 133.973 94.2119L133.133 93.6716L129.489 98.8112L129.482 98.8209L129.476 98.831C125.542 104.982 122.664 110.83 120.284 115.664C120.137 115.962 119.992 116.257 119.849 116.547C119.735 116.779 119.622 117.008 119.509 117.235C119.472 117.121 119.434 117.007 119.398 116.893C115.41 104.526 117.911 90.5559 126.252 82.1461C129.558 79.2082 133.424 78.4433 137.652 78.852C145.546 79.924 154.398 79.5108 163.831 78.1863L157.361 115.523Z" fill="#3B1AE3" stroke="#02011D"/>
<path d="M164.113 136.851L164.113 136.851L164.117 136.852C168.482 138.078 171.321 139.425 173.256 140.824C173.258 140.826 173.259 140.829 173.261 140.834C173.265 140.844 173.266 140.858 173.263 140.871C173.262 140.876 173.26 140.88 173.259 140.883C165.479 142.23 158.16 142.826 151.746 141.884V133.698C154.139 135.159 156.614 136.316 159.095 136.219C160.786 136.164 162.476 136.376 164.113 136.851Z" fill="#FFEE56" stroke="#0A0016"/>
<path d="M71.1209 182.826C83.92 175.82 95.6979 167.633 105.784 157.512L105.913 157.383L105.928 157.201C106.83 146.401 109.11 136.474 113.955 128.12L138.723 140.401C143.605 150.33 147.434 159.782 150.065 168.69L156.212 209.577H140.91L135.426 176.874L135.417 176.819L135.396 176.768L128.107 158.875L127.43 157.213L127.15 158.985C126.39 163.79 124.81 167.883 122.42 171.279C109.532 181.222 95.6094 189.441 80.9471 195.76L71.1209 182.826Z" fill="#02011D" stroke="#02011D"/>
<path d="M153.409 78.3581C149.2 79.5448 144.583 79.2416 139.717 78.1568C141.008 73.3374 141.614 68.3289 141.515 63.3072L154.413 59.4164L154.736 68.9913C154.658 69.4115 154.575 69.8407 154.491 70.2776C154.004 72.8038 153.468 75.5877 153.409 78.3581Z" fill="#FFEE56" stroke="#0A0016"/>
<path d="M162.973 41.6955L162.827 41.7175L162.717 41.815L140.445 61.4619C135.82 59.3733 131.578 57.0674 128.717 53.6251C125.82 50.1402 124.297 45.4363 125.36 38.459L125.364 38.4269L125.365 38.3945C125.513 31.5234 127.224 26.8877 129.912 23.6927C132.601 20.4977 136.317 18.682 140.6 17.5515C148.841 15.8518 154.789 16.3087 159.128 18.2324C163.448 20.147 166.245 23.5464 168.129 27.8945C169.406 32.2478 169.525 35.4894 168.649 37.7277C167.792 39.9189 165.938 41.2488 162.973 41.6955Z" fill="#02011D" stroke="white"/>
<path d="M146.161 223.662L145.876 219.288L154.036 218.572C160.103 218.655 164.812 220.017 167.344 223.662H146.161Z" fill="#FF5F7D" stroke="black"/>
<path d="M228.543 223.626L220.604 211.401L222.402 209.774L225.807 214.218C228.001 217.69 229.129 220.853 228.543 223.626Z" fill="#3B1AE3" stroke="black"/>
<path d="M286.101 225.282L285.574 222.73L290.763 221.391C294.623 220.798 297.697 221.142 299.658 223.012L286.101 225.282Z" fill="#3B1AE3" stroke="black"/>
<path d="M74.0988 211.504L65.1335 190.455L68.5576 188.358L72.6015 196.161C75.0858 202.181 75.9724 207.435 74.0988 211.504Z" fill="#FF5F7D" stroke="black"/>
<path d="M81.4791 123.659H62.3882V124.8H81.4791V123.659Z" fill="#0A0016"/>
<path d="M286.63 125.694C281.715 135.832 270.816 142.726 253.74 146.274L253.093 138.839L252.133 138.691L250.557 142.497L240.275 140.385L243.018 89.9859L250.037 82.6425H280.765C281.272 82.6425 281.773 82.8013 282.208 83.1061C282.644 83.4111 282.998 83.851 283.221 84.3787C290.53 101.697 291.602 115.437 286.63 125.694Z" fill="#FF5F7D" stroke="#0A0016"/>
<path d="M252.169 140.051L252.747 146.389C247.044 146.449 242.205 146.117 238.396 145.316C234.452 144.486 231.696 143.17 230.196 141.348L230.196 141.348L230.195 141.346C230.14 141.279 230.097 141.194 230.076 141.097C230.055 141 230.057 140.898 230.082 140.803C230.106 140.707 230.151 140.624 230.209 140.56C230.266 140.497 230.333 140.455 230.4 140.433L230.4 140.433L230.404 140.432C235.033 138.898 239.465 139.06 243.727 140.869L243.772 140.888L243.819 140.898C247.111 141.595 249.826 141.172 252.169 140.051Z" fill="#FFEE56" stroke="#0A0016"/>
<path d="M219.799 174.102H200.708V175.243H219.799V174.102Z" fill="#0A0016"/>
<path d="M104.562 83.1147H90.6772V84.256H104.562V83.1147Z" fill="#0A0016"/>
<path d="M196.197 191.613H182.312V192.754H196.197V191.613Z" fill="#0A0016"/>
<path d="M53.8846 153.924H40V155.065H53.8846V153.924Z" fill="#0A0016"/>
<path d="M62.5628 100.247H48.6782V101.389H62.5628V100.247Z" fill="#0A0016"/>
<path d="M141.225 62.7831L141.225 62.7813L140.619 60.3381L140.554 60.0797L140.304 59.9886C139.638 59.7463 139.106 59.3956 138.707 58.9233C138.308 58.4515 138.022 57.8331 137.886 57.0221C137.612 55.3858 137.958 53.0021 139.201 49.6241C139.663 48.7692 139.981 48.7275 140.125 48.7411C140.239 48.7519 140.386 48.8081 140.579 48.9338C140.772 49.0591 140.97 49.2255 141.196 49.4183L141.688 49.8381L141.97 49.2566C143.796 45.5005 146.801 43.3748 150.642 42.3279C154.398 41.3044 158.945 41.3158 163.938 41.8757C164.087 51.76 162.98 60.6445 159.917 67.9966C154.476 68.6252 148.861 67.9247 142.933 65.0051C142.523 64.8008 142.156 64.4977 141.86 64.1142C141.563 63.7302 141.346 63.2758 141.225 62.7831Z" fill="#FFEE56" stroke="#0A0016"/>
<path d="M165.433 64.0095H242.231C246.105 64.0095 249.323 67.469 249.323 71.8358V130.561C249.323 134.928 246.105 138.387 242.231 138.387H165.433C161.559 138.387 158.341 134.928 158.341 130.561V71.8358C158.341 67.469 161.559 64.0095 165.433 64.0095Z" fill="white" stroke="#FF5F7D"/>
<path d="M157.841 76.9961H249.823V71.8234C249.823 70.7314 249.627 69.65 249.245 68.641C248.864 67.6321 248.306 66.7154 247.601 65.9434C246.897 65.1713 246.061 64.559 245.141 64.1414C244.221 63.7238 243.235 63.5091 242.239 63.5095H165.422C163.411 63.5095 161.483 64.3855 160.062 65.9446C158.64 67.5038 157.841 69.6185 157.841 71.8234V76.9961Z" fill="#FF5F7D"/>
<path d="M229.691 73.2162C231.129 73.2162 232.294 71.9379 232.294 70.361C232.294 68.7841 231.129 67.5057 229.691 67.5057C228.253 67.5057 227.088 68.7841 227.088 70.361C227.088 71.9379 228.253 73.2162 229.691 73.2162Z" fill="#FFEE56"/>
<path d="M239.757 73.2162C241.195 73.2162 242.36 71.9379 242.36 70.361C242.36 68.7841 241.195 67.5057 239.757 67.5057C238.319 67.5057 237.154 68.7841 237.154 70.361C237.154 71.9379 238.319 73.2162 239.757 73.2162Z" fill="#3B1AE3"/>
<path d="M197.933 109.383H167.04V127.277H197.933V109.383Z" fill="#3B1AE3" stroke="#3B1AE3" stroke-miterlimit="10"/>
<path d="M240.972 109.383H210.08V127.277H240.972V109.383Z" fill="#3B1AE3" stroke="#3B1AE3" stroke-miterlimit="10"/>
<path d="M194.227 73.0734L194.227 73.0754C194.156 73.4205 193.997 73.7303 193.775 73.97C193.553 74.2092 193.279 74.3675 192.987 74.4337C192.696 74.4998 192.394 74.4729 192.114 74.3542C191.834 74.2354 191.583 74.0273 191.398 73.7478C189.608 71.0375 187.227 67.6921 184.127 63.7193C186.031 62.9586 187.662 62.5656 189.006 62.5502C190.462 62.5334 191.551 62.9576 192.319 63.8156C194.57 67.173 194.829 70.192 194.227 73.0734Z" fill="#FFEE56" stroke="#0A0016"/>
<path d="M255.151 62.5732L254.979 62.1142L254.516 62.2766C253.813 62.5237 253.3 62.4729 252.903 62.2454C252.487 62.0074 252.107 61.5232 251.796 60.7154C251.173 59.0986 250.926 56.4471 251.015 52.9156C251.263 51.8042 251.617 51.3576 251.925 51.1697C252.244 50.9754 252.647 50.9711 253.214 51.0639L253.737 51.1495L253.792 50.6227C254.039 48.2658 254.693 46.4432 255.667 45.059C256.638 43.6783 257.947 42.7063 259.553 42.0772C262.791 40.8093 267.231 40.9364 272.449 41.9857L272.451 41.986C273.761 42.2449 274.997 42.8564 276.046 43.7707C277.096 44.6853 277.927 45.8745 278.462 47.2348C280.421 52.2643 280.691 58.3823 279.999 64.2712L279.999 64.2712L279.998 64.2794C279.892 65.3367 279.581 66.3549 279.088 67.2658C277.621 69.8717 274.926 70.9198 271.615 71.3894L271.074 71.4662L271.199 71.9989C271.94 75.1473 272.215 78.4051 272.014 81.6478H256.927C258.464 75.9934 257.779 69.5997 255.151 62.5732Z" fill="#FFEE56" stroke="#0A0016"/>
<path d="M214.398 72.5372L214.399 72.5369L222.174 63.5299C220.691 62.0829 219.074 61.5194 217.277 61.8325L214.398 72.5372ZM214.398 72.5372C214.203 72.7642 213.958 72.9204 213.695 72.9948C213.432 73.069 213.157 73.0606 212.897 72.9699C212.638 72.879 212.4 72.7072 212.215 72.4671C212.03 72.2267 211.908 71.9292 211.866 71.608L211.866 71.608M214.398 72.5372L211.866 71.608M211.866 71.608L211.865 71.6009M211.866 71.608L211.865 71.6009M211.865 71.6009C211.726 70.6225 211.684 69.63 211.742 68.6415M211.865 71.6009L211.742 68.6415M211.742 68.6415C211.968 65.2034 214.271 62.3564 217.277 61.8325L211.742 68.6415Z" fill="#FFEE56" stroke="#0A0016"/>
</svg>
