<svg width="367" height="260" viewBox="0 0 367 260" fill="none" xmlns="http://www.w3.org/2000/svg">
<path d="M67.2407 5.42067H296.759C302.697 5.42067 307.5 10.1747 307.5 16.0264V221.04C307.5 226.892 302.697 231.646 296.759 231.646H67.2407C61.3031 231.646 56.5 226.892 56.5 221.04V16.0264C56.5 10.1747 61.3031 5.42067 67.2407 5.42067Z" fill="#FFE4E9" stroke="#0A0016"/>
<path d="M194.205 59.2805L194.167 59.3119L194.136 59.35C192.244 61.6673 190.352 62.6106 188.468 62.549C186.602 62.4879 184.611 61.4394 182.5 59.4517V5.42067H296.807C299.645 5.42067 302.365 6.53453 304.37 8.51531C306.375 10.4959 307.5 13.1809 307.5 15.9792V112.422H257.14H256.984L256.856 112.511C253.816 114.607 252.101 116.754 251.966 118.978C251.829 121.226 253.315 123.304 256.039 125.226L256.044 125.229C256.953 125.854 257.775 126.594 258.491 127.428C259.893 129.104 260.682 130.777 260.957 132.445C261.231 134.113 260.996 135.81 260.297 137.544L260.297 137.544C258.875 141.076 255.854 143.757 252.193 145.021L252.19 145.022C250.781 145.518 249.319 145.85 247.832 146.012C241.162 146.7 234.826 142.701 232.539 136.473C231.945 134.855 231.78 133.257 232.241 131.647C232.703 130.032 233.809 128.35 235.858 126.597C236.335 126.195 236.844 125.833 237.382 125.515L237.386 125.513C240.435 123.677 242.252 121.6 242.177 119.223C242.103 116.873 240.179 114.52 236.548 112.118L236.422 112.035H236.272H182.5V80.0852C184.615 77.1756 186.684 75.9537 188.69 76.0029C190.749 76.0533 192.947 77.4431 195.278 80.2436L195.323 80.297L195.38 80.3363C198.026 82.1482 200.948 82.7578 204.059 82.432C209.513 81.8612 214.209 78.0529 215.269 72.677C216.156 68.1739 214.388 63.7847 210.649 59.5328L210.612 59.4907L210.566 59.4579C207.57 57.2906 204.698 56.2264 201.944 56.2274C199.184 56.2285 196.607 57.2988 194.205 59.2805Z" fill="white" stroke="#0A0016"/>
<path d="M235.937 81.2699L235.937 81.2702L235.937 81.2699ZM235.885 81.7672L235.886 81.7674C251.36 83.3424 265.9 84.1548 278.215 83.2108L278.216 83.2108C279.625 83.1021 281.041 83.3233 282.348 83.856C297.097 89.8892 300.852 103.786 301.412 113.407L250.043 148.542L215.043 137.262L207.96 113.323C210.592 107.614 214.271 101.01 218.332 95.2985C222.447 89.5128 226.905 84.7139 231.02 82.6419C232.523 81.8953 234.211 81.5915 235.885 81.7672Z" fill="#02011D" stroke="#0A0016"/>
<path d="M307.87 113.609H202.051L203.98 137.408L228.23 141.903L261.85 140.845L307.87 113.609Z" fill="#FFE4E9" stroke="#FFE4E9"/>
<path d="M299.362 40.185L299.361 40.1877C297.991 49.7178 294.198 56.1989 288.786 60.6449C283.429 65.0461 276.442 67.4891 268.527 68.8692L241.988 32.7394L241.929 32.6588L241.843 32.6072C237.823 30.1831 235.383 27.4801 234.341 24.5382C233.303 21.6056 233.624 18.35 235.301 14.7507C237.145 10.8202 240.164 7.5407 243.952 5.3538L243.953 5.35321C243.953 5.35325 243.954 5.35274 243.956 5.35172L243.965 5.34754C243.973 5.34395 243.983 5.33935 243.998 5.33389C244.026 5.32282 244.065 5.30995 244.115 5.29576C244.215 5.26724 244.348 5.23725 244.514 5.20669C244.846 5.1456 245.287 5.08683 245.826 5.03132C246.905 4.92046 248.348 4.82562 250.04 4.74812C253.424 4.5932 257.782 4.50861 262.167 4.50062C266.553 4.49264 270.959 4.56128 274.44 4.71221C276.182 4.7877 277.686 4.88355 278.838 4.99994C279.414 5.05817 279.896 5.12093 280.273 5.18761C280.662 5.25657 280.898 5.32312 281.009 5.37451L281.009 5.3747C284.32 6.90371 286.57 8.65531 287.426 10.7367L287.487 10.8844L287.622 10.9695C293.602 14.7364 296.627 19.6948 298.306 25.2295C299.748 30.0806 300.109 35.1831 299.362 40.185Z" fill="#FF5F7D" stroke="black"/>
<path d="M270.034 82.6051C262.023 82.8898 253.658 82.5627 244.94 81.6229C246.6 77.2691 247.485 72.6884 247.777 67.9456L247.797 67.6223L247.51 67.472C241.322 64.2297 238.12 59.6535 237.353 53.9469C236.591 48.2774 238.225 41.4269 241.887 33.5744C242.639 33.6461 243.393 33.7167 244.146 33.7872C251.608 34.4858 258.997 35.1775 264.328 36.8659C267.306 37.8088 269.553 39.0374 270.823 40.6747C272.064 42.2733 272.429 44.3381 271.473 47.1293L271.04 48.393L272.196 47.7242C273.26 47.1086 274.195 46.7749 274.992 46.7589C275.756 46.7436 276.428 47.0185 277.016 47.7162C277.626 48.4681 277.927 49.4188 277.858 50.3786L277.858 50.3824C277.664 53.438 276.813 55.9794 275.353 58.0513C273.893 60.1236 271.803 61.7547 269.087 62.9576L268.862 63.0569L268.804 63.2953C267.194 69.8374 267.18 76.3131 270.034 82.6051Z" fill="#FFEE56" stroke="#0A0016"/>
<path d="M174.582 110.278C174.682 110.988 174.782 111.698 174.883 112.409L80.1844 112.411C79.3925 102.318 81.4632 92.0535 87.3148 81.5507L87.3149 81.5505C88.9741 78.5691 91.3396 76.0282 94.2097 74.1455C97.0798 72.2628 100.369 71.0943 103.796 70.7403C103.796 70.7403 103.796 70.7403 103.796 70.7402L111.662 69.9302C112.964 70.7693 114.749 71.294 116.884 71.6121C119.114 71.9443 121.774 72.0577 124.759 72.0408C129.01 72.0168 133.963 71.727 139.321 71.4137C141.467 71.2882 143.677 71.1589 145.934 71.0413L152.333 71.6732L152.335 71.6733C155.999 72.0244 159.494 73.3687 162.433 75.5573C165.372 77.7454 167.641 80.6924 168.992 84.0725C171.944 91.5519 173.258 100.878 174.582 110.278Z" fill="#FF5F7D" stroke="#0A0016"/>
<path d="M147.401 19.7982L147.245 19.8176L147.128 19.9229L113.05 50.627L109.06 47.6313L108.878 47.4951L108.656 47.5419C106.135 48.0731 103.968 48.1995 102.312 47.708C100.703 47.2305 99.5407 46.1613 98.9949 44.1609L98.8917 43.7825L98.4996 43.7927C94.8926 43.8863 92.6655 43.0175 91.4273 41.5061C90.1808 39.9848 89.8208 37.6748 90.2797 34.6167L90.3106 34.4109L90.1863 34.2439C88.9164 32.5384 88.2974 30.9973 88.1857 29.5977C88.0746 28.2059 88.461 26.906 89.2893 25.6666C90.9673 23.1557 94.4346 20.9289 99.0945 18.8767L99.5372 18.6818L99.357 18.2328C98.2429 15.458 98.2884 13.0462 99.4689 10.9533C100.653 8.85329 103.027 6.98931 106.761 5.42067H154.915C155.122 5.62851 155.238 5.83378 155.296 6.03296C155.365 6.2726 155.362 6.54323 155.279 6.85713C155.106 7.506 154.613 8.25827 153.91 9.10028L153.692 9.36151L153.855 9.66029C155.494 12.6639 155.726 14.9109 154.768 16.5037C153.794 18.1228 151.466 19.2923 147.401 19.7982Z" fill="#3B1AE3" stroke="#0A0016"/>
<path d="M136.224 71.5522C131.165 71.6096 126.455 71.5211 122.386 71.1607C118.317 70.8003 114.927 70.1707 112.476 69.1659C114.897 64.147 114.498 57.3388 113.423 50.2175L113.412 50.146L113.382 50.0805L111.103 45.2045L110.98 44.9412L110.69 44.9178C106.626 44.5899 104.912 43.3172 104.305 41.7039C103.99 40.8663 103.944 39.8719 104.099 38.7409C104.249 37.6424 104.585 36.4466 105.013 35.1897C105.976 34.2398 106.842 33.9799 107.647 34.057C108.513 34.14 109.401 34.6203 110.354 35.3212L111.031 35.8195L111.146 34.9863C111.666 31.1848 113.011 28.2895 115.001 26.1047C116.993 23.917 119.662 22.4099 122.882 21.4359C129.268 19.5036 137.73 19.6943 147.089 20.7549C150.601 31.4763 151.099 39.5656 148.992 45.3316C146.882 51.1057 142.117 54.6555 134.838 56.1761L134.563 56.2335L134.469 56.4975C132.548 61.8804 132.946 66.9462 136.224 71.5522Z" fill="#FFEE56" stroke="#0A0016"/>
<path d="M222.671 156.921L222.658 156.896L222.642 156.873C221.124 154.643 220.22 152.625 219.968 150.838C219.717 149.07 220.101 147.517 221.187 146.162C222.287 144.79 224.14 143.584 226.896 142.602C229.647 141.621 233.263 140.877 237.84 140.405L237.84 140.405L237.845 140.404C249.197 139.121 258.387 139.734 265.148 142.469C271.877 145.19 276.219 150.019 277.909 157.268L277.985 157.593L278.314 157.648C284.725 158.713 288.069 161.242 289.54 164.637C291.031 168.08 290.662 172.553 289.299 177.649L289.216 177.96L289.465 178.165C297.61 184.846 300.555 192.409 299.911 200.611L299.87 201.143L300.403 201.151C302.307 201.178 303.683 201.979 304.789 203.257C305.897 204.535 306.726 206.284 307.5 208.214V221.066C307.499 223.87 306.372 226.561 304.362 228.546C302.353 230.531 299.627 231.647 296.783 231.648H262.129L222.671 156.921Z" fill="#3B1AE3" stroke="#0A0016"/>
<path d="M286.674 231.648H199.747L205.9 222.96L205.9 222.96C207.41 220.827 209.383 219.053 211.675 217.767C213.967 216.481 216.52 215.715 219.15 215.526C219.15 215.526 219.15 215.526 219.15 215.526L231.317 214.652C231.85 214.728 232.387 214.803 232.923 214.87C241.475 215.963 250.137 215.89 258.669 214.653L268.534 215.736L268.534 215.736C270.719 215.976 272.83 216.662 274.732 217.751C276.635 218.841 278.286 220.308 279.582 222.062L279.582 222.062L286.674 231.648Z" fill="white" stroke="#0A0016"/>
<path d="M235.239 197.917L235.171 197.619L234.875 197.543C230.704 196.48 227.583 194.687 225.308 192.307C223.033 189.927 221.579 186.932 220.787 183.424C219.219 176.479 220.26 167.582 222.62 157.666C225.123 157.723 227.71 157.734 230.292 157.746C232.555 157.756 234.813 157.766 237.007 157.806C241.876 157.896 246.507 158.135 250.463 158.845C254.428 159.557 257.644 160.732 259.74 162.64C261.803 164.518 262.837 167.158 262.342 170.966L262.252 171.653L262.932 171.522C265.365 171.053 267.022 171.274 268.004 172.049C268.961 172.804 269.441 174.225 269.172 176.598L269.168 176.628L269.169 176.658C269.199 181.372 268.738 185.167 267.598 187.7C267.032 188.958 266.311 189.876 265.427 190.451C264.549 191.023 263.468 191.284 262.124 191.157L261.653 191.112L261.582 191.579L258.222 213.709C249.603 214.929 240.853 214.95 232.229 213.772C235.427 209.198 236.62 203.961 235.239 197.917Z" fill="#FFEE56" stroke="#0A0016"/>
<mask id="path-13-inside-1" fill="white">
<path d="M182 112.911V165.405C176.971 169.63 172.167 169.561 167.579 165.405C162.735 161.684 158.256 161.289 154.235 165.089C154.018 165.295 153.791 165.496 153.564 165.693C149.995 168.811 149.248 174.351 150.576 179.03C152.249 184.933 158.559 188.384 164.444 186.474C164.643 186.409 164.842 186.342 165.027 186.277C166.458 185.738 167.792 184.974 168.977 184.016C173.203 180.657 177.541 181.139 181.996 184.909V232.154H67.2646C65.7848 232.154 64.3195 231.866 62.9525 231.306C61.5854 230.746 60.3433 229.926 59.2972 228.892C58.2511 227.858 57.4215 226.63 56.8558 225.279C56.29 223.929 55.9992 222.481 56 221.019V112.911H127.728C132.213 108.145 133.215 103.684 127.728 99.7862C122.622 95.7977 122.166 91.5888 125.283 87.2126C126.945 84.9314 129.195 83.1316 131.799 82.0001C137.037 79.6546 140.829 79.2453 146.322 82.0336C149.172 83.4759 149.803 84.5758 150.853 86.4334C152.293 88.9756 152.747 92.0079 151.612 94.6092C150.896 96.2048 149.921 97.6739 148.724 98.9578C143.994 104.131 143.669 108.861 150.118 112.911H182Z"/>
</mask>
<path d="M182 112.911V165.405C176.971 169.63 172.167 169.561 167.579 165.405C162.735 161.684 158.256 161.289 154.235 165.089C154.018 165.295 153.791 165.496 153.564 165.693C149.995 168.811 149.248 174.351 150.576 179.03C152.249 184.933 158.559 188.384 164.444 186.474C164.643 186.409 164.842 186.342 165.027 186.277C166.458 185.738 167.792 184.974 168.977 184.016C173.203 180.657 177.541 181.139 181.996 184.909V232.154H67.2646C65.7848 232.154 64.3195 231.866 62.9525 231.306C61.5854 230.746 60.3433 229.926 59.2972 228.892C58.2511 227.858 57.4215 226.63 56.8558 225.279C56.29 223.929 55.9992 222.481 56 221.019V112.911H127.728C132.213 108.145 133.215 103.684 127.728 99.7862C122.622 95.7977 122.166 91.5888 125.283 87.2126C126.945 84.9314 129.195 83.1316 131.799 82.0001C137.037 79.6546 140.829 79.2453 146.322 82.0336C149.172 83.4759 149.803 84.5758 150.853 86.4334C152.293 88.9756 152.747 92.0079 151.612 94.6092C150.896 96.2048 149.921 97.6739 148.724 98.9578C143.994 104.131 143.669 108.861 150.118 112.911H182Z" fill="white"/>
<path d="M182 112.911H183V111.911H182V112.911ZM182 165.405L182.643 166.171L183 165.871V165.405H182ZM167.579 165.405L168.25 164.664L168.22 164.637L168.188 164.612L167.579 165.405ZM154.235 165.089L153.548 164.362L153.545 164.364L154.235 165.089ZM153.564 165.693L152.909 164.937L152.906 164.94L153.564 165.693ZM150.576 179.03L151.538 178.757L151.538 178.757L150.576 179.03ZM164.444 186.474L164.753 187.425L164.754 187.424L164.444 186.474ZM165.027 186.277L165.358 187.22L165.369 187.217L165.38 187.213L165.027 186.277ZM168.977 184.016L168.355 183.233L168.348 183.238L168.977 184.016ZM181.996 184.909H182.996V184.445L182.642 184.146L181.996 184.909ZM181.996 232.154V233.154H182.996V232.154H181.996ZM67.2646 232.154L67.2646 231.154L67.2646 231.154L67.2646 232.154ZM56 221.019L57 221.019V221.019H56ZM56 112.911V111.911H55V112.911H56ZM127.728 112.911V113.911H128.16L128.457 113.596L127.728 112.911ZM127.728 99.7862L127.113 100.574L127.131 100.588L127.149 100.601L127.728 99.7862ZM125.283 87.2126L124.474 86.6236L124.468 86.6324L125.283 87.2126ZM131.799 82.0001L132.198 82.9173L132.208 82.9128L131.799 82.0001ZM146.322 82.0336L145.869 82.9253L145.871 82.9258L146.322 82.0336ZM150.853 86.4334L149.982 86.9253L149.983 86.9262L150.853 86.4334ZM151.612 94.6092L152.524 95.0185L152.528 95.0092L151.612 94.6092ZM148.724 98.9578L147.992 98.276L147.986 98.283L148.724 98.9578ZM150.118 112.911L149.586 113.758L149.83 113.911H150.118V112.911ZM181 112.911V165.405H183V112.911H181ZM181.357 164.64C178.96 166.653 176.723 167.556 174.628 167.548C172.539 167.541 170.418 166.628 168.25 164.664L166.907 166.147C169.328 168.338 171.903 169.538 174.621 169.548C177.332 169.558 180.011 168.382 182.643 166.171L181.357 164.64ZM168.188 164.612C165.674 162.681 163.147 161.528 160.638 161.427C158.094 161.326 155.717 162.312 153.548 164.362L154.922 165.815C156.773 164.066 158.646 163.349 160.558 163.426C162.505 163.504 164.64 164.409 166.969 166.198L168.188 164.612ZM153.545 164.364C153.345 164.555 153.132 164.744 152.909 164.937L154.219 166.448C154.45 166.248 154.69 166.036 154.924 165.813L153.545 164.364ZM152.906 164.94C148.943 168.402 148.223 174.402 149.614 179.303L151.538 178.757C150.273 174.299 151.046 169.221 154.222 166.446L152.906 164.94ZM149.614 179.302C151.439 185.742 158.319 189.513 164.753 187.425L164.135 185.522C158.798 187.255 153.059 184.123 151.538 178.757L149.614 179.302ZM164.754 187.424C164.958 187.358 165.165 187.288 165.358 187.22L164.697 185.333C164.52 185.395 164.328 185.46 164.134 185.523L164.754 187.424ZM165.38 187.213C166.91 186.636 168.337 185.819 169.606 184.793L168.348 183.238C167.246 184.129 166.006 184.839 164.675 185.341L165.38 187.213ZM169.599 184.799C171.555 183.244 173.452 182.638 175.322 182.786C177.214 182.936 179.221 183.871 181.35 185.673L182.642 184.146C180.316 182.178 177.926 180.986 175.48 180.792C173.01 180.597 170.625 181.429 168.355 183.233L169.599 184.799ZM180.996 184.909V232.154H182.996V184.909H180.996ZM181.996 231.154H67.2646V233.154H181.996V231.154ZM67.2646 231.154C65.9145 231.154 64.5779 230.891 63.3313 230.381L62.5736 232.232C64.0611 232.841 65.6551 233.154 67.2646 233.154L67.2646 231.154ZM63.3313 230.381C62.0847 229.87 60.9529 229.123 60.0002 228.181L58.5942 229.603C59.7337 230.73 61.086 231.623 62.5736 232.232L63.3313 230.381ZM60.0002 228.181C59.0476 227.239 58.2927 226.122 57.7781 224.893L55.9334 225.666C56.5503 227.139 57.4547 228.477 58.5942 229.603L60.0002 228.181ZM57.7781 224.893C57.2636 223.665 56.9993 222.348 57 221.019L55 221.018C54.9991 222.613 55.3164 224.193 55.9334 225.666L57.7781 224.893ZM57 221.019V112.911H55V221.019H57ZM56 113.911H127.728V111.911H56V113.911ZM128.457 113.596C130.748 111.161 132.321 108.636 132.466 106.08C132.617 103.425 131.224 101.043 128.307 98.971L127.149 100.601C129.719 102.427 130.569 104.225 130.469 105.966C130.365 107.806 129.194 109.895 127 112.225L128.457 113.596ZM128.344 98.9981C125.903 97.0914 124.712 95.2399 124.407 93.4744C124.104 91.7218 124.637 89.8425 126.097 87.7927L124.468 86.6324C122.811 88.9588 122.014 91.3721 122.436 93.8151C122.856 96.2452 124.447 98.4925 127.113 100.574L128.344 98.9981ZM126.091 87.8015C127.647 85.6652 129.756 83.9783 132.198 82.9173L131.401 81.0829C128.634 82.285 126.242 84.1977 124.474 86.6237L126.091 87.8015ZM132.208 82.9128C134.771 81.7648 136.888 81.1345 138.986 81.0915C141.07 81.0487 143.228 81.5845 145.869 82.9253L146.775 81.1419C143.923 79.6944 141.439 79.0407 138.945 79.0919C136.464 79.1428 134.065 79.8899 131.39 81.0874L132.208 82.9128ZM145.871 82.9258C147.231 83.6142 147.993 84.1866 148.534 84.7622C149.084 85.3483 149.449 85.9821 149.982 86.9253L151.724 85.9414C151.207 85.0271 150.732 84.1821 149.992 83.3934C149.241 82.594 148.263 81.8952 146.774 81.1413L145.871 82.9258ZM149.983 86.9262C151.311 89.2712 151.673 91.9683 150.695 94.2092L152.528 95.0092C153.821 92.0475 153.275 88.6801 151.723 85.9405L149.983 86.9262ZM150.699 94.1999C150.029 95.6951 149.114 97.0721 147.992 98.276L149.456 99.6396C150.727 98.2756 151.763 96.7146 152.524 95.0184L150.699 94.1999ZM147.986 98.283C145.557 100.939 144.074 103.673 144.231 106.413C144.39 109.206 146.226 111.648 149.586 113.758L150.65 112.064C147.561 110.125 146.335 108.176 146.227 106.299C146.117 104.367 147.161 102.149 149.462 99.6326L147.986 98.283ZM150.118 113.911H182V111.911H150.118V113.911Z" fill="#0A0016" mask="url(#path-13-inside-1)"/>
<path d="M145.946 146.659C155.095 137.662 150.976 131.277 133.422 127.534C109.61 123.259 90.3336 135.706 75.735 165.405C66.8245 173.335 58.8918 181.607 59.0671 192.703L56.0299 200.574L56 221.209C56 224.11 57.1665 226.893 59.2427 228.944C61.319 230.995 64.1351 232.148 67.0714 232.148H100.973L145.946 146.659Z" fill="#02011D"/>
<path d="M130.34 188.53L129.885 188.571V189.028V202.112C120.343 203.892 111.085 203.433 102.147 200.335C104.1 192.991 104.342 184.845 103.558 176.235L103.518 175.789L103.069 175.781C100.321 175.733 98.1775 174.99 97.0115 172.701C95.8099 170.342 95.5711 166.22 97.0871 159.189C97.6479 157.958 98.5448 157.105 99.8346 156.643C101.16 156.169 102.938 156.095 105.245 156.525L105.722 156.613L105.825 156.139C107.012 150.697 111.479 147.666 118.513 146.386C125.476 145.119 134.811 145.606 145.53 147.105C147.931 158.463 148.786 168.387 146.741 175.683C145.713 179.354 143.955 182.341 141.306 184.518C138.655 186.696 135.073 188.098 130.34 188.53Z" fill="#FFEE56" stroke="#0A0016"/>
<path d="M162.751 231.648H74.2795L77.8689 220.846L77.8689 220.846C79.2164 216.789 81.4947 213.094 84.5264 210.05C87.5582 207.006 91.2615 204.695 95.3473 203.298L95.3474 203.298L101.556 201.175C110.015 203.598 119.689 204.107 130.361 203.031L144.88 205.948C147.205 206.415 149.379 207.436 151.215 208.92C153.05 210.404 154.491 212.308 155.412 214.466L162.751 231.648Z" fill="#FF5F7D" stroke="#0A0016"/>
</svg>
