<svg width="1600" height="508" viewBox="0 0 1600 508" fill="none" xmlns="http://www.w3.org/2000/svg">
<path d="M-4 36H1596V429H-4V36Z" fill="#FFF67A"/>
<circle cx="204.313" cy="415.179" r="2.82089" transform="rotate(-180 204.313 415.179)" fill="#3B1AE3"/>
<circle cx="162.94" cy="415.179" r="2.82089" transform="rotate(-180 162.94 415.179)" fill="#3B1AE3"/>
<circle cx="121.567" cy="415.179" r="2.82089" transform="rotate(-180 121.567 415.179)" fill="#3B1AE3"/>
<circle cx="80.1938" cy="415.179" r="2.82089" transform="rotate(-180 80.1938 415.179)" fill="#3B1AE3"/>
<circle cx="38.8207" cy="415.179" r="2.82089" transform="rotate(-180 38.8207 415.179)" fill="#3B1AE3"/>
<circle cx="204.313" cy="373.806" r="2.82089" transform="rotate(-180 204.313 373.806)" fill="#3B1AE3"/>
<circle cx="162.94" cy="373.806" r="2.82089" transform="rotate(-180 162.94 373.806)" fill="#3B1AE3"/>
<circle cx="121.567" cy="373.806" r="2.82089" transform="rotate(-180 121.567 373.806)" fill="#3B1AE3"/>
<circle cx="80.1938" cy="373.806" r="2.82089" transform="rotate(-180 80.1938 373.806)" fill="#3B1AE3"/>
<circle cx="38.8207" cy="373.806" r="2.82089" transform="rotate(-180 38.8207 373.806)" fill="#3B1AE3"/>
<circle cx="204.313" cy="332.433" r="2.82089" transform="rotate(-180 204.313 332.433)" fill="#3B1AE3"/>
<circle cx="162.94" cy="332.433" r="2.82089" transform="rotate(-180 162.94 332.433)" fill="#3B1AE3"/>
<circle cx="121.567" cy="332.433" r="2.82089" transform="rotate(-180 121.567 332.433)" fill="#3B1AE3"/>
<circle cx="80.1938" cy="332.433" r="2.82089" transform="rotate(-180 80.1938 332.433)" fill="#3B1AE3"/>
<circle cx="38.8207" cy="332.433" r="2.82089" transform="rotate(-180 38.8207 332.433)" fill="#3B1AE3"/>
<circle cx="204.313" cy="291.06" r="2.82089" transform="rotate(-180 204.313 291.06)" fill="#3B1AE3"/>
<circle cx="162.94" cy="291.06" r="2.82089" transform="rotate(-180 162.94 291.06)" fill="#3B1AE3"/>
<circle cx="121.567" cy="291.06" r="2.82089" transform="rotate(-180 121.567 291.06)" fill="#3B1AE3"/>
<circle cx="80.1938" cy="291.06" r="2.82089" transform="rotate(-180 80.1938 291.06)" fill="#3B1AE3"/>
<circle cx="38.8207" cy="291.06" r="2.82089" transform="rotate(-180 38.8207 291.06)" fill="#3B1AE3"/>
<circle cx="204.313" cy="249.686" r="2.82089" transform="rotate(-180 204.313 249.686)" fill="#3B1AE3"/>
<circle cx="162.94" cy="249.686" r="2.82089" transform="rotate(-180 162.94 249.686)" fill="#3B1AE3"/>
<circle cx="121.567" cy="249.686" r="2.82089" transform="rotate(-180 121.567 249.686)" fill="#3B1AE3"/>
<circle cx="80.1938" cy="249.686" r="2.82089" transform="rotate(-180 80.1938 249.686)" fill="#3B1AE3"/>
<circle cx="38.8207" cy="249.686" r="2.82089" transform="rotate(-180 38.8207 249.686)" fill="#3B1AE3"/>
<circle cx="204.313" cy="208.313" r="2.82089" transform="rotate(-180 204.313 208.313)" fill="#3B1AE3"/>
<circle cx="162.94" cy="208.313" r="2.82089" transform="rotate(-180 162.94 208.313)" fill="#3B1AE3"/>
<circle cx="121.567" cy="208.313" r="2.82089" transform="rotate(-180 121.567 208.313)" fill="#3B1AE3"/>
<circle cx="80.1938" cy="208.313" r="2.82089" transform="rotate(-180 80.1938 208.313)" fill="#3B1AE3"/>
<circle cx="38.8207" cy="208.313" r="2.82089" transform="rotate(-180 38.8207 208.313)" fill="#3B1AE3"/>
<circle cx="204.313" cy="166.94" r="2.82089" transform="rotate(-180 204.313 166.94)" fill="#3B1AE3"/>
<circle cx="162.94" cy="166.94" r="2.82089" transform="rotate(-180 162.94 166.94)" fill="#3B1AE3"/>
<circle cx="121.567" cy="166.94" r="2.82089" transform="rotate(-180 121.567 166.94)" fill="#3B1AE3"/>
<circle cx="80.1938" cy="166.94" r="2.82089" transform="rotate(-180 80.1938 166.94)" fill="#3B1AE3"/>
<circle cx="38.8207" cy="166.94" r="2.82089" transform="rotate(-180 38.8207 166.94)" fill="#3B1AE3"/>
<circle cx="204.313" cy="125.567" r="2.82089" transform="rotate(-180 204.313 125.567)" fill="#3B1AE3"/>
<circle cx="162.94" cy="125.567" r="2.82089" transform="rotate(-180 162.94 125.567)" fill="#3B1AE3"/>
<circle cx="121.567" cy="125.567" r="2.82089" transform="rotate(-180 121.567 125.567)" fill="#3B1AE3"/>
<circle cx="80.1938" cy="125.567" r="2.82089" transform="rotate(-180 80.1938 125.567)" fill="#3B1AE3"/>
<circle cx="38.8207" cy="125.567" r="2.82089" transform="rotate(-180 38.8207 125.567)" fill="#3B1AE3"/>
<circle cx="204.313" cy="84.1942" r="2.82089" transform="rotate(-180 204.313 84.1942)" fill="#3B1AE3"/>
<circle cx="162.94" cy="84.1942" r="2.82089" transform="rotate(-180 162.94 84.1942)" fill="#3B1AE3"/>
<circle cx="121.567" cy="84.1942" r="2.82089" transform="rotate(-180 121.567 84.1942)" fill="#3B1AE3"/>
<circle cx="80.1938" cy="84.1942" r="2.82089" transform="rotate(-180 80.1938 84.1942)" fill="#3B1AE3"/>
<circle cx="38.8207" cy="84.1942" r="2.82089" transform="rotate(-180 38.8207 84.1942)" fill="#3B1AE3"/>
<circle cx="204.313" cy="42.8212" r="2.82089" transform="rotate(-180 204.313 42.8212)" fill="#3B1AE3"/>
<circle cx="162.94" cy="42.8212" r="2.82089" transform="rotate(-180 162.94 42.8212)" fill="#3B1AE3"/>
<circle cx="121.567" cy="42.8212" r="2.82089" transform="rotate(-180 121.567 42.8212)" fill="#3B1AE3"/>
<circle cx="80.1938" cy="42.8212" r="2.82089" transform="rotate(-180 80.1938 42.8212)" fill="#3B1AE3"/>
<circle cx="38.8207" cy="42.8212" r="2.82089" transform="rotate(-180 38.8207 42.8212)" fill="#3B1AE3"/>
<circle cx="1524.31" cy="505.179" r="2.82089" transform="rotate(-180 1524.31 505.179)" fill="#FF5F7D"/>
<circle cx="1482.94" cy="505.179" r="2.82089" transform="rotate(-180 1482.94 505.179)" fill="#FF5F7D"/>
<circle cx="1441.57" cy="505.179" r="2.82089" transform="rotate(-180 1441.57 505.179)" fill="#FF5F7D"/>
<circle cx="1400.19" cy="505.179" r="2.82089" transform="rotate(-180 1400.19 505.179)" fill="#FF5F7D"/>
<circle cx="1358.82" cy="505.179" r="2.82089" transform="rotate(-180 1358.82 505.179)" fill="#FF5F7D"/>
<circle cx="1524.31" cy="463.806" r="2.82089" transform="rotate(-180 1524.31 463.806)" fill="#FF5F7D"/>
<circle cx="1482.94" cy="463.806" r="2.82089" transform="rotate(-180 1482.94 463.806)" fill="#FF5F7D"/>
<circle cx="1441.57" cy="463.806" r="2.82089" transform="rotate(-180 1441.57 463.806)" fill="#FF5F7D"/>
<circle cx="1400.19" cy="463.806" r="2.82089" transform="rotate(-180 1400.19 463.806)" fill="#FF5F7D"/>
<circle cx="1358.82" cy="463.806" r="2.82089" transform="rotate(-180 1358.82 463.806)" fill="#FF5F7D"/>
<circle cx="1524.31" cy="422.433" r="2.82089" transform="rotate(-180 1524.31 422.433)" fill="#FF5F7D"/>
<circle cx="1482.94" cy="422.433" r="2.82089" transform="rotate(-180 1482.94 422.433)" fill="#FF5F7D"/>
<circle cx="1441.57" cy="422.433" r="2.82089" transform="rotate(-180 1441.57 422.433)" fill="#FF5F7D"/>
<circle cx="1400.19" cy="422.433" r="2.82089" transform="rotate(-180 1400.19 422.433)" fill="#FF5F7D"/>
<circle cx="1358.82" cy="422.433" r="2.82089" transform="rotate(-180 1358.82 422.433)" fill="#FF5F7D"/>
<circle cx="1524.31" cy="381.06" r="2.82089" transform="rotate(-180 1524.31 381.06)" fill="#FF5F7D"/>
<circle cx="1482.94" cy="381.06" r="2.82089" transform="rotate(-180 1482.94 381.06)" fill="#FF5F7D"/>
<circle cx="1441.57" cy="381.06" r="2.82089" transform="rotate(-180 1441.57 381.06)" fill="#FF5F7D"/>
<circle cx="1400.19" cy="381.06" r="2.82089" transform="rotate(-180 1400.19 381.06)" fill="#FF5F7D"/>
<circle cx="1358.82" cy="381.06" r="2.82089" transform="rotate(-180 1358.82 381.06)" fill="#FF5F7D"/>
<circle cx="1524.31" cy="339.686" r="2.82089" transform="rotate(-180 1524.31 339.686)" fill="#FF5F7D"/>
<circle cx="1482.94" cy="339.686" r="2.82089" transform="rotate(-180 1482.94 339.686)" fill="#FF5F7D"/>
<circle cx="1441.57" cy="339.686" r="2.82089" transform="rotate(-180 1441.57 339.686)" fill="#FF5F7D"/>
<circle cx="1400.19" cy="339.686" r="2.82089" transform="rotate(-180 1400.19 339.686)" fill="#FF5F7D"/>
<circle cx="1358.82" cy="339.686" r="2.82089" transform="rotate(-180 1358.82 339.686)" fill="#FF5F7D"/>
<circle cx="1524.31" cy="298.313" r="2.82089" transform="rotate(-180 1524.31 298.313)" fill="#FF5F7D"/>
<circle cx="1482.94" cy="298.313" r="2.82089" transform="rotate(-180 1482.94 298.313)" fill="#FF5F7D"/>
<circle cx="1441.57" cy="298.313" r="2.82089" transform="rotate(-180 1441.57 298.313)" fill="#FF5F7D"/>
<circle cx="1400.19" cy="298.313" r="2.82089" transform="rotate(-180 1400.19 298.313)" fill="#FF5F7D"/>
<circle cx="1358.82" cy="298.313" r="2.82089" transform="rotate(-180 1358.82 298.313)" fill="#FF5F7D"/>
<circle cx="1524.31" cy="256.94" r="2.82089" transform="rotate(-180 1524.31 256.94)" fill="#FF5F7D"/>
<circle cx="1482.94" cy="256.94" r="2.82089" transform="rotate(-180 1482.94 256.94)" fill="#FF5F7D"/>
<circle cx="1441.57" cy="256.94" r="2.82089" transform="rotate(-180 1441.57 256.94)" fill="#FF5F7D"/>
<circle cx="1400.19" cy="256.94" r="2.82089" transform="rotate(-180 1400.19 256.94)" fill="#FF5F7D"/>
<circle cx="1358.82" cy="256.94" r="2.82089" transform="rotate(-180 1358.82 256.94)" fill="#FF5F7D"/>
<circle cx="1524.31" cy="215.567" r="2.82089" transform="rotate(-180 1524.31 215.567)" fill="#FF5F7D"/>
<circle cx="1482.94" cy="215.567" r="2.82089" transform="rotate(-180 1482.94 215.567)" fill="#FF5F7D"/>
<circle cx="1441.57" cy="215.567" r="2.82089" transform="rotate(-180 1441.57 215.567)" fill="#FF5F7D"/>
<circle cx="1400.19" cy="215.567" r="2.82089" transform="rotate(-180 1400.19 215.567)" fill="#FF5F7D"/>
<circle cx="1358.82" cy="215.567" r="2.82089" transform="rotate(-180 1358.82 215.567)" fill="#FF5F7D"/>
<circle cx="1524.31" cy="174.194" r="2.82089" transform="rotate(-180 1524.31 174.194)" fill="#FF5F7D"/>
<circle cx="1482.94" cy="174.194" r="2.82089" transform="rotate(-180 1482.94 174.194)" fill="#FF5F7D"/>
<circle cx="1441.57" cy="174.194" r="2.82089" transform="rotate(-180 1441.57 174.194)" fill="#FF5F7D"/>
<circle cx="1400.19" cy="174.194" r="2.82089" transform="rotate(-180 1400.19 174.194)" fill="#FF5F7D"/>
<circle cx="1358.82" cy="174.194" r="2.82089" transform="rotate(-180 1358.82 174.194)" fill="#FF5F7D"/>
<circle cx="1524.31" cy="132.821" r="2.82089" transform="rotate(-180 1524.31 132.821)" fill="#FF5F7D"/>
<circle cx="1482.94" cy="132.821" r="2.82089" transform="rotate(-180 1482.94 132.821)" fill="#FF5F7D"/>
<circle cx="1441.57" cy="132.821" r="2.82089" transform="rotate(-180 1441.57 132.821)" fill="#FF5F7D"/>
<circle cx="1400.19" cy="132.821" r="2.82089" transform="rotate(-180 1400.19 132.821)" fill="#FF5F7D"/>
<circle cx="1358.82" cy="132.821" r="2.82089" transform="rotate(-180 1358.82 132.821)" fill="#FF5F7D"/>
</svg>
